<svg width="1704" height="371" viewBox="0 0 1704 371" fill="none" xmlns="http://www.w3.org/2000/svg">
<g opacity="0.15">
<path d="M374.605 4.2666L401.524 13.2495" stroke="url(#paint0_linear_1707_247)" stroke-width="2" stroke-linecap="round"/>
<path d="M27.5012 67.9634L77.0875 75.313" stroke="url(#paint1_linear_1707_247)" stroke-width="2" stroke-linecap="round"/>
<path d="M6.25 135.743L34.585 136.56" stroke="url(#paint2_linear_1707_247)" stroke-width="2" stroke-linecap="round"/>
<path d="M44.5024 137.376L75.6709 138.193" stroke="url(#paint3_linear_1707_247)" stroke-width="2" stroke-linecap="round"/>
<path d="M190.428 357.049L214.513 350.516" stroke="url(#paint4_linear_1707_247)" stroke-width="2" stroke-linecap="round"/>
<path d="M240.014 344.8L264.099 338.267" stroke="url(#paint5_linear_1707_247)" stroke-width="2" stroke-linecap="round"/>
<path d="M436.942 341.533L455.36 333.367" stroke="url(#paint6_linear_1707_247)" stroke-width="2" stroke-linecap="round"/>
<path d="M652.289 339.9L665.748 329.284" stroke="url(#paint7_linear_1707_247)" stroke-width="2" stroke-linecap="round"/>
<path d="M676.02 320.301L689.48 309.685" stroke="url(#paint8_linear_1707_247)" stroke-width="2" stroke-linecap="round"/>
<path d="M478.028 326.017L496.446 317.851" stroke="url(#paint9_linear_1707_247)" stroke-width="2" stroke-linecap="round"/>
<path d="M54.4192 299.885L84.8798 295.802" stroke="url(#paint10_linear_1707_247)" stroke-width="2" stroke-linecap="round"/>
<path d="M303.059 147.993L245.681 144.726" stroke="#4F46E5" stroke-width="2" stroke-linecap="round"/>
<path d="M372.48 152.076L315.102 148.809" stroke="#A5B4FC" stroke-width="2" stroke-linecap="round"/>
<path d="M441.901 156.159L384.523 152.893" stroke="#E0E7FF" stroke-width="2" stroke-linecap="round"/>
<path d="M443.206 134.877L386.957 127.577" stroke="#4F46E5" stroke-width="2" stroke-linecap="round"/>
<path d="M511.233 143.84L454.984 136.54" stroke="#A5B4FC" stroke-width="2" stroke-linecap="round"/>
<path d="M579.26 152.802L523.01 145.502" stroke="#E0E7FF" stroke-width="2" stroke-linecap="round"/>
<path d="M609.273 39.2232L568.544 15.6992" stroke="#4F46E5" stroke-width="2" stroke-linecap="round"/>
<path d="M658.405 67.7857L617.676 44.2617" stroke="#A5B4FC" stroke-width="2" stroke-linecap="round"/>
<path d="M707.537 96.348L666.808 72.824" stroke="#E0E7FF" stroke-width="2" stroke-linecap="round"/>
<path d="M148.002 118.243L91.1009 112.878" stroke="#4F46E5" stroke-width="2" stroke-linecap="round"/>
<path d="M216.831 124.865L159.93 119.5" stroke="#A5B4FC" stroke-width="2" stroke-linecap="round"/>
<path d="M285.661 131.486L228.759 126.121" stroke="#E0E7FF" stroke-width="2" stroke-linecap="round"/>
<path d="M82.1398 14.7147L29.6205 1" stroke="#4F46E5" stroke-width="2" stroke-linecap="round"/>
<path d="M145.609 31.432L93.0895 17.7173" stroke="#A5B4FC" stroke-width="2" stroke-linecap="round"/>
<path d="M209.077 48.149L156.558 34.4343" stroke="#E0E7FF" stroke-width="2" stroke-linecap="round"/>
<path d="M118.446 249.824L61.5035 255.043" stroke="#4F46E5" stroke-width="2" stroke-linecap="round"/>
<path d="M187.396 243.636L130.454 248.855" stroke="#A5B4FC" stroke-width="2" stroke-linecap="round"/>
<path d="M256.347 237.449L199.404 242.668" stroke="#E0E7FF" stroke-width="2" stroke-linecap="round"/>
<path d="M54.4433 352.758L1.99988 366.569" stroke="#4F46E5" stroke-width="2" stroke-linecap="round"/>
<path d="M118.008 336.162L65.5645 349.973" stroke="#A5B4FC" stroke-width="2" stroke-linecap="round"/>
<path d="M181.572 319.566L129.129 333.377" stroke="#E0E7FF" stroke-width="2" stroke-linecap="round"/>
<path d="M594.107 330.904L554.533 355.074" stroke="#4F46E5" stroke-width="2" stroke-linecap="round"/>
<path d="M642.166 301.741L602.592 325.911" stroke="#A5B4FC" stroke-width="2" stroke-linecap="round"/>
<path d="M690.225 272.579L650.651 296.749" stroke="#E0E7FF" stroke-width="2" stroke-linecap="round"/>
<path d="M691.228 340.548L663.622 369.726" stroke="#4F46E5" stroke-width="2" stroke-linecap="round"/>
<path d="M724.836 305.298L697.231 334.475" stroke="#A5B4FC" stroke-width="2" stroke-linecap="round"/>
<path d="M758.444 270.047L730.839 299.225" stroke="#E0E7FF" stroke-width="2" stroke-linecap="round"/>
<path d="M1400.94 147.993L1458.32 144.726" stroke="#4F46E5" stroke-width="2" stroke-linecap="round"/>
<path d="M1331.52 152.076L1388.9 148.809" stroke="#A5B4FC" stroke-width="2" stroke-linecap="round"/>
<path d="M1262.1 156.159L1319.48 152.893" stroke="#E0E7FF" stroke-width="2" stroke-linecap="round"/>
<path d="M1260.79 134.877L1317.04 127.577" stroke="#4F46E5" stroke-width="2" stroke-linecap="round"/>
<path d="M1192.77 143.84L1249.02 136.54" stroke="#A5B4FC" stroke-width="2" stroke-linecap="round"/>
<path d="M1124.74 152.802L1180.99 145.502" stroke="#E0E7FF" stroke-width="2" stroke-linecap="round"/>
<path d="M1094.73 39.2232L1135.46 15.6992" stroke="#4F46E5" stroke-width="2" stroke-linecap="round"/>
<path d="M1045.59 67.7857L1086.32 44.2617" stroke="#A5B4FC" stroke-width="2" stroke-linecap="round"/>
<path d="M996.463 96.348L1037.19 72.824" stroke="#E0E7FF" stroke-width="2" stroke-linecap="round"/>
<path d="M1556 118.243L1612.9 112.878" stroke="#4F46E5" stroke-width="2" stroke-linecap="round"/>
<path d="M1487.17 124.865L1544.07 119.5" stroke="#A5B4FC" stroke-width="2" stroke-linecap="round"/>
<path d="M1418.34 131.486L1475.24 126.121" stroke="#E0E7FF" stroke-width="2" stroke-linecap="round"/>
<path d="M1536.86 134.964L1578.14 131.66" stroke="#4F46E5" stroke-width="2" stroke-linecap="round"/>
<path d="M1621.86 14.7147L1674.38 1" stroke="#4F46E5" stroke-width="2" stroke-linecap="round"/>
<path d="M1558.39 31.432L1610.91 17.7173" stroke="#A5B4FC" stroke-width="2" stroke-linecap="round"/>
<path d="M1494.92 48.149L1547.44 34.4343" stroke="#E0E7FF" stroke-width="2" stroke-linecap="round"/>
<path d="M1340.96 84.9444L1393.48 71.2297" stroke="#4F46E5" stroke-width="2" stroke-linecap="round"/>
<path d="M1277.49 101.662L1330.01 87.947" stroke="#A5B4FC" stroke-width="2" stroke-linecap="round"/>
<path d="M1267.83 57.8843L1298.83 49.7908" stroke="#4F46E5" stroke-width="2" stroke-linecap="round"/>
<path d="M1230.38 67.7498L1261.37 59.6562" stroke="#A5B4FC" stroke-width="2" stroke-linecap="round"/>
<path d="M1646.85 224.938L1680.78 226.343" stroke="#4F46E5" stroke-width="2" stroke-linecap="round"/>
<path d="M1605.76 223.314L1639.7 224.719" stroke="#A5B4FC" stroke-width="2" stroke-linecap="round"/>
<path d="M1645.44 73.5799L1678.75 69.5967" stroke="#4F46E5" stroke-width="2" stroke-linecap="round"/>
<path d="M1605.14 78.4759L1638.46 74.4927" stroke="#A5B4FC" stroke-width="2" stroke-linecap="round"/>
<path d="M1522.12 72.6316L1554.91 67.3906" stroke="#4F46E5" stroke-width="2" stroke-linecap="round"/>
<path d="M1482.47 79.0489L1515.26 73.8079" stroke="#A5B4FC" stroke-width="2" stroke-linecap="round"/>
<path d="M1585.55 249.824L1642.5 255.043" stroke="#4F46E5" stroke-width="2" stroke-linecap="round"/>
<path d="M1516.6 243.636L1573.55 248.855" stroke="#A5B4FC" stroke-width="2" stroke-linecap="round"/>
<path d="M1447.65 237.449L1504.6 242.668" stroke="#E0E7FF" stroke-width="2" stroke-linecap="round"/>
<path d="M1649.56 352.758L1702 366.569" stroke="#4F46E5" stroke-width="2" stroke-linecap="round"/>
<path d="M1585.99 336.162L1638.44 349.973" stroke="#A5B4FC" stroke-width="2" stroke-linecap="round"/>
<path d="M1522.43 319.566L1574.87 333.377" stroke="#E0E7FF" stroke-width="2" stroke-linecap="round"/>
<path d="M1109.89 330.904L1149.47 355.074" stroke="#4F46E5" stroke-width="2" stroke-linecap="round"/>
<path d="M1061.83 301.741L1101.41 325.911" stroke="#A5B4FC" stroke-width="2" stroke-linecap="round"/>
<path d="M1013.78 272.579L1053.35 296.749" stroke="#E0E7FF" stroke-width="2" stroke-linecap="round"/>
<path d="M1508.88 347.561L1559.86 363.092" stroke="#4F46E5" stroke-width="2" stroke-linecap="round"/>
<path d="M1447.09 328.879L1498.06 344.41" stroke="#A5B4FC" stroke-width="2" stroke-linecap="round"/>
<path d="M1012.77 340.548L1040.38 369.726" stroke="#4F46E5" stroke-width="2" stroke-linecap="round"/>
<path d="M979.164 305.298L1006.77 334.475" stroke="#A5B4FC" stroke-width="2" stroke-linecap="round"/>
<path d="M945.556 270.047L973.161 299.225" stroke="#E0E7FF" stroke-width="2" stroke-linecap="round"/>
<path d="M849.217 60.2053V77.3545" stroke="url(#paint11_linear_1707_247)" stroke-width="2" stroke-linecap="round"/>
<path d="M965.391 5.89966L942.722 35.2982" stroke="url(#paint12_linear_1707_247)" stroke-width="2" stroke-linecap="round"/>
<path d="M1257.24 35.2983L1238.82 41.8313" stroke="url(#paint13_linear_1707_247)" stroke-width="2" stroke-linecap="round"/>
<path d="M1235.99 43.4646L1211.91 50.8142" stroke="url(#paint14_linear_1707_247)" stroke-width="2" stroke-linecap="round"/>
</g>
<defs>
<linearGradient id="paint0_linear_1707_247" x1="374.96" y1="3.91383" x2="392.851" y2="21.884" gradientUnits="userSpaceOnUse">
<stop offset="0%" stop-color="#4F46E5"/>
<stop offset="1" stop-color="white" stop-opacity="0"/>
</linearGradient>
<linearGradient id="paint1_linear_1707_247" x1="27.7049" y1="67.5068" x2="71.7953" y2="87.176" gradientUnits="userSpaceOnUse">
<stop offset="0%" stop-color="#4F46E5"/>
<stop offset="1" stop-color="white" stop-opacity="0"/>
</linearGradient>
<linearGradient id="paint2_linear_1707_247" x1="6.29321" y1="135.245" x2="34.4869" y2="137.691" gradientUnits="userSpaceOnUse">
<stop offset="0%" stop-color="#4F46E5"/>
<stop offset="1" stop-color="white" stop-opacity="0"/>
</linearGradient>
<linearGradient id="paint3_linear_1707_247" x1="44.5417" y1="136.878" x2="75.5816" y2="139.326" gradientUnits="userSpaceOnUse">
<stop offset="0%" stop-color="#4F46E5"/>
<stop offset="1" stop-color="white" stop-opacity="0"/>
</linearGradient>
<linearGradient id="paint4_linear_1707_247" x1="190.112" y1="356.662" x2="207.764" y2="342.25" gradientUnits="userSpaceOnUse">
<stop offset="0%" stop-color="#4F46E5"/>
<stop offset="1" stop-color="white" stop-opacity="0"/>
</linearGradient>
<linearGradient id="paint5_linear_1707_247" x1="239.698" y1="344.412" x2="257.35" y2="330.001" gradientUnits="userSpaceOnUse">
<stop offset="0%" stop-color="#4F46E5"/>
<stop offset="1" stop-color="white" stop-opacity="0"/>
</linearGradient>
<linearGradient id="paint6_linear_1707_247" x1="436.542" y1="341.233" x2="447.084" y2="327.165" gradientUnits="userSpaceOnUse">
<stop offset="0%" stop-color="#4F46E5"/>
<stop offset="1" stop-color="white" stop-opacity="0"/>
</linearGradient>
<linearGradient id="paint7_linear_1707_247" x1="651.857" y1="339.576" x2="662.398" y2="325.508" gradientUnits="userSpaceOnUse">
<stop offset="0%" stop-color="#4F46E5"/>
<stop offset="1" stop-color="white" stop-opacity="0"/>
</linearGradient>
<linearGradient id="paint8_linear_1707_247" x1="675.588" y1="319.977" x2="686.13" y2="305.909" gradientUnits="userSpaceOnUse">
<stop offset="0%" stop-color="#4F46E5"/>
<stop offset="1" stop-color="white" stop-opacity="0"/>
</linearGradient>
<linearGradient id="paint9_linear_1707_247" x1="477.628" y1="325.717" x2="488.17" y2="311.649" gradientUnits="userSpaceOnUse">
<stop offset="0%" stop-color="#4F46E5"/>
<stop offset="1" stop-color="white" stop-opacity="0"/>
</linearGradient>
<linearGradient id="paint10_linear_1707_247" x1="54.118" y1="299.516" x2="71.7704" y2="285.104" gradientUnits="userSpaceOnUse">
<stop offset="0%" stop-color="#4F46E5"/>
<stop offset="1" stop-color="white" stop-opacity="0"/>
</linearGradient>
<linearGradient id="paint11_linear_1707_247" x1="849.717" y1="60.2053" x2="849.717" y2="77.3545" gradientUnits="userSpaceOnUse">
<stop offset="0%" stop-color="#4F46E5"/>
<stop offset="1" stop-color="white" stop-opacity="0"/>
</linearGradient>
<linearGradient id="paint12_linear_1707_247" x1="965.875" y1="6.02374" x2="957.411" y2="39.0612" gradientUnits="userSpaceOnUse">
<stop offset="0%" stop-color="#4F46E5"/>
<stop offset="1" stop-color="white" stop-opacity="0"/>
</linearGradient>
<linearGradient id="paint13_linear_1707_247" x1="1257.61" y1="35.6401" x2="1245.74" y2="48.3093" gradientUnits="userSpaceOnUse">
<stop offset="0%" stop-color="#4F46E5"/>
<stop offset="1" stop-color="white" stop-opacity="0"/>
</linearGradient>
<linearGradient id="paint14_linear_1707_247" x1="1236.33" y1="43.8328" x2="1219.6" y2="59.1948" gradientUnits="userSpaceOnUse">
<stop offset="0%" stop-color="#4F46E5"/>
<stop offset="1" stop-color="white" stop-opacity="0"/>
</linearGradient>
</defs>
</svg>
