<svg xmlns="http://www.w3.org/2000/svg" version="1.1" width="600" height="118" viewBox="0 0 600 118"
     xml:space="preserve">
    <g transform="matrix(1 0 0 1 300.5 59.65)">
<g style="">
		<g transform="matrix(1 0 0 1 294.75 54.1)" id="layer">
<path
    style="stroke: none; stroke-width: 1; stroke-dasharray: none; stroke-linecap: butt; stroke-dashoffset: 0; stroke-linejoin: miter; stroke-miterlimit: 4; fill: rgb(81,96,112); fill-rule: nonzero; opacity: 1;"
    transform=" translate(-615.05, -375.05)"
    d="M 616.1 372.4 l 1.2 4.2 h 0 l 1.2 -4.2 h 1 l 0.8 5.2 h -0.8 l -0.5 -4.3 h 0 l -1.2 4.3 h -0.9 l -1.2 -4.3 h 0 l -0.5 4.3 h -0.8 l 0.8 -5.2 H 616.1 z M 613.6 372.4 v 0.7 h -1.5 v 4.6 h -0.8 v -4.6 h -1.5 v -0.7 H 613.6 z"
    stroke-linecap="round"/>
</g>
    <g transform="matrix(1 0 0 1 -71.4 14.8)" id="layer">
<path
    style="stroke: none; stroke-width: 1; stroke-dasharray: none; stroke-linecap: butt; stroke-dashoffset: 0; stroke-linejoin: miter; stroke-miterlimit: 4; fill: rgb(81,96,112); fill-rule: nonzero; opacity: 1;"
    transform=" translate(-248.9, -335.75)"
    d="M 467.2 329.9 c 0 -0.2 0.1 -0.7 0.1 -1.1 c 0 -3.9 -1.8 -10.3 -9.3 -10.3 c -8.3 0 -9.8 7.7 -9.8 11.4 H 467.2 z M 477.5 330.5 c 0 1.6 -0.3 5.5 -0.4 6.4 H 448 c 0 7.4 4.7 13.3 14.1 13.3 c 5 0 8.8 -1.7 9.8 -2.2 c 0.7 -0.3 1.2 -0.6 1.7 -0.6 c 0.4 0 0.7 0.2 0.8 1 c 0.1 1.2 0.4 5.1 0.4 7.3 c -1.8 0.7 -7.3 2.5 -13.7 2.5 c -16.1 0 -23.6 -8.5 -23.6 -23.5 c 0 -14.3 7.7 -23.7 20.7 -23.7 C 473.1 311 477.5 321.8 477.5 330.5 M 410.7 318.3 c -6.3 0 -9.8 3.9 -9.8 9.2 c 0 5.8 3.3 9.2 9.7 9.2 c 6 0 9.6 -3.3 9.6 -9.1 C 420.3 321.8 416.8 318.3 410.7 318.3 M 414.1 357.9 h -6.9 c -0.8 0 -1.9 0 -2.7 -0.1 c -1.8 0.7 -4.6 3.1 -4.6 7.1 c 0 4.8 4.2 7.4 10.6 7.4 c 8.3 0 12.6 -3.5 12.6 -8.3 C 423.1 360.5 420.6 357.9 414.1 357.9 M 409.7 380.1 c -13.1 0 -19.7 -5.1 -19.7 -13.9 c 0 -6.2 5 -9.3 8.1 -10.3 c -1.5 -0.6 -5 -2.1 -5 -6.8 c 0 -5 4.2 -6.8 6 -7.4 c -3 -0.9 -8.1 -4.8 -8.1 -13.3 c 0 -9.5 7.3 -17.5 20.1 -17.5 c 2.7 0 5 0.4 7.4 0.9 h 15.3 c 0 1.3 -0.1 3.7 -0.3 5.5 c -0.2 2 -1.5 2.1 -2.7 2.1 h -4 c 1.1 0.7 3.1 3.5 3.1 7.5 c 0 9.7 -6.8 16.6 -19.5 16.6 c -1.8 0 -3.8 -0.2 -5.2 -0.5 c -1.1 0.2 -2.7 1.4 -2.7 3 c 0 2.3 1.4 3.9 5.9 3.9 h 8.7 c 10.8 0 15.8 4.7 15.8 12.6 C 433.2 372.4 424.2 380.1 409.7 380.1 M 355.3 343.3 c 0 4 2.6 7.4 7.3 7.4 c 6.3 0 9.9 -5.9 9.9 -13.1 v -3.3 h -2.3 C 360.2 334.2 355.3 337.4 355.3 343.3 M 363.7 311 c 12.8 0 19.1 5.7 19.1 16.5 v 18.1 c 0 4 0.4 8.6 0.8 11.7 H 375 c -1.5 0 -1.6 -0.9 -1.7 -2 l -0.3 -3.8 h -0.4 c -1.4 2.1 -5.2 6.7 -13.5 6.7 c -8.5 0 -14.2 -6.3 -14.2 -14.7 c 0 -12 13.2 -15.9 25 -15.9 h 2.6 v -1.5 c 0 -5.5 -4.1 -7.4 -9.7 -7.4 c -5.6 0 -10.1 1.9 -11.4 2.6 c -0.5 0.2 -1.1 0.6 -1.6 0.6 c -0.8 0 -0.7 -0.7 -0.8 -0.9 c -0.1 -1.6 -0.3 -5.6 -0.3 -7 C 350.3 313.3 356.7 311 363.7 311 M 319.5 342.2 v -22.5 h -6.3 v -7.8 h 6.3 v -10 h 10.4 v 10 h 10.9 v 7.8 h -10.9 v 24.2 c 0 4 1.9 6.2 5.7 6.2 c 2.8 0 4.3 -0.8 5.2 -0.8 c 0.6 0 0.9 0.4 0.9 1.3 c 0 0 0.4 5.1 0.5 6.7 c -1 0.4 -3.6 1 -7.3 1 C 323.3 358.2 319.5 351.8 319.5 342.2 M 269.1 357.3 v -31.5 c 0 -4.7 -0.3 -10.4 -0.5 -13.9 h 8.2 c 0.8 0 1.2 0.3 1.2 1.2 c 0 1.1 0.1 5.7 0.1 5.7 h 0.4 c 2.7 -4.7 6.6 -7.8 13.9 -7.8 c 10 0 15.4 6.8 15.4 14.4 v 31.9 h -10.4 v -29 c 0 -7.3 -3.5 -9.4 -7.3 -9.4 c -5.4 0 -10.7 5.2 -10.7 16 v 22.3 H 269.1 z M 232.5 343.3 c 0 4 2.6 7.4 7.3 7.4 c 6.3 0 9.9 -5.9 9.9 -13.1 v -3.3 h -2.3 C 237.4 334.2 232.5 337.4 232.5 343.3 M 240.9 311 c 12.8 0 19.1 5.7 19.1 16.5 v 18.1 c 0 4 0.4 8.6 0.8 11.7 h -8.6 c -1.5 0 -1.6 -0.9 -1.7 -2 l -0.3 -3.8 h -0.4 c -1.4 2.1 -5.2 6.7 -13.5 6.7 c -8.6 0 -14.3 -6.3 -14.3 -14.7 c 0 -12 13.2 -15.9 25 -15.9 h 2.6 v -1.5 c 0 -5.5 -4.1 -7.4 -9.7 -7.4 c -5.6 0 -10.1 1.9 -11.4 2.6 c -0.4 0.2 -1.1 0.6 -1.5 0.6 c -0.8 0 -0.7 -0.7 -0.8 -0.9 c -0.1 -1.6 -0.3 -5.6 -0.3 -7 C 227.6 313.3 233.9 311 240.9 311 M 174.8 311.9 h 11.4 l 11.4 33.3 h 0.4 l 11 -33.3 h 11 l -17.2 45.4 h -10.9 L 174.8 311.9 z M 139.1 336.2 c 0 7.3 1.5 14.1 9.6 14.1 c 5.4 0 10.6 -4.7 10.6 -15.4 v -14.9 c -0.9 -0.3 -3 -0.9 -7.1 -0.9 C 143.7 319 139.1 324.8 139.1 336.2 M 159.4 291.4 h 10.4 v 52 c 0 4.7 0.2 10.3 0.5 13.9 h -8.3 c -0.8 0 -1.2 -0.3 -1.2 -1.2 c -0.1 -1.1 -0.1 -5.7 -0.1 -5.7 h -0.4 c -1.5 2.8 -5.1 7.8 -13.9 7.8 c -15.7 0 -18 -13.3 -18 -21.5 c 0 -15.4 9.2 -25.7 24 -25.7 c 4.1 0 6.3 0.6 7 0.9 V 291.4 z M 87.7 335 l 9.9 -28.3 h 0.4 l 9.9 28.3 H 87.7 z M 39.4 335 l 9.9 -28.3 h 0.4 l 9.9 28.3 H 39.4 z M 104.6 295.4 H 92.1 L 74 342.9 l -17.7 -47.6 H 43.8 l -23.5 62 h 11.2 l 5 -14 h 26.2 l 4.9 14 h 12.3 l 5 -14 h 26.2 l 4.9 14 h 11.9 L 104.6 295.4 z"
    stroke-linecap="round"/>
</g>
    <g transform="matrix(1 0 0 1 -3.15 -44.45)" id="layer">
<path
    style="stroke: none; stroke-width: 1; stroke-dasharray: none; stroke-linecap: butt; stroke-dashoffset: 0; stroke-linejoin: miter; stroke-miterlimit: 4; fill: rgb(81,96,112); fill-rule: nonzero; opacity: 1;"
    transform=" translate(-317.15, -276.5)"
    d="M 345.6 269.2 L 345.6 269.2 l -3.9 10.9 h 7.8 L 345.6 269.2 z M 352.5 288.7 l -1.9 -5.4 h -10.1 l -1.9 5.4 h -4.3 l 9 -23.8 h 4.8 l 8.9 23.8 H 352.5 z M 389.1 263.9 h 4.2 v 4 h -4.2 V 263.9 z M 389.1 270.5 h 4.1 v 18.1 h -4.1 V 270.5 z M 358.7 263.9 h 4.2 v 4 h -4.2 V 263.9 z M 358.8 270.5 h 4.1 v 18.1 h -4.1 V 270.5 z M 384.6 263.9 h -4.1 v 24.8 h 4.1 V 263.9 z M 371.5 279.8 v 8.9 h -4.1 v -13.5 c 0 -1.3 -0.1 -3.8 -0.2 -4.7 h 3.3 c 0.4 0 0.5 0.2 0.5 0.5 c 0 0.5 0 2.2 0 2.2 h 0.1 c 0.3 -0.8 1.5 -3.1 4.9 -3.1 c 1.1 0 2 0.4 2.1 0.4 c 0 0.8 -0.1 2.5 -0.1 2.9 c 0 0.3 -0.2 0.4 -0.3 0.4 c -0.1 0 -0.2 0 -0.3 -0.1 c -0.3 -0.1 -0.9 -0.3 -1.7 -0.3 C 373.6 273.6 371.5 275.2 371.5 279.8 M 409 288.7 V 277 c 0 -2.2 -1 -3.6 -2.9 -3.6 c -2.5 0 -4.2 2.7 -4.2 6.3 v 9 h -4.1 v -13.3 c 0 -1.5 -0.1 -3.6 -0.2 -4.8 h 3.3 c 0.4 0 0.5 0.2 0.5 0.5 c 0 0.4 0 2.3 0 2.3 h 0.1 c 0.5 -0.9 1.8 -3.1 5.6 -3.1 c 3.9 0 6.1 2.7 6.1 5.7 v 12.8 H 409 z M 420.4 277.7 h 7.6 c 0.2 -2.9 -1.4 -4.6 -3.7 -4.6 C 421.9 273.2 420.5 274.9 420.4 277.7 M 430.6 284.7 c 0.2 0 0.3 0.2 0.3 0.4 c 0.1 0.8 0.1 2.5 0.1 3 c -0.4 0.1 -2.7 0.9 -5.6 0.9 c -5.8 0 -9.2 -3 -9.2 -9.4 c 0 -5.5 3 -9.4 8.3 -9.4 c 5.2 0 7.7 3.5 7.7 7.8 c 0 0.5 -0.1 1.4 -0.1 2.5 h -11.6 c 0 3.1 2 5.3 5.6 5.3 c 2 0 3.6 -0.7 4.2 -1 C 430.3 284.7 430.4 284.7 430.6 284.7 M 440.2 289 c 5.4 0 7.9 -2.2 7.9 -5.4 c 0 -3.2 -2.3 -4.6 -4.7 -5.4 c -0.7 -0.2 -1.4 -0.5 -2 -0.7 c -1.7 -0.5 -2.5 -1.3 -2.5 -2.3 c 0 -1.1 1 -1.9 3.2 -1.9 c 1.9 0 3.5 0.8 4.1 1.1 c 0.1 0 0.2 0.1 0.4 0.1 c 0.1 0 0.3 -0.1 0.3 -0.4 c 0 -0.6 0.1 -1.7 0.1 -2.8 c -0.5 -0.2 -2.3 -1.2 -5.2 -1.2 c -4.4 0 -7.2 2.3 -7.2 5.3 c 0 2.9 2 4.3 4.2 5 c 0.5 0.2 1.5 0.5 2 0.7 c 2.3 0.8 3 1.5 3 2.5 c 0 1.4 -1.5 2.1 -4.1 2.1 c -2.1 0 -3.6 -0.8 -4.2 -1.1 c -0.1 0 -0.2 -0.1 -0.3 -0.1 c -0.3 0 -0.3 0.4 -0.3 0.5 c 0 0.2 -0.1 2.1 -0.1 2.7 C 435.3 288.1 437.4 289 440.2 289 M 197.5 269.2 L 197.5 269.2 l -3.9 10.9 h 7.8 L 197.5 269.2 z M 204.4 288.7 l -1.9 -5.4 h -10.1 l -1.9 5.4 h -4.3 l 9 -23.8 h 4.8 l 8.9 23.8 H 204.4 z M 271.7 263.9 h 4.2 v 4 h -4.2 V 263.9 z M 271.7 270.5 h 4.1 v 18.1 h -4.1 V 270.5 z M 262.9 279.8 v 8.9 h -4.1 v -13.5 c 0 -1.3 -0.1 -3.8 -0.2 -4.7 h 3.3 c 0.4 0 0.5 0.2 0.5 0.5 c 0 0.5 0 2.2 0 2.2 h 0.1 c 0.3 -0.8 1.5 -3.1 4.9 -3.1 c 1.1 0 2 0.4 2.1 0.4 c 0 0.8 -0.1 2.5 -0.1 3 c 0 0.3 -0.2 0.4 -0.3 0.4 c -0.1 0 -0.2 0 -0.3 -0.1 c -0.3 -0.1 -0.9 -0.3 -1.7 -0.3 C 264.9 273.6 262.9 275.2 262.9 279.8 M 232.5 288.7 v -11.6 c 0 -2.1 -0.9 -3.7 -3 -3.7 c -2.4 0 -3.8 2.6 -3.8 6.3 v 9 h -4.1 V 277 c 0 -1.9 -0.8 -3.7 -3 -3.7 c -2.4 0 -3.8 2.6 -3.8 6.4 v 8.9 h -4.1 v -13.2 c 0 -1.7 -0.2 -4.1 -0.2 -4.9 h 3.3 c 0.4 0 0.5 0.1 0.5 0.5 c 0 0.5 0 2.2 0 2.2 h 0.1 c 0.3 -0.5 1.6 -3.1 5.4 -3.1 c 3.5 0 4.9 2.5 5.2 3.3 c 0.3 -0.7 1.9 -3.3 5.4 -3.3 c 3.7 0 6.2 2 6.2 6 v 12.6 H 232.5 z M 243.8 277.7 h 7.6 c 0.2 -2.9 -1.4 -4.6 -3.7 -4.6 C 245.4 273.2 244 274.9 243.8 277.7 M 254 284.7 c 0.2 0 0.3 0.2 0.3 0.4 c 0.1 0.8 0.1 2.5 0.1 3 c -0.4 0.1 -2.7 0.9 -5.6 0.9 c -5.8 0 -9.3 -3 -9.3 -9.4 c 0 -5.5 3 -9.4 8.3 -9.4 c 5.2 0 7.7 3.5 7.7 7.8 c 0 0.5 -0.1 1.4 -0.1 2.5 h -11.6 c 0 3.1 2 5.3 5.6 5.3 c 2 0 3.6 -0.7 4.2 -1 C 253.8 284.7 253.9 284.7 254 284.7 M 305.7 279.5 H 305 c -5.2 0 -6.2 1.8 -6.2 3.6 c 0 1.5 1 2.9 2.9 2.9 c 2.6 0 4 -2.5 4 -5.1 V 279.5 z M 306.7 288.7 c -0.3 0 -0.6 -0.1 -0.6 -0.6 c 0 -0.6 -0.1 -1.7 -0.1 -1.7 h -0.1 c -0.2 0.3 -1.7 2.7 -5.5 2.7 c -3.6 0 -5.7 -2.8 -5.7 -5.8 c 0 -4.2 4.1 -6.4 10.2 -6.4 h 0.8 v -0.7 c 0 -1.9 -1.4 -2.9 -3.9 -2.9 c -2.3 0 -4.2 0.8 -4.9 1.2 c 0 0 -0.2 0.1 -0.3 0.1 c -0.2 0 -0.3 -0.1 -0.3 -0.3 c 0 -0.7 -0.1 -2 -0.1 -2.8 c 0.7 -0.3 3.2 -1.2 5.9 -1.2 c 5.4 0 7.7 2.5 7.7 6.5 v 7.1 c 0 2.6 0.2 4.3 0.3 4.9 H 306.7 z M 292.4 284.7 c 0.1 0 0.3 0.1 0.3 0.4 c 0.1 0.9 0.1 2.3 0.1 2.7 c -0.8 0.4 -2.6 1.2 -4.8 1.2 c -5.5 0 -8.9 -3.2 -8.9 -9.4 c 0 -5.8 3 -9.4 8.9 -9.4 c 1.9 0 3.7 0.7 4.8 1.2 c 0 0.6 -0.1 2.1 -0.1 2.7 c 0 0.3 -0.2 0.4 -0.3 0.4 c -0.2 0 -0.2 0 -0.3 -0.1 c -1.3 -0.6 -2.6 -1 -3.7 -1 c -3.5 0 -4.9 2.3 -4.9 6.2 c 0 3.5 1.2 6.2 4.9 6.2 c 1.4 0 2.8 -0.5 3.6 -0.9 C 292.2 284.7 292.3 284.7 292.4 284.7 M 324.6 288.7 V 277 c 0 -2.2 -1 -3.6 -2.9 -3.6 c -2.5 0 -4.2 2.7 -4.2 6.3 v 9 h -4.1 v -13.3 c 0 -1.5 -0.1 -3.6 -0.2 -4.8 h 3.3 c 0.4 0 0.5 0.2 0.5 0.5 c 0 0.4 0 2.3 0 2.3 h 0.1 c 0.5 -0.9 1.8 -3.1 5.6 -3.1 c 3.9 0 6.1 2.7 6.1 5.7 v 12.8 H 324.6 z"
    stroke-linecap="round"/>
</g>
    <g transform="matrix(1 0 0 1 251.4 32.35)" id="layer" clip-path="url(#CLIPPATH_24)">
<linearGradient id="SVGID_SVGID_3__19" gradientUnits="userSpaceOnUse"
                gradientTransform="matrix(0 12.72 12.72 0 -11676.35 8406.3)" x1="-662.9072" y1="917.9601" x2="-658.4449"
                y2="917.9601">
<stop offset="0%" style="stop-color:rgb(227,6,19);stop-opacity: 1"/>
    <stop offset="13.120000000000001%" style="stop-color:rgb(222,7,19);stop-opacity: 1"/>
    <stop offset="28.910000000000004%" style="stop-color:rgb(207,9,18);stop-opacity: 1"/>
    <stop offset="46.06%" style="stop-color:rgb(183,12,16);stop-opacity: 1"/>
    <stop offset="64.07000000000001%" style="stop-color:rgb(149,17,14);stop-opacity: 1"/>
    <stop offset="75.46000000000001%" style="stop-color:rgb(124,21,12);stop-opacity: 1"/>
    <stop offset="100%" style="stop-color:rgb(124,21,12);stop-opacity: 1"/>
</linearGradient>
        <clipPath id="CLIPPATH_24">
	<path transform="matrix(1 0 0 1 0.82 0) translate(-572.52, -353.3)" id="SVGID_2_"
          d="M 539.4 346.5 l 12.4 20.5 c 6.6 10.9 17.2 10.7 20 10.7 h 34.1 l -40.2 -48.8 C 547.2 329.6 537.4 341.5 539.4 346.5"
          stroke-linecap="round"/>
</clipPath>
        <rect
            style="stroke: none; stroke-width: 1; stroke-dasharray: none; stroke-linecap: butt; stroke-dashoffset: 0; stroke-linejoin: miter; stroke-miterlimit: 4; fill: url(#SVGID_SVGID_3__19); fill-rule: nonzero; opacity: 1;"
            x="-34.3" y="-24.5" rx="0" ry="0" width="68.6" height="49"/>
</g>
    <g transform="matrix(1 0 0 1 231.3 12.85)" id="layer" clip-path="url(#CLIPPATH_25)">
<linearGradient id="SVGID_SVGID_6__20" gradientUnits="userSpaceOnUse"
                gradientTransform="matrix(6.15 0 0 -6.15 4225.04 5925.44)" x1="-688.9567" y1="963.2005" x2="-684.4945"
                y2="963.2005">
<stop offset="0%" style="stop-color:rgb(111,37,26);stop-opacity: 1"/>
    <stop offset="28.9%" style="stop-color:rgb(149,39,28);stop-opacity: 1"/>
    <stop offset="58.209999999999994%" style="stop-color:rgb(181,41,29);stop-opacity: 1"/>
    <stop offset="82.97%" style="stop-color:rgb(200,43,30);stop-opacity: 1"/>
    <stop offset="100%" style="stop-color:rgb(207,43,30);stop-opacity: 1"/>
</linearGradient>
        <clipPath id="CLIPPATH_25">
	<path transform="matrix(1 0 0 1 0.4 -0.1) translate(-552, -333.7)" id="SVGID_5_"
          d="M 538.3 340.9 c 0 3 1.1 5.4 1.1 5.5 c -2 -5 7.8 -16.9 26.3 -17.7 l -6.3 -7.7 C 548.2 323.4 538.3 329.8 538.3 340.9"
          stroke-linecap="round"/>
</clipPath>
        <rect
            style="stroke: none; stroke-width: 1; stroke-dasharray: none; stroke-linecap: butt; stroke-dashoffset: 0; stroke-linejoin: miter; stroke-miterlimit: 4; fill: url(#SVGID_SVGID_6__20); fill-rule: nonzero; opacity: 1;"
            x="-14.2" y="-12.7" rx="0" ry="0" width="28.4" height="25.4"/>
</g>
    <g transform="matrix(1 0 0 1 230.65 7.4)" id="layer" clip-path="url(#CLIPPATH_26)">
<linearGradient id="SVGID_SVGID_9__21" gradientUnits="userSpaceOnUse"
                gradientTransform="matrix(6.17 -3.71 -3.71 -6.17 7703.65 3539.6)" x1="-665.6342" y1="972.7991"
                x2="-661.1719" y2="972.7991">
<stop offset="0%" style="stop-color:rgb(245,247,250);stop-opacity: 1"/>
    <stop offset="10%" style="stop-color:rgb(245,247,250);stop-opacity: 1"/>
    <stop offset="36.27%" style="stop-color:rgb(226,231,234);stop-opacity: 1"/>
    <stop offset="89.53999999999999%" style="stop-color:rgb(176,188,194);stop-opacity: 1"/>
    <stop offset="100%" style="stop-color:rgb(165,179,186);stop-opacity: 1"/>
</linearGradient>
        <clipPath id="CLIPPATH_26">
	<path transform="matrix(1 0 0 1 0 0.1) translate(-550.95, -328.45)" id="SVGID_8_"
          d="M 525.3 319.7 c 0 2.4 0.8 4.6 2.8 8.3 l 11.3 18.5 c 0 -0.1 -1.1 -2.5 -1.1 -5.5 c 0 -11.1 9.9 -17.5 21.1 -19.8 c 3.3 -0.7 6.6 -1 9.9 -1 c 2.8 0 5.3 0.1 7.3 0.9 c -1.2 -4.3 -4.3 -10.7 -21.7 -10.7 C 537.9 310.2 525.3 313 525.3 319.7"
          stroke-linecap="round"/>
</clipPath>
        <polygon
            style="stroke: none; stroke-width: 1; stroke-dasharray: none; stroke-linecap: butt; stroke-dashoffset: 0; stroke-linejoin: miter; stroke-miterlimit: 4; fill: url(#SVGID_SVGID_9__21); fill-rule: nonzero; opacity: 1;"
            points="-41.65,-8.55 12.05,-40.75 41.65,8.55 -12.05,40.75 "/>
</g>
    <g transform="matrix(1 0 0 1 198.1 -35.9)" id="layer" clip-path="url(#CLIPPATH_27)">
<linearGradient id="SVGID_SVGID_12__22" gradientUnits="userSpaceOnUse"
                gradientTransform="matrix(0 -11.65 -11.65 0 11152.78 -7341.57)" x1="-632.9286" y1="957.6834"
                x2="-628.4664" y2="957.6834">
<stop offset="0%" style="stop-color:rgb(33,43,108);stop-opacity: 1"/>
    <stop offset="19.509999999999998%" style="stop-color:rgb(23,79,143);stop-opacity: 1"/>
    <stop offset="43.46%" style="stop-color:rgb(13,117,180);stop-opacity: 1"/>
    <stop offset="65.64%" style="stop-color:rgb(6,145,207);stop-opacity: 1"/>
    <stop offset="85.18%" style="stop-color:rgb(2,161,223);stop-opacity: 1"/>
    <stop offset="100%" style="stop-color:rgb(0,167,229);stop-opacity: 1"/>
</linearGradient>
        <clipPath id="CLIPPATH_27">
	<path transform="matrix(1 0 0 1 0 0) translate(-518.4, -285.05)" id="SVGID_11_"
          d="M 487.8 261.8 l 22.5 36.9 c 4.7 7.6 6.4 9.5 17.5 9.6 H 549 l -29.2 -36.9 c -6.5 -8 -10.2 -9.4 -16.1 -9.6 H 487.8 z"
          stroke-linecap="round"/>
</clipPath>
        <rect
            style="stroke: none; stroke-width: 1; stroke-dasharray: none; stroke-linecap: butt; stroke-dashoffset: 0; stroke-linejoin: miter; stroke-miterlimit: 4; fill: url(#SVGID_SVGID_12__22); fill-rule: nonzero; opacity: 1;"
            x="-30.6" y="-23.25" rx="0" ry="0" width="61.2" height="46.5"/>
</g>
</g>
</g>
</svg>
