<svg xmlns="http://www.w3.org/2000/svg" width="222" height="30" viewBox="0 0 222 30">
    <g fill="none" fill-rule="evenodd">
        <path fill="#CA343C" d="M206.334 0c-8.616 0-15.595 6.507-15.595 14.538 0 7.072 5.407 12.95 12.585 14.269 1.21.227 1.98.403 2.616 1.17.769-1.375.944-4.283.944-5.924V21.29c0-.96.51-1.147 1.453-.63 1.735.95 3.544 1.933 3.544 1.933.06-.538.54-.992 1.58-.764.968.226 2.05.46 2.05.46s-.582-1.286-.843-1.855c-.48-1.04-.023-1.538.44-1.682 0 0-.661-.438-1.097-.736-.931-.639-.715-1.26.195-1.64 1.24-.515 2.783-1.198 2.783-1.198-.493-.278-1.067-1.07-.422-1.982.63-.91 1.584-2.169 1.584-2.169s-1.68.01-2.801 0c-1.013-.02-1.265-.806-1.255-1.374 0 0-1.653 1.147-2.835 1.928-.993.654-1.902.014-1.75-1.112.237-1.765.45-3.717.45-3.717-.616.402-1.668.393-2.135-.597l-1.491-3.16s-.789 1.701-1.48 3.16c-.46.99-1.52.999-2.13.597 0 0 .207 1.952.446 3.717.154 1.126-.757 1.766-1.747 1.112-1.183-.78-2.84-1.928-2.84-1.928.01.568-.234 1.354-1.25 1.374-1.123.01-2.802 0-2.802 0s.958 1.26 1.595 2.169c.635.912.059 1.704-.422 1.982 0 0 1.537.683 2.774 1.198.91.38 1.133 1.001.187 1.64-.43.298-1.103.736-1.103.736.475.144.928.642.448 1.682-.254.569-.842 1.856-.842 1.856s1.083-.235 2.054-.461c1.039-.228 1.524.226 1.583.764l3.542-1.932c.938-.518 1.446-.332 1.451.629v2.376c0 1.372-.251 2.874-.785 3.676-6.654-.714-12.156-5.925-12.169-12.804-.01-7.08 6.04-12.825 13.49-12.825s13.488 5.745 13.488 12.825c0 6.618-5.252 12.027-11.985 12.742v1.736c7.913-.703 14.1-6.92 14.1-14.478C221.938 6.507 214.95 0 206.335 0"/>
        <path fill="#000" d="M80.054 3.362c7.104 0 12.282 4.488 12.282 11.533 0 6.917-5.091 11.72-12.282 11.72-7.165 0-12.25-4.813-12.25-11.72 0-6.994 5.13-11.533 12.25-11.533zm41.417.593v17.423h8.726v4.643h-14.2V3.955h5.474zm-106.726 0l9.362 22.066h-6.05l-1.819-4.496H7.642l-1.719 4.496H0L9.458 3.955h5.287zm24.311 17.57l5.47 4.496H31.562c-5.381-.002-6.17-4.496-6.17-4.496h13.663zm108.617-17.57l9.363 22.066h-6.05l-1.819-4.496h-8.596l-1.72 4.496h-5.922l9.458-22.066h5.286zm-43.65 0c5.035 0 8.816 1.843 8.816 6.795 0 4.85-3.836 6.876-8.674 6.948l-.27.002h-2.705v8.321h-5.442V3.955h8.275zm61.998 0l9.168 14.4h.097l-.13-14.4h5.36v22.066h-6.263l-9.201-14.43h-.097l.13 14.43h-5.36V3.955h6.296zm-109.532 0c4.832 0 8.625 1.937 8.625 6.67 0 2.93-1.675 4.964-4.419 5.871l-.26.082 5.888 9.443h-6.365l-4.908-8.784h-1.882v8.784h-5.316V3.955h8.637zM80.054 8.16c-3.622 0-6.428 2.677-6.428 6.766 0 3.947 2.597 6.89 6.428 6.89 3.67 0 6.459-2.77 6.459-6.89 0-3.805-2.579-6.766-6.46-6.766zM38.12 12.74l5.47 4.497H31.563c-5.381-.003-6.17-4.497-6.17-4.497H38.12zM12.006 9.846l-2.797 7.39h5.532l-2.735-7.39zm132.928 0l-2.796 7.39h5.531l-2.735-7.39zm-40.823-1.683h-2.92v5.236h2.6c2.135 0 3.967-.632 3.967-2.73 0-1.94-1.664-2.506-3.647-2.506zm-48.022 0h-2.921v5.236h2.6c2.135 0 3.967-.632 3.967-2.729 0-1.941-1.664-2.507-3.646-2.507zM39.056 3.955l5.47 4.497H31.562c-5.381-.003-6.17-4.497-6.17-4.497h13.663z"/>
    </g>
</svg>
