<?xml version="1.0" encoding="utf-8"?>
<!-- Generator: Adobe Illustrator 18.0.0, SVG Export Plug-In . SVG Version: 6.00 Build 0)  -->
<!DOCTYPE svg PUBLIC "-//W3C//DTD SVG 1.1//EN" "http://www.w3.org/Graphics/SVG/1.1/DTD/svg11.dtd">
<svg version="1.1" id="Capa_1" xmlns="http://www.w3.org/2000/svg" xmlns:xlink="http://www.w3.org/1999/xlink" x="0px" y="0px"
	 viewBox="0 0 383 47" enable-background="new 0 0 383 47" xml:space="preserve">
<g>
	<path fill="#EC8213" d="M331.5,0c-2.7,0-5.1,1.8-5.9,4.2h-14.3c-0.9-2.5-3.2-4.2-5.9-4.2c-3.5,0-6.3,2.8-6.3,6.3
		c0,3.5,2.8,6.3,6.3,6.3c2.8,0,5.1-1.8,5.9-4.3h14.2c0.8,2.5,3.2,4.3,5.9,4.3c3.5,0,6.3-2.8,6.3-6.3C337.8,2.8,334.9,0,331.5,0z"/>
	<path fill="#495463" d="M79,40.4c-3,0-5.9-1.4-5.9-4.6V17.6h-8.4v18.1C64.6,42.5,70.4,47,79,47c8.9,0,14.4-4.3,14.4-11.3V17.6H85
		v18.1C85,38.6,82.7,40.4,79,40.4z"/>
	<path fill="#495463" d="M127.3,30.3l-0.1-0.1l0.1-0.1c2.4-1.5,3.8-3.5,3.8-5.6c0-1.4-0.6-2.9-1.7-4c-1.9-2-5-3-9.2-3h-18.1v28.6
		h18.8c4.5,0,7-0.8,9.1-2.9c1.8-1.8,2.7-3.8,2.7-6.1C132.5,34.2,130.9,32,127.3,30.3z M119,23.8c1.4,0,2.3,0.3,2.9,0.9
		c0.4,0.4,0.5,0.8,0.5,1.4c0,0.6-0.2,1.2-0.7,1.7c-0.6,0.5-1.5,0.8-2.7,0.8h-8.6v-4.8 M123.1,39c-0.7,0.7-1.6,0.9-3,0.9h-9.7v-5.7
		h9.7c1.8,0,2.6,0.6,3,1c0.5,0.5,0.8,1.2,0.8,1.9C123.9,38.2,123.3,38.8,123.1,39z"/>
	<path fill="#495463" d="M178.2,21.1c-2.2-2.3-5.4-3.5-9.8-3.5h-17v28.6h8.4v-9.9h8.6c4.3,0,7.4-1,9.6-3.2c1.7-1.6,2.6-3.8,2.6-6.1
		C180.6,24.8,179.8,22.7,178.2,21.1z M171.4,28.9c-0.9,0.9-2.1,0.9-2.5,0.9h-9.1v-5.7h9.1c0.8,0,1.9,0.2,2.6,0.9
		c0.5,0.5,0.8,1.3,0.8,1.9C172.3,27.6,172,28.4,171.4,28.9z"/>
	<polygon fill="#495463" points="274.2,32 274.2,32 264.9,17.6 257.3,17.6 257.3,46.2 265.4,46.2 265.4,32.7 265.8,32.7 265.8,32.7 
		272.5,42.8 275.5,42.8 282.2,32.7 282.5,32.7 282.5,46.2 291,46.2 291,17.6 283.6,17.6 274.3,32 	"/>
	<rect x="299.9" y="17.6" fill="#495463" width="8.4" height="28.6"/>
	<path fill="#495463" d="M47.4,39.4V17.5h-8v23.6c0,0-0.3,4.6,3.7,4.6h17.8v-6.3H47.4z"/>
	<path fill="#495463" d="M325,39.4v-4.9h15.3v-6H325v-4.5h17.9v-6.3h-25.9v23.6c0,0-0.1,4.6,3.8,4.6h23.1v-6.3H325z"/>
	<path fill="#495463" d="M231,39.4v-4.9h15.3v-6H231v-4.5h17.9v-6.3H223v23.6c0,0-0.1,4.6,3.8,4.6h23.1v-6.3H231z"/>
	<path fill="#495463" d="M31.7,39.1c-2.6-2.5-6.7,0-6.7,0c-1.9,0.9-3.9,1.4-5.6,1.4c-5.6,0-9.7-3.6-9.7-8.7c0-5,4-8.6,9.5-8.6
		c1.9,0,4.1,0.6,6.2,1.5c0,0,3.2,1.7,5.7-1.1l2.1-2.1c-4.2-2.9-9.8-4.7-15-4.7c-9.5,0-16.7,6.5-16.7,15c0,8.7,7.1,15,16.9,15
		c7.6,0,13.1-3.4,15.7-5.6L31.7,39.1z"/>
	<path fill="#495463" d="M210.1,34.6c3.4-1.7,5.5-4.5,5.5-7.9c0-2.4-1-4.5-2.6-6.1c-2-2-4.9-3.3-9.7-3.3h-17.1V46h8.6v-9.9h6.9
		l4.2,7.2c0,0,1.6,2.7,4.9,2.7h6.4L210.1,34.6z M206.2,28.6c-0.5,0.5-1.4,0.8-2.4,0.8h-9.1v-5.6h9.1c0.9,0,1.9,0.2,2.5,0.9
		c0.5,0.5,0.8,1.2,0.8,1.9C207.1,27.4,206.7,28.1,206.2,28.6z"/>
	<path fill="#495463" d="M375,34.9c3.4-1.7,5.5-4.5,5.5-7.9c0-2.4-1-4.5-2.6-6.1c-2-2-4.9-3.3-9.7-3.3h-17.1v28.7h8.6v-9.9h6.9
		l4.2,7.2c0,0,1.6,2.7,4.9,2.7h6.4L375,34.9z M371.2,28.9c-0.5,0.5-1.4,0.8-2.4,0.8h-9.1v-5.6h9.1c0.9,0,1.9,0.2,2.5,0.9
		c0.5,0.5,0.8,1.2,0.8,1.9C372,27.6,371.7,28.4,371.2,28.9z"/>
</g>
</svg>
