<svg xmlns="http://www.w3.org/2000/svg" width="330.082" height="113.728" viewBox="0 0 330.082 113.728">
  <g id="Group_821" data-name="Group 821" transform="translate(-528.464 -1546.445)">
    <g id="Group_824" data-name="Group 824" transform="translate(528.464 1546.445)">
      <g id="Group_106" data-name="Group 106" transform="translate(0 0)">
        <line id="Line_2" data-name="Line 2" x2="330.082" transform="translate(0 68.845)" fill="none" stroke="#040505" stroke-miterlimit="10" stroke-width="0.05"/>
        <path id="Path_45" data-name="Path 45" d="M339.688,373.366V403.3h6.655V385.534L357.8,403.3h6.439l11.35-17.716V403.3h6.684V373.366h-6.729l-14.7,22.951L346.32,373.366Z" transform="translate(-136.586 -343.435)" fill="#b27039"/>
        <g id="Group_105" data-name="Group 105" transform="translate(0)">
          <path id="Path_46" data-name="Path 46" d="M313.748,354.047c14.967-6.109,29.563-8.123,40.111-5.318,9.754,2.6,15.571,9.072,16.821,18.72,0,0,.673,3.208-.6,9.967,0,0,.785-7.1-2.329-12.508-3-5.192-8.182-9.035-15.249-10.981-6.924-1.93-15.415-2.06-24.543-.382a95.1,95.1,0,0,0-28.5,10.47,97.547,97.547,0,0,0-18.806,13.4s14-15.569,33.1-23.369" transform="translate(-145.827 -347.486)" fill="#b27039"/>
          <path id="Path_47" data-name="Path 47" d="M316.967,395.827c-1.05,1.64-2.946,2.55-6.129,2.55-5.569,0-7.226-2.765-7.226-7.348,0-4.511,1.657-7.27,7.226-7.27,2.955,0,4.807.8,5.9,2.214l5.81-2.217c-2.354-3.119-6.473-4.582-11.708-4.582-8.321,0-13.876,3.662-13.876,11.856,0,8.276,5.555,11.885,13.876,11.885,5.377,0,9.564-1.518,11.878-4.823Z" transform="translate(-143.274 -342.526)" fill="#004d9b"/>
          <path id="Path_48" data-name="Path 48" d="M235.249,379.13c-4.99,0-7.405,2.63-7.405,2.63l-.426-2.174h-6.739a12.931,12.931,0,0,1,.711,3.659v19.179h6.659v-13.3c0-3.572,2.209-5.414,7.2-5.414,2.743,0,4.417.91,4.417,5.414v13.3h6.643v-13.3c0-6.8-2.179-10-11.06-10" transform="translate(-155.214 -342.533)" fill="#004d9b"/>
          <path id="Path_49" data-name="Path 49" d="M261.111,379.13c-4.988,0-7.409,2.63-7.409,2.63l-.42-2.174h-6.744a12.847,12.847,0,0,1,.713,3.659v19.179h6.665v-13.3c0-3.572,2.207-5.414,7.195-5.414,2.744,0,4.427.91,4.427,5.414v13.3h6.638v-13.3c0-6.8-2.181-10-11.066-10" transform="translate(-151.166 -342.533)" fill="#004d9b"/>
          <path id="Path_50" data-name="Path 50" d="M285.408,379.16c-11.331,0-13.855,5.3-13.855,11.8,0,6.569,2.476,11.895,14.4,11.895a48.89,48.89,0,0,0,9.362-1.012c.184-1.156.569-3.684.7-4.55a74.406,74.406,0,0,1-10.061,1.013c-5.534,0-7.034-2.117-7.471-5.046h19.165v-2.3c0-8.183-4.387-11.8-12.243-11.8m-6.922,9.488c.381-2.806,1.661-4.962,6.922-4.962,3.852,0,5.242,2.466,5.458,4.962Z" transform="translate(-147.251 -342.528)" fill="#004d9b"/>
          <path id="Path_51" data-name="Path 51" d="M208.335,379.174c-8.32,0-13.87,3.661-13.87,11.855,0,8.276,5.55,11.885,13.87,11.885s13.846-3.61,13.846-11.885c0-8.194-5.536-11.855-13.846-11.855m0,19.2c-5.577,0-7.219-2.765-7.219-7.349,0-4.511,1.642-7.27,7.219-7.27,5.548,0,7.2,2.76,7.2,7.27,0,4.583-1.653,7.349-7.2,7.349" transform="translate(-159.317 -342.526)" fill="#004d9b"/>
          <path id="Path_52" data-name="Path 52" d="M182.194,372.555c7.816-.006,12.67,2.467,15.357,6.352l-6.963,2.705c-1.514-2.143-4.033-3.541-8.289-3.564h-.184c-4.17.02-6.671,1.326-8.192,3.385a11.045,11.045,0,0,0-2.064,6.67v.424h-.006a11.447,11.447,0,0,0,2.07,6.6c1.521,2.033,4.021,3.378,8.192,3.389h.184c4.167-.01,6.685-1.384,8.207-3.449l7.045,2.7c-2.695,3.835-7.616,6.181-15.317,6.181h-.04c-6.844,0-11.441-1.805-14.265-4.931a15.366,15.366,0,0,1-3.856-10.638V388.1a15.27,15.27,0,0,1,3.852-10.55c2.823-3.11,7.424-5,14.268-5" transform="translate(-164.074 -343.562)" fill="#004d9b"/>
          <path id="Path_53" data-name="Path 53" d="M325.661,380.447v-7.076h6.632v7.076h5.892v4.884h-5.892v9.134c0,3.225.48,4.107,3.016,4.107.789,0,1.56-.1,2.343-.156v4.3a20.907,20.907,0,0,1-5.055.73c-5.717,0-6.936-2.975-6.936-8.3v-9.82h-4.928v-4.884Z" transform="translate(-139.553 -343.434)" fill="#004d9b"/>
          <path id="Path_54" data-name="Path 54" d="M413.362,379.186c-11.336,0-13.851,5.328-13.851,11.814,0,6.57,2.468,11.889,14.409,11.889a49.757,49.757,0,0,0,9.363-1c.171-1.163.562-3.7.69-4.567a71.721,71.721,0,0,1-10.054,1.026c-5.55,0-7.027-2.119-7.493-5.051H425.6V391c0-8.182-4.375-11.814-12.239-11.814m-6.935,9.506c.4-2.807,1.673-4.968,6.935-4.968,3.864,0,5.243,2.482,5.457,4.968Z" transform="translate(-127.223 -342.524)" fill="#b27039"/>
          <path id="Path_55" data-name="Path 55" d="M397.515,399.7V373.365h-6.656V399.7a11.937,11.937,0,0,0,.7,3.626h6.666a12.454,12.454,0,0,1-.709-3.626" transform="translate(-128.577 -343.435)" fill="#b27039"/>
          <path id="Path_56" data-name="Path 56" d="M444.388,380.362v5.17a17.522,17.522,0,0,0-8.325-2.138,8.831,8.831,0,0,0-3.594.585,1.845,1.845,0,0,0-1.192,1.714q0,1.614,5.169,2.632l.26.053,2.041.386a11.433,11.433,0,0,1,5.673,2.479,6.043,6.043,0,0,1,1.8,4.614,5.808,5.808,0,0,1-2.735,5.272q-2.727,1.752-8.262,1.744a37.778,37.778,0,0,1-5.017-.339,40.655,40.655,0,0,1-5.174-1.072v-5.206a22.933,22.933,0,0,0,4.765,1.719,19.349,19.349,0,0,0,4.71.611,9.283,9.283,0,0,0,3.771-.62,1.967,1.967,0,0,0,1.27-1.782,2.022,2.022,0,0,0-.9-1.748,15.322,15.322,0,0,0-4.323-1.279l-1.974-.382a12.2,12.2,0,0,1-5.905-2.385,6.008,6.008,0,0,1,.962-9.445c1.893-1.229,4.532-1.85,7.946-1.85a34.885,34.885,0,0,1,4.615.31,32.18,32.18,0,0,1,4.422.956" transform="translate(-123.299 -342.538)" fill="#b27039"/>
          <path id="Path_57" data-name="Path 57" d="M387.495,399.707V380.492h-6.632v19.216a11.278,11.278,0,0,0,.717,3.626h6.634a12.3,12.3,0,0,1-.719-3.626m-3.326-20.969a5.318,5.318,0,0,0,2.961-.589,2.535,2.535,0,0,0,.81-2.142,2.57,2.57,0,0,0-.774-2.09,5.253,5.253,0,0,0-2.929-.6,5.1,5.1,0,0,0-2.992.627,2.587,2.587,0,0,0-.774,2.161,2.407,2.407,0,0,0,.746,2.057,5.3,5.3,0,0,0,2.953.574" transform="translate(-130.203 -343.442)" fill="#b27039"/>
          <path id="Path_58" data-name="Path 58" d="M333.059,431.011l-2.451-5.472-2.506,5.472Zm-4.765-9.324h4.589c.808,1.733,7.407,15.954,7.407,15.954h-4.2l-1.707-3.73h-7.6l-1.7,3.732h-4.207Z" transform="translate(-139.532 -335.872)" fill="#004d9b"/>
          <path id="Path_59" data-name="Path 59" d="M375.192,424.773a5.439,5.439,0,0,0-3.933,1.394l-.228-1.154h-3.579a6.915,6.915,0,0,1,.375,1.956V437.16h3.545v-7.049c0-1.936,1.155-2.892,3.821-2.892,1.46,0,2.349.456,2.349,2.892v7.049h3.535v-7.049c0-3.624-1.185-5.338-5.884-5.338" transform="translate(-132.241 -335.389)" fill="#004d9b"/>
          <path id="Path_60" data-name="Path 60" d="M385.193,429.872c.206-1.529.907-2.642,3.678-2.642a2.685,2.685,0,0,1,2.945,2.642Zm3.678-5.068c-6,0-7.348,2.811-7.348,6.3s1.317,6.3,7.647,6.3a25.152,25.152,0,0,0,5-.533c.086-.611.3-1.961.364-2.422a38.425,38.425,0,0,1-5.36.524c-2.929,0-3.737-1.1-3.976-2.662h10.217V431.1c0-4.367-2.337-6.3-6.539-6.3" transform="translate(-130.038 -335.384)" fill="#004d9b"/>
          <path id="Path_61" data-name="Path 61" d="M285.569,434.986c-2.971,0-3.848-1.443-3.848-3.869s.877-3.871,3.848-3.871c2.942,0,3.821,1.447,3.821,3.871s-.879,3.869-3.821,3.869m0-10.188c-4.436,0-7.362,1.945-7.362,6.319s2.926,6.3,7.362,6.3c4.392,0,7.357-1.934,7.357-6.3s-2.964-6.319-7.357-6.319" transform="translate(-146.209 -335.385)" fill="#004d9b"/>
          <path id="Path_62" data-name="Path 62" d="M316.8,432.557c0,2.243-2.136,2.411-4.131,2.411-.683,0-1.751-.126-1.751-1.445,0-.876,1.2-1.473,2.648-1.473H316.8Zm3.544-3.889c0-2.43-2.629-3.9-6.474-3.9a18.739,18.739,0,0,0-5.29,1.064c-.081.517-.341,2.1-.382,2.44a29.085,29.085,0,0,1,5.671-1.058c1.914,0,2.931.631,2.931,1.6v1.048s-2.375-.239-3.234-.239c-3.858,0-6.2,1.391-6.2,3.9,0,3.171,3.514,3.874,5.3,3.874,2.42,0,3.69-.649,4.286-1.188l.194.951H320.7a7.861,7.861,0,0,1-.348-2.192Z" transform="translate(-141.645 -335.389)" fill="#004d9b"/>
          <path id="Path_63" data-name="Path 63" d="M270.954,421.271c4.156-.007,6.745,1.313,8.17,3.379l-3.7,1.446c-.807-1.138-2.138-1.875-4.395-1.886h-.116c-2.185.009-3.54.7-4.353,1.789a5.862,5.862,0,0,0-1.076,3.54v.236a6.154,6.154,0,0,0,1.076,3.532c.813,1.075,2.169,1.771,4.351,1.777h.109c2.208-.006,3.551-.725,4.36-1.819l3.748,1.427c-1.43,2.039-4.048,3.281-8.147,3.281h-.025c-3.648,0-6.068-.968-7.589-2.61a8.313,8.313,0,0,1-2.041-5.676v-.147a8.2,8.2,0,0,1,2.041-5.6c1.521-1.661,3.939-2.67,7.592-2.67" transform="translate(-148.852 -335.937)" fill="#004d9b"/>
          <path id="Path_64" data-name="Path 64" d="M359.075,435.7V421.693h-3.544V435.7a5.893,5.893,0,0,0,.37,1.941h3.539a6.538,6.538,0,0,1-.366-1.941" transform="translate(-134.106 -335.871)" fill="#004d9b"/>
          <path id="Path_65" data-name="Path 65" d="M348.9,430.076c.015-1.888,1.389-2.856,3.826-2.856.414,0,2.01.215,2.7.273-.04-.29-.292-1.818-.382-2.435a15.639,15.639,0,0,0-2.313-.284,5.541,5.541,0,0,0-3.885,1.337l-.293-1.1h-3.553a6.929,6.929,0,0,1,.37,1.936V437.16H348.9Z" transform="translate(-135.756 -335.389)" fill="#004d9b"/>
          <path id="Path_66" data-name="Path 66" d="M300.641,434.976c-3,0-3.832-1.687-3.832-3.864.074-2.358.828-3.876,3.832-3.876,2.713,0,3.258,1.7,3.258,3.876s-.545,3.864-3.258,3.864m0-10.188a7.117,7.117,0,0,0-3.907,1.289s-.192-.721-.277-1.057h-3.551a8.132,8.132,0,0,1,.379,2.216v13.786h3.524v-4.8a6.566,6.566,0,0,0,3.832,1.19c5.914,0,6.777-2.825,6.777-6.3,0-3.5-.863-6.324-6.777-6.324" transform="translate(-143.909 -335.387)" fill="#004d9b"/>
          <path id="Path_67" data-name="Path 67" d="M405.977,425.433v2.734a8.226,8.226,0,0,0-2.164-.823,9.508,9.508,0,0,0-2.277-.285,4.538,4.538,0,0,0-1.89.31.9.9,0,0,0-.651.878c0,.583.918,1.048,2.762,1.413l.137.035,1.072.219a6.03,6.03,0,0,1,3.023,1.315,3.175,3.175,0,0,1,.951,2.452,3.066,3.066,0,0,1-1.453,2.785,8.129,8.129,0,0,1-4.374.936,21.539,21.539,0,0,1-2.683-.183,23.413,23.413,0,0,1-2.753-.568v-2.769a13.2,13.2,0,0,0,2.533.922,11.844,11.844,0,0,0,2.5.3,5.481,5.481,0,0,0,2.009-.3,1.042,1.042,0,0,0,.676-.936.988.988,0,0,0-.5-.918,6.981,6.981,0,0,0-2.274-.693l-1.048-.213a6.866,6.866,0,0,1-3.155-1.265,3.006,3.006,0,0,1-.991-2.349,3.054,3.054,0,0,1,1.515-2.7,7.752,7.752,0,0,1,4.243-.967,19.029,19.029,0,0,1,2.416.161,14.927,14.927,0,0,1,2.368.517" transform="translate(-127.861 -335.391)" fill="#004d9b"/>
          <path id="Path_68" data-name="Path 68" d="M363.424,424.554a3.033,3.033,0,0,0,1.6-.3,1.294,1.294,0,0,0,.431-1.148,1.317,1.317,0,0,0-.408-1.107,2.841,2.841,0,0,0-1.586-.309,2.686,2.686,0,0,0-1.574.318,1.439,1.439,0,0,0-.4,1.154,1.341,1.341,0,0,0,.382,1.1,2.817,2.817,0,0,0,1.557.3m1.809,11.148V425.486H361.69V435.7a6.143,6.143,0,0,0,.374,1.941H365.6a6.88,6.88,0,0,1-.365-1.941" transform="translate(-133.175 -335.871)" fill="#004d9b"/>
          <path id="Path_69" data-name="Path 69" d="M340.977,424.554a3.05,3.05,0,0,0,1.59-.3,1.737,1.737,0,0,0,.017-2.255,2.866,2.866,0,0,0-1.584-.309,2.715,2.715,0,0,0-1.579.318,1.377,1.377,0,0,0-.42,1.154,1.282,1.282,0,0,0,.4,1.1,2.853,2.853,0,0,0,1.576.3m1.79,11.148V425.486h-3.542V435.7a5.844,5.844,0,0,0,.38,1.941h3.521a7.081,7.081,0,0,1-.359-1.941" transform="translate(-136.694 -335.871)" fill="#004d9b"/>
          <path id="Path_70" data-name="Path 70" d="M410.66,428.6v1.1a51.4,51.4,0,0,1,11.417-2.911A34.722,34.722,0,0,0,410.66,428.6" transform="translate(-125.478 -335.073)" fill="#004d9b"/>
          <path id="Path_71" data-name="Path 71" d="M431.661,431.639a15.765,15.765,0,0,0-3.113-1.744c.4-.027.815-.117,1.337-.119a9.958,9.958,0,0,1,2.384,2.1Zm-8.458-4.691a16.521,16.521,0,0,0-3.131-.74,12.73,12.73,0,0,1,1.436-.282,12.209,12.209,0,0,1,2.806,1.209Zm-12.544-2.437a27.556,27.556,0,0,1,3.493.472l-2.225.324c-.368.008-.839.029-1.267.055v.516a29.139,29.139,0,0,1,5.057-.516,58.748,58.748,0,0,1,26.477-.187c-2.534-.594-16.891-2.575-31.535,3.211v.85a34.773,34.773,0,0,1,6.668-1.533,23.036,23.036,0,0,1,8.831.484,58.02,58.02,0,0,1,18.433,1.516c-2.889-.467-18.523-2.616-33.932,4.493v.654a35.878,35.878,0,0,1,12.55-3.5c3.909-.192,7.332.355,9.942,1.918a54.81,54.81,0,0,1,13.408,1.36V414.769h-35.9Z" transform="translate(-125.478 -336.954)" fill="#004d9b"/>
          <path id="Path_72" data-name="Path 72" d="M410.66,433.838v2.2a53.283,53.283,0,0,1,18.313-5.049c-5.082-.872-11.645.036-18.313,2.854" transform="translate(-125.478 -334.466)" fill="#004d9b"/>
          <path id="Path_73" data-name="Path 73" d="M438.211,436.271a10.184,10.184,0,0,0-4.348-3.744c.572-.074,1.272-.107,1.817-.147.176.178.356.346.526.545a13.212,13.212,0,0,1,2.913,4.332Zm-27.55,2.434v.944c.429-.235.9-.481,1.285-.7a38.343,38.343,0,0,1,9.654-3.7,26.2,26.2,0,0,1,8.775-.789c5.174.495,8.9,2.772,10.661,6.657a18.092,18.092,0,0,1,1.39,5.622l-.613-1.583a7.462,7.462,0,0,0-.757-2.247c-1.344-2.569-3.921-4.421-7.389-5.514a24.467,24.467,0,0,0-11.609-.192,44.349,44.349,0,0,0-11.4,3.981v6.833h.366a31.538,31.538,0,0,1,7.1-3.872c6.534-2.839,12.868-3.65,17.639-2.432,3.51,1.027,5.76,3.146,6.66,6.3h4.135V432.243c-5.859-.646-21.511-1.76-35.9,6.463" transform="translate(-125.478 -334.289)" fill="#004d9b"/>
          <path id="Path_74" data-name="Path 74" d="M434.672,442.662a24.4,24.4,0,0,0-10.664-.118,35.174,35.174,0,0,0-10.817,3.872h27.243a9.984,9.984,0,0,0-5.762-3.754" transform="translate(-125.081 -332.69)" fill="#004d9b"/>
          <path id="Path_75" data-name="Path 75" d="M447.517,442.314h-.867v1.121h.82c.481,0,.7-.17.7-.553s-.225-.568-.649-.568m.331,1.506.726,1.418h-.5l-.722-1.385h-.7v1.385H446.2v-3.313h1.346a.962.962,0,0,1,.305,1.9m-.57-2.8a2.614,2.614,0,1,0,2.586,2.616,2.525,2.525,0,0,0-2.586-2.616m0,5.615a3,3,0,1,1,3-3,2.892,2.892,0,0,1-3,3" transform="translate(-120.215 -332.906)" fill="#004d9b"/>
        </g>
      </g>
    </g>
  </g>
</svg>
