<?xml version="1.0" encoding="UTF-8"?>
<svg width="743px" height="161px" viewBox="0 0 743 161" version="1.1" xmlns="http://www.w3.org/2000/svg" xmlns:xlink="http://www.w3.org/1999/xlink">
    <!-- Generator: Sketch 54.1 (76490) - https://sketchapp.com -->
    <title>Group</title>
    <desc>Created with Sketch.</desc>
    <g id="Page-1" stroke="none" stroke-width="1" fill="none" fill-rule="evenodd">
        <g id="Esfera_logoPrincipal_rgb_positivo" transform="translate(-236.000000, -341.000000)">
            <g id="Group" transform="translate(236.595000, 341.005000)">
                <path d="M330.213,85.857 C330.796,83.963 331.582,81.979 332.557,80.137 C334.244,76.949 336.444,74.214 339.094,71.879 C341.787,69.512 344.935,67.694 348.456,66.409 C352.028,65.088 355.952,64.435 360.118,64.435 C363.743,64.435 367.318,65.08 370.747,66.339 C374.173,67.579 377.269,69.347 379.945,71.585 C382.562,73.785 384.734,76.385 386.398,79.568 C387.418,81.532 388.178,83.963 388.664,85.857 L330.213,85.857 Z M401.117,58.605 L401.115,58.604 C396.752,53.566 391.12,49.276 384.377,45.852 C377.548,42.39 369.386,40.635 360.118,40.635 C352.239,40.635 344.814,42.063 338.048,44.881 C331.281,47.707 325.307,51.64 320.292,56.572 C315.253,61.54 311.301,67.537 308.472,74.399 C305.671,81.242 304.287,88.692 304.287,96.545 L304.287,101.633 C304.287,110.205 305.629,118.134 308.346,125.2 C311.081,132.359 314.917,138.594 319.779,143.726 C324.661,148.933 330.59,153.018 337.418,155.867 C344.149,158.676 351.644,160.1 359.703,160.1 C374.154,160.1 385.887,156.709 394.58,150.021 C399.473,146.253 403.567,141.766 406.75,136.686 L408.239,134.309 L386.627,123.11 L385.356,125.107 C384.002,127.237 382.235,129.127 380.095,130.734 C377.887,132.418 375.128,133.776 371.894,134.772 C368.64,135.776 364.678,136.285 360.118,136.285 C350.402,136.285 342.804,133.334 337.534,127.822 C332.997,123.066 330.205,116.791 329.226,109.215 L414.134,109.215 L414.134,91.873 C414.134,86.766 412.979,81.169 410.929,75.24 C408.856,69.26 405.479,63.663 401.117,58.605 L401.117,58.605 Z" id="Fill-1" fill="#0A0B09"></path>
                <path d="M246.557,6.011 L246.338,6.144 C242.581,10.021 240.526,15.015 240.526,20.867 L240.526,43.56 L218.43,43.56 L218.43,66.918 L240.526,66.918 L240.526,157.194 L265.778,157.194 L265.778,66.918 L294.186,66.918 L294.186,43.56 L265.778,43.56 L265.778,25.973 C265.778,23.654 265.922,23.358 267.191,23.358 L294.186,23.358 L294.186,-2.84217094e-14 L261.24,-2.84217094e-14 C255.334,-2.84217094e-14 250.394,2.105 246.557,6.011" id="Fill-2" fill="#0A0B09"></path>
                <polyline id="Fill-3" fill="#0A0B09" points="24.62 90.908 89.013 90.908 89.013 66.287 24.62 66.287 24.62 24.621 95.326 24.621 95.326 -2.84217094e-14 -4.26325641e-14 -2.84217094e-14 -4.26325641e-14 157.194 95.326 157.194 95.326 132.574 24.62 132.574 24.62 90.908"></polyline>
                <path d="M197.144,97.755 C190.068,92.387 180.186,89.258 166.981,88.189 C156.18,87.394 148.756,85.79 144.947,83.42 C141.668,81.377 140.199,78.737 140.199,74.858 C140.199,73.069 140.632,71.502 141.488,70.207 C142.447,68.773 143.767,67.544 145.414,66.556 C147.185,65.492 149.292,64.671 151.673,64.117 C154.125,63.555 156.744,63.27 159.457,63.27 C166.205,63.27 171.68,64.918 175.727,68.167 C178.844,70.689 180.864,73.892 181.904,77.959 L182.376,79.805 L205.805,77.66 L205.356,75.249 C204.653,71.473 203.379,67.656 201.571,63.903 C199.449,59.506 196.389,55.566 192.474,52.192 C188.591,48.857 183.77,46.128 178.143,44.082 C172.488,42.027 165.915,40.985 158.604,40.985 C153.297,40.985 148.168,41.678 143.361,43.044 C138.456,44.426 133.962,46.532 129.998,49.309 C125.952,52.185 122.77,55.77 120.403,59.959 C117.959,64.246 116.79,69.258 116.79,74.858 L116.79,76.146 C116.79,86.565 120.512,94.641 127.989,100.148 C135.04,105.367 145.102,108.472 157.969,109.379 C167.868,110.046 174.989,111.537 179.165,113.805 C182.694,115.741 184.258,118.677 184.258,123.327 C184.258,127.611 182.531,130.711 178.831,133.083 C174.707,135.725 169.046,137.065 162.01,137.065 C153.773,137.065 147.158,134.91 142.352,130.662 C138.53,127.277 136.005,122.874 134.849,117.573 L134.428,115.643 L111.055,117.785 L111.302,120.044 C111.785,124.473 112.972,128.9 114.829,133.2 C117.012,138.257 120.276,142.818 124.53,146.754 C128.783,150.708 134.129,153.894 140.414,156.223 C146.661,158.563 154.214,159.75 162.862,159.75 C169.273,159.75 175.3,158.951 180.771,157.377 C186.36,155.781 191.22,153.386 195.22,150.26 C199.23,147.119 202.488,143.232 204.795,138.706 C207.103,134.14 208.329,128.966 208.329,123.327 L208.329,122.049 C208.329,111.518 204.529,103.344 197.144,97.755" id="Fill-4" fill="#0A0B09"></path>
                <path d="M475.896,46.129 C471.834,48.423 468.426,51.622 465.269,55.435 L465.269,43.56 L429.285,43.56 L429.285,66.918 L440.649,66.918 L440.649,157.194 L461.211,157.194 L465.269,157.092 L465.269,99.101 C465.269,93.766 466.025,88.897 467.556,84.628 C469.1,80.318 471.137,76.74 473.803,73.691 C476.367,70.758 479.498,68.43 483.119,66.83 C486.741,65.231 490.799,64.393 495.19,64.393 L502.516,64.393 L502.516,40.403 L496.896,40.403 C489.554,40.403 482.502,42.407 475.896,46.129" id="Fill-5" fill="#0A0B09"></path>
                <path d="M597.413,99.099 L597.413,101.633 C597.413,106.969 596.694,111.838 595.163,116.106 C593.619,120.417 591.6,123.995 588.934,127.044 C586.371,129.978 583.249,132.277 579.628,133.876 C576.006,135.474 571.95,136.285 567.559,136.285 C558.706,136.285 551.366,133.316 545.884,127.459 C540.329,121.544 537.439,113.006 537.439,102.082 L537.439,98.669 C537.439,93.501 538.297,88.705 539.839,84.411 C541.338,80.219 543.493,76.598 546.166,73.653 C548.822,70.758 552.008,68.474 555.599,66.863 C559.167,65.263 563.197,64.451 567.557,64.451 C571.776,64.451 575.753,65.294 579.367,66.956 C583.035,68.644 586.239,70.999 588.885,73.957 C591.566,76.951 593.641,80.609 595.16,84.826 C596.692,89.122 597.413,93.923 597.413,99.099 Z M601.545,43.56 L597.413,43.643 L597.413,54.593 C594.256,50.99 590.965,48.076 586.973,45.905 C580.534,42.408 573.298,40.635 565.41,40.635 C558.285,40.635 551.424,41.95 544.986,44.543 C538.528,47.166 532.813,51.022 527.985,56.006 C523.165,60.968 519.178,67.115 516.434,74.277 C513.717,81.403 512.187,89.609 512.187,98.669 L512.187,102.082 C512.187,111.283 513.721,119.564 516.44,126.698 C519.185,133.857 523.098,140.002 527.916,144.962 C532.777,149.962 538.553,153.782 545.004,156.315 C551.395,158.827 558.419,160.1 565.84,160.1 C573.183,160.1 580.207,158.212 586.814,154.489 C590.876,152.196 594.256,149.114 597.413,145.3 L597.413,157.194 L622.034,157.194 L622.034,43.56 L601.545,43.56 L601.545,43.56 Z" id="Fill-6" fill="#0A0B09"></path>
                <polygon id="Fill-7" fill="#D6232A" points="646.654 157.194 741.981 157.194 741.981 132.574 646.654 132.574"></polygon>
            </g>
        </g>
    </g>
</svg>