<svg id="Layer_1" data-name="Layer 1" xmlns="http://www.w3.org/2000/svg" viewBox="0 0 192 120.51"><defs><style>.cls-1{fill:#bd8b13;}</style></defs><g id="EY_Guest_No_Box" data-name="EY Guest No Box"><path class="cls-1" d="M73.27,94.12a5,5,0,0,1-3.77-1.46,5.88,5.88,0,0,1-1.4-4.23,5.63,5.63,0,0,1,1.51-4.2,5.17,5.17,0,0,1,3.8-1.5,6.33,6.33,0,0,1,3.41.88v2.31a4.22,4.22,0,0,0-3.17-1.38,3.23,3.23,0,0,0-2.52,1,4,4,0,0,0-.89,2.81,4.88,4.88,0,0,0,.83,3,2.71,2.71,0,0,0,2.27,1.12,3.61,3.61,0,0,0,1.36-.2v-3h2.12v4A6.4,6.4,0,0,1,73.27,94.12Z"/><path class="cls-1" d="M85.55,94.12a4.42,4.42,0,0,1-3.34-1.2,5.44,5.44,0,0,1-1.14-3.84V83h2.11v6.12a3.91,3.91,0,0,0,.61,2.44,2.67,2.67,0,0,0,3.77,0,3.91,3.91,0,0,0,.61-2.44V83h2.06v6.09A5,5,0,0,1,89,92.86,4.62,4.62,0,0,1,85.55,94.12Z"/><path class="cls-1" d="M94.76,93.86V83h7.1l-.56,1.81H96.87v2.6h3.22v1.67H96.87v3h4.43l.56,1.8Z"/><path class="cls-1" d="M108,94.12a4.75,4.75,0,0,1-2.76-.72V91.19a4.09,4.09,0,0,0,2.83,1.12c1.31,0,2-.5,2-1.52a1.14,1.14,0,0,0-.39-.92,3.49,3.49,0,0,0-1.36-.55l-.4-.09q-2.76-.67-2.76-3.12a3.17,3.17,0,0,1,1-2.49,4.21,4.21,0,0,1,2.87-.89,4.8,4.8,0,0,1,2.79.71v2.2a4.74,4.74,0,0,0-1.22-.75,4.12,4.12,0,0,0-1.65-.33,2.19,2.19,0,0,0-1.34.32,1.15,1.15,0,0,0-.41,1,1.19,1.19,0,0,0,.34.92,3.19,3.19,0,0,0,1.34.55l.39.1a4.21,4.21,0,0,1,2.16,1.06,2.75,2.75,0,0,1,.69,2,3.47,3.47,0,0,1-1,2.63A4.23,4.23,0,0,1,108,94.12Z"/><path class="cls-1" d="M118.45,93.86V84.8h-3.12V83h8.57l-.56,1.81h-2.78v9.06Z"/><polygon class="cls-1" points="100.69 30.54 102.55 28.68 104.24 30.38 104.41 30.53 102.55 32.4 100.69 30.54"/><polygon class="cls-1" points="104.42 30.54 106.28 28.68 107.97 30.38 108.13 30.54 106.28 32.4 104.42 30.54"/><path class="cls-1" d="M101.89,49.05a1.85,1.85,0,0,1-.87-.2,2.13,2.13,0,0,1-1.11-2.18,2.8,2.8,0,0,1,0-.38V46H84.17V31.81c0-.6-.39-.77-.72-.94s-.57-.3-.63-.71V30a20.91,20.91,0,0,0,3.75-3.68V43.6H99.93v-.68c0-.59-.06-1.83-3-1.85,0,0-1.36,0-2.72,0-.77,0-1.53,0-2,0-.85-.07-1.31-1-1.31-1.84a1.47,1.47,0,0,1,.6-1.29l.2-.14.12.22c.27.5,1.37.73,3.47.73h.19c.83,0,1.79,0,2.88-.05h.18c3.53,0,3.94,3.08,4,4.4v.52H106V38.36s.05-.38-.68-.78a1.29,1.29,0,0,1-.6-.84A11.13,11.13,0,0,0,108.3,33V46h-5.88v.19a3.07,3.07,0,0,0,.61,2.15l.26.2-.27.17A2.07,2.07,0,0,1,101.89,49.05Z"/><path class="cls-1" d="M73.74,48V46H65.66V43.56H76v3.2s-.11,1,1.84,1A1.19,1.19,0,0,0,79,46.52V40.83a.81.81,0,0,0-.91-.9H65.66V32.83a12.43,12.43,0,0,0,2.88,2.62c.23.15.11.54-.61,1-.15.08-.33.16-.33.36v.89H79.9c1.44,0,1.57,1.53,1.57,2,0,.08,0,8.15,0,8.15S81.35,50,77.82,50C73.48,50,73.74,48,73.74,48Z"/><path class="cls-1" d="M122.59,46V26.17l.42.68a8.57,8.57,0,0,0,1.57,1.6,7,7,0,0,0,1.37,1c.22.09.39.16.39.4V30c-.06.41-.35.56-.63.71a1,1,0,0,0-.68.94c0,.46,0,14.3,0,14.3Z"/><path class="cls-1" d="M111,48.56l2.49-2.5-3-3V26.18a12.19,12.19,0,0,0,3.09,3.75v.19a.89.89,0,0,1-.49.7,1,1,0,0,0-.55,1c0,.44,0,9.9,0,10.06l2.51,2.59,2.49-2.6s0-9.59,0-10a1,1,0,0,0-.56-1,.88.88,0,0,1-.49-.69V30a9.92,9.92,0,0,0,3.08-3.82v16.7l-3,3.18,2.5,2.5-4,4Zm4,1.68,1.66-1.68-1.66-1.68-1.69,1.68Z"/><path class="cls-1" d="M104.66,71.34l4.25-4.55v-9a.24.24,0,0,1,.08-.14l.62-.31v-.52h-5.7v.51l.59.38c.17.1.18.17.18.23V63.1H93.27L90.7,66.37V58l0-.16s0,0,.13-.09l.54-.34.06,0v-.52H85.76v.51l.56.37c.09.05.12.08.14.08h0V73.25l0,.2a.36.36,0,0,1-.11.1l-.56.38v.5h5.69v-.51l-.6-.37-.14-.08h0v-7.1l.62.19.78-.46a1.37,1.37,0,0,1,.36-.17,1.42,1.42,0,0,1,.32,0h11.88Z"/><path class="cls-1" d="M165.18,63.7a9.06,9.06,0,0,0-4.54-5.15c-2.12-1.18-5.12-1.76-9.17-1.76H136v.51s.65.43.67.43h0v1.84h14.79c3,0,5.18.4,6.51,1.18,2.11,1.23,3.14,2.83,3.14,4.89a5.08,5.08,0,0,1-.82,2.81,6.45,6.45,0,0,1-2.46,2.1,14.74,14.74,0,0,1-6.49,1.12h-7.71V60.83h-4.22V73.26l0,.18a1.35,1.35,0,0,1-.12.12l-.51.32-.05,0v.5h12.64A30.58,30.58,0,0,0,157,74a13.46,13.46,0,0,0,4.84-2,8.33,8.33,0,0,0,3-3.26,6.6,6.6,0,0,0,.65-2.91A7.38,7.38,0,0,0,165.18,63.7Z"/><path class="cls-1" d="M109.59,73.75a.6.6,0,0,1-.23-.06l10.61-11L117.52,60,103.78,74.39h6.33v-.61h-.22A1.39,1.39,0,0,1,109.59,73.75Z"/><path class="cls-1" d="M118.66,59.35l2.71,2.88,2.81,2.82h-4.74l-2.6,2.72.56.39.62-.33.17-.06h8.54l5.59,6s-.08.1-.57.1h-.22v.61h6.32L121.1,56.79Z"/><path class="cls-1" d="M78.05,57.32l.57.37c.13.09.2.17.2.24v15.3l0,.2-.15.12-.58.37v.52H83.7v-.51l-.53-.37c-.07,0-.11-.08-.13-.08h0V57.79l.13-.12.52-.35v-.51H78.05Z"/><path class="cls-1" d="M54.38,71.05l-.74.42a2.46,2.46,0,0,1-.33.17l-12.63,0a14.93,14.93,0,0,1-6.53-1.11,5.3,5.3,0,0,1-3.24-4.92,5,5,0,0,1,.84-2.77,7.23,7.23,0,0,1,4.91-3.12,9.82,9.82,0,0,1,1.55-.13h6.51c.39,0,.33.08.34.12l-.07.45h.54l2.79-3.36H40.54a37.09,37.09,0,0,0-4.17.17,13.82,13.82,0,0,0-5.17,1.7,9.49,9.49,0,0,0-4,4.08,7.08,7.08,0,0,0-.66,3.07c0,2.84,1.53,5.11,4.55,6.74a14.06,14.06,0,0,0,4.55,1.54,33.68,33.68,0,0,0,5.08.31H52.44L55.24,71H55Z"/><path class="cls-1" d="M48.78,66.81l2.73-3.42H33.09l-1.85,2.77h16.6c.32,0,.42.11.43.16l-.06.49Z"/><path class="cls-1" d="M47.64,60l.52.19.08,0,.8-.41a1.24,1.24,0,0,1,.67-.22H59.89V73.25l0,.2a.76.76,0,0,1-.13.1l-.58.38v.51h5.69v-.52l-.59-.36-.14-.13a.58.58,0,0,1,0-.15V59.61h9c.35,0,.39.12.39.13v.49H74l2.8-3.42H50.21Z"/></g></svg>