<svg width="2300" height="478" viewBox="0 0 2300 478" fill="none" xmlns="http://www.w3.org/2000/svg">
<g clip-path="url(#clip0_3778_9837)">
<path d="M2059.6 417V477.3H2082.6V455.5L2104.3 477.3H2134.7L2101.1 443.8L2127.8 417H2104.9L2082.4 439.2V417H2059.6Z" fill="#00A1DE"/>
<path d="M2134.4 417V477.3H2195V462.2H2157.7V417H2134.4Z" fill="#00A1DE"/>
<path d="M2201.7 417.1V477.3H2224.7V433.8L2240 477.3H2261.6L2277.1 433.4V477.3H2300V417.1H2262.4L2250.7 450.4L2239.4 417.1H2201.7Z" fill="#00A1DE"/>
<path d="M2224.8 403.4V387.9H2134.1V403.4H2224.8Z" fill="#00A1DE"/>
<path d="M2175.6 352.3H2168V344.9H2175.6V337.3H2183V344.9H2190.6V352.3H2183V359.9H2175.6V352.3Z" fill="#00A1DE"/>
<path d="M2134.4 384.4C2141.6 384.4 2147.5 378.5 2147.5 371.3C2147.5 364.1 2141.7 358.2 2134.4 358.2C2127.2 358.2 2121.4 364.1 2121.4 371.3C2121.4 378.5 2127.2 384.4 2134.4 384.4Z" fill="#00A1DE"/>
<path d="M2164.6 384.4C2171.8 384.4 2177.7 378.5 2177.7 371.3C2177.7 364.1 2171.8 358.2 2164.6 358.2C2157.4 358.2 2151.6 364.1 2151.6 371.3C2151.6 378.5 2157.4 384.4 2164.6 384.4Z" fill="#00A1DE"/>
<path d="M2194.8 384.4C2202 384.4 2207.9 378.5 2207.9 371.3C2207.9 364.1 2202.1 358.2 2194.8 358.2C2187.6 358.2 2181.8 364.1 2181.8 371.3C2181.8 378.5 2187.6 384.4 2194.8 384.4Z" fill="#00A1DE"/>
<path d="M2225.1 384.4C2232.3 384.4 2238.1 378.5 2238.1 371.3C2238.1 364.1 2232.3 358.2 2225.1 358.2C2217.9 358.2 2212.1 364.1 2212.1 371.3C2212 378.5 2217.8 384.4 2225.1 384.4Z" fill="#00A1DE"/>
<path d="M1957.8 411.5L1922.9 462C1918.3 468.7 1910.8 475.1 1901.8 475.7V477.2H1940.6C1950.9 477.2 1958.4 470.5 1963.5 463.1L1999.3 411.4H1957.8V411.5Z" fill="#FF0000"/>
<path d="M1314.8 477.2V417H1332.4V477.2H1314.8ZM1720.2 477.2L1678 441.4V477.2H1663.2V417H1675.8L1717.5 452.2V417H1732.3V477.2H1720.2ZM1812.1 436.4C1804.2 432.5 1795.2 429.3 1783.3 429.3C1769.1 429.3 1758.6 436.6 1758.6 446.8C1758.6 457.2 1769.3 464.6 1783.2 464.6C1794.6 464.6 1803.7 461.7 1812.6 456.5V471.4C1804.7 475.3 1794.2 478.2 1782.4 478.2C1758.3 478.2 1739.4 465.9 1739.4 446.7C1739.4 427.8 1758.7 415.7 1782.4 415.7C1793.6 415.7 1803.7 417.8 1812.1 421.2V436.4ZM1430.2 477.2V417H1489V429.9H1447.8V444.9H1488.1V457.8H1447.8V477.2H1430.2ZM1822.7 477.2V417H1883.7V429.9H1840.3V440.3H1883V453.2H1840.3V464.3H1883.5V477.2H1822.7ZM1550 454.6L1574.3 477.2H1555.5C1551.3 477.2 1548.6 475.9 1546.4 473.8L1529.9 457.8C1529.6 457.5 1529.1 457.3 1528.5 457.3H1517.3V477.2H1499.7V417H1537.8C1557.5 417 1565.9 425.9 1565.9 435.7C1565.9 447.1 1555.7 452.6 1550 454.6ZM1536 444.7C1543 444.7 1546.3 441.2 1546.3 437.2C1546.3 433.2 1543.3 429.9 1536 429.9H1517.3V444.7H1536ZM1399.2 454.6L1423.5 477.2H1404.7C1400.5 477.2 1397.8 475.9 1395.6 473.8L1379.1 457.8C1378.8 457.5 1378.3 457.3 1377.7 457.3H1366.5V477.2H1348.9V417H1387C1406.7 417 1415.1 425.9 1415.1 435.7C1415 447.1 1404.8 452.6 1399.2 454.6ZM1385.1 444.7C1392.1 444.7 1395.4 441.2 1395.4 437.2C1395.4 433.2 1392.4 429.9 1385.1 429.9H1366.4V444.7H1385.1ZM1287.3 477.2L1279.6 464H1245.9L1238.9 477.2H1222.1L1255.6 417H1270.9L1308.9 477.2H1287.3ZM1252.6 451.5H1272.2L1262 433.1L1252.6 451.5ZM1638.3 477.2L1630.8 464H1598L1591.2 477.2H1574.9L1607.6 417H1622.4L1659.4 477.2H1638.3ZM1604.6 451.5H1623.7L1613.8 433.1L1604.6 451.5Z" fill="#051039"/>
<path d="M507.2 99.2002V209.6C507.2 249.6 474.6 282.2 434.6 282.2C394.6 282.2 362 249.6 362 209.6V99.2002H318.4V209.6C318.4 273.7 370.5 325.8 434.6 325.8C447.3 325.8 459.6 323.7 471 319.8C484.2 315 497.5 306.2 507.2 290.1V307.3C507.2 346.6 470.2 379.9 426.4 379.9C401.5 379.9 380 369.9 356.7 347.4L355.2 346L329.4 380.5L331.2 382.5C354.5 408 388.9 418.2 389.3 418.3C401.2 421.8 413.7 423.5 426.3 423.5C494.9 423.5 550.7 371.4 550.7 307.3V99.2002H507.2Z" fill="#0800B9"/>
<path d="M624 11C607.7 11 594.4 24.3 594.4 40.6C594.4 56.9 607.7 70.1 624 70.1C640.3 70.1 653.6 56.8 653.6 40.6C653.5 24.3 640.3 11 624 11Z" fill="#0800B9"/>
<path d="M1071.5 93.3C1007.4 93.3 955.3 145.4 955.3 209.5C955.3 273.6 1007.4 325.7 1071.5 325.7C1084.2 325.7 1096.5 323.6 1107.9 319.7C1121.1 314.9 1134.4 306.1 1144.1 290V307.2C1144.1 346.5 1107.1 379.8 1063.3 379.8C1038.4 379.8 1016.9 369.8 993.6 347.3L992.1 345.9L966.3 380.4L968.1 382.4C991.4 407.9 1025.8 418.1 1026.2 418.2C1038.1 421.7 1050.6 423.4 1063.2 423.4C1131.8 423.4 1187.6 371.3 1187.6 307.2V209.5C1187.7 145.5 1135.5 93.3 1071.5 93.3ZM1071.5 282.1C1031.5 282.1 998.9 249.5 998.9 209.5C998.9 169.5 1031.5 136.9 1071.5 136.9C1111.5 136.9 1144.1 169.5 1144.1 209.5C1144 249.6 1111.5 282.1 1071.5 282.1Z" fill="#0800B9"/>
<path d="M1340.4 325.7C1404.5 325.7 1456.6 273.6 1456.6 209.5C1456.6 145.4 1404.5 93.3001 1340.4 93.3001C1327.7 93.3001 1315.4 95.4001 1304 99.3001C1290.8 104.1 1277.5 112.9 1267.8 129V5.40015H1224.2V209.6C1224.2 273.6 1276.3 325.7 1340.4 325.7ZM1340.4 137C1380.4 137 1413 169.6 1413 209.6C1413 249.6 1380.4 282.2 1340.4 282.2C1300.4 282.2 1267.8 249.6 1267.8 209.6C1267.8 169.5 1300.4 137 1340.4 137Z" fill="#0800B9"/>
<path d="M1811.2 99.1001H1767.3V209.4C1767.3 249.3 1734.8 281.8 1694.9 281.8C1655 281.8 1622.5 249.3 1622.5 209.4V99.1001H1578.6V211.9V212.5C1579.4 242.8 1591.9 271.3 1613.7 292.6C1635.6 313.9 1664.4 325.7 1694.8 325.7C1758.9 325.7 1811.1 273.5 1811.1 209.4V99.1001H1811.2Z" fill="#0800B9"/>
<path d="M2012.8 256.5C1999.4 272.5 1979.3 282.8 1956.7 282.8C1923 282.8 1894.7 260.1 1886.1 229.1H2071.2C2072.3 222.7 2073 216.2 2073 209.5C2073 145.3 2021 93.3 1956.8 93.3C1892.6 93.3 1840.6 145.3 1840.6 209.5C1840.6 273.7 1892.6 325.7 1956.8 325.7C2004.2 325.7 2044.9 297.2 2063 256.5H2012.8ZM1956.7 136.1C1989.8 136.1 2017.7 158 2026.9 188.1H1886.6C1895.7 158 1923.6 136.1 1956.7 136.1Z" fill="#0800B9"/>
<path d="M43.7999 321.5V210.3H168.4V166.5H43.7999V115.9C43.7999 75.9001 76.2999 43.4001 116.3 43.4001C144.4 43.4001 161.8 56.4001 179.3 75.8001L180.8 77.5001L206.7 42.7001L205 40.7001C183.3 15.1001 151.2 4.9001 150.8 4.8001C139.7 1.3001 128 -0.399902 116.2 -0.399902C52.0999 -0.399902 -9.76548e-05 51.7001 -0.100098 115.8V321.5H43.7999Z" fill="#0800B9"/>
<path d="M272.4 5.40015H228.5V321.5H272.4V5.40015Z" fill="#0800B9"/>
<path d="M645.9 99.2002H602V321.5H645.9V99.2002Z" fill="#0800B9"/>
<path d="M737.1 321.5V209.7C737.1 169.8 769.6 137.3 809.5 137.3C849.4 137.3 881.9 169.8 881.9 209.7V321.5H925.8V209.7C925.8 145.6 873.6 93.4001 809.5 93.4001C745.4 93.4001 693.2 145.6 693.2 209.7V321.5H737.1Z" fill="#0800B9"/>
<path d="M1533.8 5.40015H1489.9V321.5H1533.8V5.40015Z" fill="#0800B9"/>
</g>
<defs>
<clipPath id="clip0_3778_9837">
<rect width="2300" height="478" fill="white"/>
</clipPath>
</defs>
</svg>
