<?xml version="1.0" encoding="UTF-8" standalone="no"?>
<!-- Created with Inkscape (http://www.inkscape.org/) -->

<svg
   xmlns:dc="http://purl.org/dc/elements/1.1/"
   xmlns:cc="http://creativecommons.org/ns#"
   xmlns:rdf="http://www.w3.org/1999/02/22-rdf-syntax-ns#"
   xmlns:svg="http://www.w3.org/2000/svg"
   xmlns="http://www.w3.org/2000/svg"
   xmlns:sodipodi="http://sodipodi.sourceforge.net/DTD/sodipodi-0.dtd"
   xmlns:inkscape="http://www.inkscape.org/namespaces/inkscape"
   width="76.68428"
   height="13.25563"
   viewBox="0 0 20.289382 3.5072188"
   version="1.1"
   id="svg9137"
   inkscape:version="0.92.0 r15299"
   sodipodi:docname="google flights.svg">
  <defs
     id="defs9131">
    <clipPath
       id="clip70">
      <rect
         id="rect5703"
         height="14"
         width="31"
         x="0"
         y="0" />
    </clipPath>
    <clipPath
       id="clip71">
      <path
         id="path5700"
         d="M 0.324219,1 H 30 V 11 H 0.324219 Z m 0,0"
         inkscape:connector-curvature="0" />
    </clipPath>
    <mask
       id="mask23">
      <g
         id="g5697"
         transform="scale(0.26458333)"
         style="filter:url(#alpha)">
        <rect
           id="rect5695"
           style="fill:#000000;fill-opacity:0.86666697;stroke:none"
           height="792"
           width="612"
           y="0"
           x="0" />
      </g>
    </mask>
    <filter
       height="1"
       width="1"
       y="0"
       x="0"
       filterUnits="objectBoundingBox"
       id="alpha">
      <feColorMatrix
         id="feColorMatrix5436"
         values="0 0 0 0 1 0 0 0 0 1 0 0 0 0 1 0 0 0 1 0"
         in="SourceGraphic"
         type="matrix" />
    </filter>
    <clipPath
       id="clipPath9110">
      <rect
         id="rect9108"
         height="14"
         width="31"
         x="0"
         y="0" />
    </clipPath>
    <clipPath
       id="clipPath9114">
      <path
         id="path9112"
         d="M 0.324219,1 H 30 V 11 H 0.324219 Z m 0,0"
         inkscape:connector-curvature="0" />
    </clipPath>
  </defs>
  <sodipodi:namedview
     id="base"
     pagecolor="#ffffff"
     bordercolor="#666666"
     borderopacity="1.0"
     inkscape:pageopacity="0.0"
     inkscape:pageshadow="2"
     inkscape:zoom="11.851866"
     inkscape:cx="37.842142"
     inkscape:cy="6.1278151"
     inkscape:document-units="mm"
     inkscape:current-layer="layer1"
     showgrid="false"
     fit-margin-top="0"
     fit-margin-left="0"
     fit-margin-right="0"
     fit-margin-bottom="0"
     units="px"
     inkscape:window-width="1280"
     inkscape:window-height="744"
     inkscape:window-x="-4"
     inkscape:window-y="-4"
     inkscape:window-maximized="1" />
  <metadata
     id="metadata9134">
    <rdf:RDF>
      <cc:Work
         rdf:about="">
        <dc:format>image/svg+xml</dc:format>
        <dc:type
           rdf:resource="http://purl.org/dc/dcmitype/StillImage" />
        <dc:title></dc:title>
      </cc:Work>
    </rdf:RDF>
  </metadata>
  <g
     inkscape:label="Layer 1"
     inkscape:groupmode="layer"
     id="layer1"
     transform="translate(-103.81437,-235.54744)">
    <g
       id="g9417"
       transform="translate(0.13229126,-0.13228867)">
      <path
         id="path9357"
         d="m 105.09181,238.32832 c -0.69315,0 -1.27744,-0.56362 -1.27744,-1.25815 0,-0.69453 0.58429,-1.25815 1.27744,-1.25815 0.38448,0 0.6587,0.14883 0.86403,0.34727 l -0.24391,0.23978 c -0.14745,-0.13919 -0.34727,-0.24667 -0.62012,-0.24667 -0.50574,0 -0.90261,0.40927 -0.90261,0.91501 0,0.50712 0.39687,0.91502 0.90261,0.91502 0.32935,0 0.51677,-0.13229 0.63528,-0.2508 0.0978,-0.0978 0.16398,-0.23978 0.18879,-0.43408 h -0.77721 v -0.34313 h 1.11069 c 0.011,0.062 0.0193,0.13504 0.0193,0.21497 0,0.25769 -0.0717,0.5774 -0.29765,0.8034 -0.22187,0.23288 -0.50436,0.35553 -0.87919,0.35553 z"
         style="clip-rule:nonzero;fill:#4285f4;fill-opacity:1;fill-rule:nonzero;stroke:none;stroke-width:0.35277778"
         inkscape:connector-curvature="0" />
      <path
         id="path9355"
         transform="scale(0.26458333)"
         d="m 405.34766,894.63281 c -1.69792,0 -3.07227,1.29232 -3.07227,3.06836 0,1.77086 1.38478,3.06641 3.07227,3.06641 1.68752,0 3.07422,-1.30598 3.07422,-3.06641 0,-1.77604 -1.37631,-3.06836 -3.07422,-3.06836 z m 0,1.21289 c 0.92708,0 1.72461,0.75132 1.72461,1.85547 0,1.09376 -0.79753,1.85352 -1.72461,1.85352 -0.92708,0 -1.72266,-0.76498 -1.72266,-1.85352 0,-1.10415 0.79558,-1.85547 1.72266,-1.85547 z"
         style="clip-rule:nonzero;fill:#ea4335;fill-opacity:1;fill-rule:nonzero;stroke:none;stroke-width:1.33333337"
         inkscape:connector-curvature="0" />
      <path
         id="path9351"
         transform="scale(0.26458333)"
         d="m 412.23438,894.63281 c -1.6927,0 -3.07422,1.29232 -3.07422,3.06836 0,1.77086 1.38669,3.06641 3.07422,3.06641 1.69269,0 3.07812,-1.30598 3.07812,-3.06641 0,-1.77604 -1.38021,-3.06836 -3.07812,-3.06836 z m 0,1.21289 c 0.92708,0 1.72851,0.75132 1.72851,1.85547 0,1.09376 -0.80143,1.85352 -1.72851,1.85352 -0.92709,0 -1.72461,-0.76498 -1.72461,-1.85352 0,-1.10415 0.79752,-1.85547 1.72461,-1.85547 z"
         style="clip-rule:nonzero;fill:#fbbc05;fill-opacity:1;fill-rule:nonzero;stroke:none;stroke-width:1.33333337"
         inkscape:connector-curvature="0" />
      <path
         id="path9347"
         transform="scale(0.26458333)"
         d="m 418.96289,894.64258 c -1.53124,0 -2.9375,1.35026 -2.9375,3.07422 0,1.71874 1.40626,3.05078 2.9375,3.05078 0.72397,0 1.30739,-0.32763 1.60938,-0.69727 h 0.041 v 0.4375 c 0,1.17188 -0.62956,1.79688 -1.63476,1.79688 -0.82814,0 -1.33334,-0.5879 -1.54688,-1.08789 l -1.17187,0.48437 c 0.33853,0.81249 1.22916,1.8125 2.71875,1.8125 1.5781,0 2.9121,-0.92711 2.9121,-3.1875 v -5.50586 h -1.27734 v 0.5 h -0.041 c -0.29689,-0.35429 -0.87502,-0.67773 -1.60938,-0.67773 z m 0.10938,1.20312 c 0.9219,0 1.63476,0.78777 1.63476,1.8711 0,1.0625 -0.71286,1.83789 -1.63476,1.83789 -0.92708,0 -1.70313,-0.77539 -1.70313,-1.83789 0,-1.08333 0.77605,-1.8711 1.70313,-1.8711 z"
         style="clip-rule:nonzero;fill:#4285f4;fill-opacity:1;fill-rule:nonzero;stroke:none;stroke-width:1.33333337"
         inkscape:connector-curvature="0" />
      <path
         id="path9343"
         d="m 112.31273,235.97601 v 2.3027 h -0.35691 v -2.3027 z"
         style="clip-rule:nonzero;fill:#34a853;fill-opacity:1;fill-rule:nonzero;stroke:none;stroke-width:0.35277778"
         inkscape:connector-curvature="0" />
      <path
         id="path9341"
         transform="scale(0.26458333)"
         d="m 428.41602,894.62695 c -1.57811,0 -2.89063,1.24542 -2.89063,3.06836 0,1.71874 1.29751,3.0625 3.03711,3.0625 1.40625,0 2.21743,-0.85348 2.55078,-1.35351 l -1.04687,-0.69922 c -0.34375,0.51568 -0.80729,0.84375 -1.5,0.84375 -0.6875,0 -1.17181,-0.31119 -1.48438,-0.92578 l 4.09375,-1.69922 -0.13476,-0.34766 c -0.26041,-0.68749 -1.03643,-1.94922 -2.625,-1.94922 z m 0.0371,1.1875 c 0.53647,0 0.98454,0.27213 1.14063,0.65235 l -2.74609,1.14062 c -0.026,-1.18227 0.92318,-1.78163 1.60546,-1.79297 z"
         style="clip-rule:nonzero;fill:#ea4335;fill-opacity:1;fill-rule:nonzero;stroke:none;stroke-width:1.33333337"
         inkscape:connector-curvature="0" />
      <path
         id="path9257"
         d="M 112.93698,237.49185"
         style="clip-rule:nonzero;fill:#000000;fill-opacity:1;fill-rule:nonzero;stroke:none;stroke-width:0.35277778"
         inkscape:connector-curvature="0" />
      <g
         style="fill:#63666a;fill-opacity:1"
         id="g9400">
        <path
           inkscape:connector-curvature="0"
           id="path9266"
           d="m 115.63086,237.30252 v 0.97565 h -0.29214 v -2.27101 h 1.32843 v 0.27561 h -1.03629 v 0.74965 h 0.93707 v 0.2701 z m 0,0"
           style="fill:#63666a;fill-opacity:1;stroke:none;stroke-width:0.35277778" />
        <path
           inkscape:connector-curvature="0"
           id="path9270"
           d="m 117.18326,236.00716 v 2.27101 h -0.29214 v -2.27101 z m 0,0"
           style="fill:#63666a;fill-opacity:1;stroke:none;stroke-width:0.35277778" />
        <path
           inkscape:connector-curvature="0"
           id="path9274"
           d="m 117.89753,236.18355 c 0,0.0593 -0.0207,0.10887 -0.0606,0.14883 -0.0413,0.0413 -0.091,0.0606 -0.14883,0.0606 -0.0551,0 -0.10335,-0.0193 -0.14331,-0.0606 -0.0413,-0.04 -0.0606,-0.0896 -0.0606,-0.14883 0,-0.0537 0.0193,-0.10197 0.0606,-0.14331 0.04,-0.04 0.0882,-0.0606 0.14331,-0.0606 0.0579,0 0.10749,0.0207 0.14883,0.0606 0.04,0.0413 0.0606,0.0896 0.0606,0.14331 z m -0.0606,0.54019 v 1.55443 h -0.29214 v -1.55443 z m 0,0"
           style="fill:#63666a;fill-opacity:1;stroke:none;stroke-width:0.35277778" />
        <path
           inkscape:connector-curvature="0"
           id="path9278"
           d="m 118.87707,238.0632 c 0.14194,0 0.26045,-0.051 0.35278,-0.15434 0.0951,-0.10611 0.14332,-0.24254 0.14332,-0.4079 0,-0.16123 -0.0482,-0.2949 -0.14332,-0.40239 -0.0923,-0.10611 -0.21084,-0.15985 -0.35278,-0.15985 -0.14056,0 -0.25769,0.0537 -0.35278,0.15985 -0.0965,0.10749 -0.14331,0.24116 -0.14331,0.40239 0,0.16536 0.0469,0.30041 0.14331,0.40238 0.0951,0.10749 0.21222,0.15986 0.35278,0.15986 z m -0.011,0.9536 c -0.0854,0 -0.16674,-0.0124 -0.24253,-0.0331 -0.0772,-0.022 -0.14745,-0.0537 -0.20947,-0.0937 -0.0634,-0.0413 -0.11713,-0.0896 -0.15985,-0.14332 -0.0441,-0.0551 -0.0785,-0.11851 -0.0992,-0.18741 l 0.27561,-0.11024 c 0.0289,0.0868 0.0827,0.15985 0.15985,0.21497 0.0799,0.0537 0.17226,0.0827 0.27561,0.0827 0.1571,0 0.28112,-0.0482 0.36931,-0.14331 0.091,-0.0965 0.13781,-0.22738 0.13781,-0.39137 v -0.14882 h -0.011 c -0.0551,0.0813 -0.13092,0.14607 -0.226,0.19292 -0.0965,0.0469 -0.19981,0.0717 -0.30868,0.0717 -0.20257,0 -0.37758,-0.0786 -0.52366,-0.23702 -0.14331,-0.16123 -0.21497,-0.35829 -0.21497,-0.5898 0,-0.23014 0.0717,-0.4272 0.21497,-0.5898 0.14608,-0.1571 0.32109,-0.23703 0.52366,-0.23703 0.10887,0 0.21222,0.0248 0.30868,0.0717 0.0951,0.0441 0.17088,0.10887 0.226,0.19293 h 0.011 v -0.21498 h 0.28112 v 1.48828 c 0,0.24943 -0.073,0.44373 -0.21498,0.58429 -0.14331,0.14607 -0.33486,0.22049 -0.57326,0.22049 z m 0,0"
           style="fill:#63666a;fill-opacity:1;stroke:none;stroke-width:0.35277778" />
        <path
           inkscape:connector-curvature="0"
           id="path9282"
           d="m 119.94477,236.00716 h 0.29214 v 0.71658 l -0.011,0.21498 h 0.011 c 0.0427,-0.0758 0.11162,-0.13918 0.20395,-0.18742 0.0909,-0.051 0.18879,-0.0772 0.29214,-0.0772 0.18604,0 0.33211,0.0565 0.43546,0.16537 0.10198,0.10748 0.15434,0.26183 0.15434,0.46302 v 0.97565 h -0.29214 v -0.92053 c 0,-0.27836 -0.12402,-0.41892 -0.36931,-0.41892 -0.11852,0 -0.21911,0.051 -0.30317,0.14882 -0.0813,0.0965 -0.12127,0.21084 -0.12127,0.34176 v 0.84887 h -0.29214 z m 0,0"
           style="fill:#63666a;fill-opacity:1;stroke:none;stroke-width:0.35277778" />
        <path
           inkscape:connector-curvature="0"
           id="path9286"
           d="m 122.14879,238.30573 c -0.12954,0 -0.23565,-0.0386 -0.31971,-0.11575 -0.0813,-0.0799 -0.12402,-0.19017 -0.12677,-0.33073 v -0.87092 h -0.2701 v -0.26459 h 0.2701 v -0.47955 h 0.29214 v 0.47955 h 0.38034 v 0.26459 h -0.38034 v 0.77721 c 0,0.10335 0.0193,0.17363 0.0606,0.20946 0.04,0.0372 0.0854,0.0551 0.1378,0.0551 0.0207,0 0.0441,-0.001 0.0661,-0.006 0.0207,-0.007 0.0441,-0.0138 0.0662,-0.022 l 0.0882,0.25907 c -0.0744,0.0289 -0.1626,0.0441 -0.26458,0.0441 z m 0,0"
           style="fill:#63666a;fill-opacity:1;stroke:none;stroke-width:0.35277778" />
        <path
           inkscape:connector-curvature="0"
           id="path9290"
           d="m 123.83917,237.84822 c 0,0.13643 -0.0593,0.2508 -0.17639,0.34176 -0.11851,0.091 -0.26734,0.1378 -0.44649,0.1378 -0.15847,0 -0.29628,-0.0413 -0.41341,-0.12127 -0.11851,-0.0799 -0.20257,-0.18741 -0.25356,-0.3197 l 0.25907,-0.11576 c 0.0358,0.0965 0.0909,0.1695 0.16537,0.22049 0.073,0.0524 0.15434,0.0772 0.24253,0.0772 0.0909,0 0.16812,-0.0193 0.23151,-0.0606 0.062,-0.04 0.0937,-0.0882 0.0937,-0.14331 0,-0.0978 -0.0758,-0.17226 -0.226,-0.22049 l -0.27009,-0.0661 c -0.30179,-0.073 -0.452,-0.21773 -0.452,-0.43546 0,-0.14194 0.0565,-0.25632 0.17088,-0.34176 0.11713,-0.0841 0.26596,-0.12678 0.44648,-0.12678 0.13505,0 0.25908,0.0344 0.36932,0.0992 0.113,0.0634 0.19292,0.15021 0.23702,0.25907 l -0.26458,0.11025 c -0.0303,-0.0648 -0.0785,-0.11714 -0.14332,-0.15434 -0.0662,-0.0358 -0.14056,-0.0551 -0.22048,-0.0551 -0.0772,0 -0.14745,0.0207 -0.20947,0.0606 -0.0593,0.0372 -0.0882,0.0813 -0.0882,0.13229 0,0.0923 0.0841,0.1571 0.25356,0.19293 l 0.23151,0.0606 c 0.30731,0.0772 0.46302,0.23427 0.46302,0.46853 z m 0,0"
           style="fill:#63666a;fill-opacity:1;stroke:none;stroke-width:0.35277778" />
      </g>
    </g>
  </g>
</svg>
