<svg width="562" height="120" viewBox="0 0 562 120" fill="none" xmlns="http://www.w3.org/2000/svg">
<path d="M170.344 0.166534V99.229L187.67 96.1697V115.151C187.67 115.637 187.322 116.052 186.844 116.136L168.302 119.403C157.71 121.27 148 113.121 148 102.366V5.78514C148 4.81457 148.697 3.9841 149.653 3.81553L170.344 0.166534Z" fill="#FF0A8C"/>
<path fill-rule="evenodd" clip-rule="evenodd" d="M350.07 95.3205C348.298 93.0862 346.98 90.6107 346.207 87.8047C346.207 87.8047 406.972 77.0804 413.12 75.9905C414.35 75.7905 414.55 75.2605 414.43 74.2605C414.307 73.1972 414.213 72.1259 414.12 71.0538C413.918 68.7384 413.716 66.4192 413.21 64.1705C410.08 50.2205 402.42 39.6205 389.3 33.4405C379.44 28.8005 369.02 28.0005 358.44 30.2805C344.38 33.3105 333.96 41.2005 327.88 54.3505C323.35 64.1505 322.6 74.4505 324.72 84.9405C327.38 98.0805 334.38 108.191 346.46 114.371C357.23 119.871 368.71 120.801 380.46 118.721C394.64 116.201 405.12 108.581 411.34 95.4805C412.233 93.606 412.902 91.6216 413.604 89.5397L413.604 89.5387L413.605 89.5375L413.609 89.5253L413.609 89.5239C413.918 88.6066 414.234 87.6696 414.578 86.7155C414.591 86.6816 414.604 86.6421 414.618 86.602L414.619 86.6L414.62 86.5974L414.636 86.5504C414.646 86.5196 414.657 86.4898 414.666 86.4634C414.666 86.4634 401.213 88.8404 394.51 90.0205C393.94 90.1205 393.21 90.5605 392.98 91.0505C390.64 96.0305 386.94 99.5805 381.88 101.671C376.01 104.091 369.91 104.331 363.73 103.211C358.24 102.211 353.58 99.7405 350.07 95.3205ZM392.89 62.1586C392.99 62.4977 393.093 62.8467 393.204 63.2085L344.7 71.7605C344.731 71.2848 344.753 70.8278 344.775 70.3845L344.775 70.3832C344.823 69.3828 344.868 68.4519 345 67.5305C345.74 62.4305 347.18 57.5805 350.27 53.3505C354.12 48.0905 359.43 45.4405 365.8 44.6805C370.39 44.1305 374.9 44.5005 379.24 46.1205C385.76 48.5605 389.79 53.4105 392.14 59.8005C392.416 60.5552 392.644 61.3271 392.89 62.1586Z" fill="#FF0A8C"/>
<path fill-rule="evenodd" clip-rule="evenodd" d="M483.72 109.78C492.61 116.77 502.91 119.61 514.09 119.65C520.21 119.68 526.2 118.84 531.96 116.73C543.44 112.53 552 105.08 557.2 93.9504C561.46 84.8404 562.54 75.3404 560.72 65.4604C559.87 60.8104 558.26 56.4204 556.14 52.2604C554.927 49.8809 553.156 47.7529 551.424 45.6722L551.14 45.3304C546.19 39.3604 540.01 35.0604 532.73 32.3704C522.93 28.7504 512.88 28.2004 502.72 30.3104C492.19 32.5004 483.27 37.5904 476.6 46.1304C468.08 57.0304 465.19 69.4004 467.63 82.9704C469.6 93.9104 474.97 102.9 483.72 109.78ZM487.993 77.0335C487.931 76.4967 487.878 76.0262 487.82 75.6504C488.02 66.1704 490.63 58.9904 496.83 53.3504C500.89 49.6704 505.77 47.7204 511.17 47.2404C518.07 46.6304 524.56 47.9104 530.19 52.2304C535.6 56.3704 538.72 61.9404 539.96 68.5304C541.56 77.0404 540.1 85.0204 534.81 92.0204C530.55 97.6704 524.72 100.66 517.7 101.5C512.84 102.08 508.13 101.59 503.64 99.7204C495.72 96.4304 490.98 90.3204 488.85 82.1604C488.371 80.3388 488.155 78.454 487.993 77.0335Z" fill="#FF0A8C"/>
<path d="M267.186 119.497L283.71 116.872C284.387 116.757 284.958 116.301 285.221 115.667L311.92 51.2922C312.188 50.645 312.776 50.1854 313.469 50.0809L318.318 49.2435C319.051 49.1104 319.594 48.5023 319.594 47.7603L319.594 29.1314L307.699 31.2326C301.355 32.2712 296.046 36.6141 293.771 42.6266L274.768 92.8532L251.727 32.1939C251.505 31.6117 250.903 31.2681 250.289 31.3747L230.897 34.7876L265.548 118.592C265.815 119.239 266.495 119.615 267.186 119.497Z" fill="#FF0A8C"/>
<path d="M446.354 99.229V0.166534L425.663 3.81553C424.707 3.9841 424.01 4.81457 424.01 5.78514V102.366C424.01 113.121 433.72 121.27 444.312 119.403L462.854 116.136C463.331 116.052 463.68 115.637 463.68 115.151V96.1697L446.354 99.229Z" fill="#FF0A8C"/>
<path d="M210.82 22.5904C216.901 22.5904 221.83 17.661 221.83 11.5804C221.83 5.49969 216.901 0.570343 210.82 0.570343C204.739 0.570343 199.81 5.49969 199.81 11.5804C199.81 17.661 204.739 22.5904 210.82 22.5904Z" fill="#FF0A8C"/>
<path d="M200.01 36.3763C200.01 35.673 200.515 35.0711 201.207 34.9485L221.64 31.3304V114.468C221.64 115.171 221.135 115.773 220.443 115.896L200.01 119.51V36.3763Z" fill="#FF0A8C"/>
<path d="M58.0001 118.167C48.6203 118.101 42.5074 114.148 39.0952 105.375C37.3987 101.01 36.0373 96.4977 34.8285 91.9679C34.2158 89.6738 33.2694 87.77 31.8678 86.2988C30.3965 84.8972 28.4927 83.9508 26.1986 83.338C21.6689 82.1293 17.1561 80.7678 12.7918 79.0713C4.01864 75.6591 0.0657528 69.5463 0 60.1666C0.0657528 50.7869 4.01864 44.6739 12.7918 41.2618C17.1561 39.5652 21.6689 38.2038 26.1986 36.995C28.4927 36.3823 30.3965 35.4359 31.8678 34.0343C33.2694 32.563 34.2158 30.6593 34.8285 28.3652C36.0373 23.8354 37.3987 19.3226 39.0952 14.9584C42.5074 6.18517 48.6203 2.23229 58 2.16653C67.3797 2.23229 73.4926 6.18517 76.9048 14.9584C78.6013 19.3226 79.9627 23.8354 81.1715 28.3652C81.7842 30.6593 82.7306 32.563 84.1322 34.0343C85.6035 35.4359 87.5073 36.3823 89.8014 36.995C94.3311 38.2038 98.8439 39.5652 103.208 41.2618C111.981 44.6739 115.934 50.7869 116 60.1665C115.934 69.5462 111.981 75.6591 103.208 79.0713C98.8439 80.7678 94.3311 82.1293 89.8014 83.338C87.5073 83.9508 85.6035 84.8972 84.1322 86.2988C82.7306 87.77 81.7842 89.6738 81.1715 91.9679C79.9627 96.4977 78.6013 101.01 76.9048 105.375C73.4926 114.148 67.3797 118.101 58.0001 118.167Z" fill="#FF0A8C"/>
</svg>
