<?xml version="1.0" encoding="UTF-8"?>
<!-- Created with Inkscape (http://www.inkscape.org/) -->
<svg width="294.01199" height="52.32" version="1.1" viewBox="0 0 77.790671 13.843" xmlns="http://www.w3.org/2000/svg" xmlns:cc="http://creativecommons.org/ns#" xmlns:dc="http://purl.org/dc/elements/1.1/" xmlns:rdf="http://www.w3.org/1999/02/22-rdf-syntax-ns#">
 <metadata>
  <rdf:RDF>
   <cc:Work rdf:about="">
    <dc:format>image/svg+xml</dc:format>
    <dc:type rdf:resource="http://purl.org/dc/dcmitype/StillImage"/>
   </cc:Work>
  </rdf:RDF>
 </metadata>
 <g transform="translate(-13.397668,-346.64263)">
  <g transform="matrix(2,0,0,2,-52.028423,-353.82871)" fill-rule="evenodd">
   <path transform="matrix(.26458333 0 0 .26458333 38.666435 350.41294)" d="m0.468 0.33h11.838c4.67 0 8.457 3.862 8.457 8.629 0 4.765-3.787 8.628-8.457 8.628h-5.074v6.903h-6.764zm6.764 6.902h5.074c0.933 0 1.692 0.773 1.692 1.727 0 0.952-0.759 1.725-1.692 1.725h-5.074v-3.451z" fill="#ed1c24"/>
   <path transform="matrix(.26458333 0 0 .26458333 32.977629 350.41294)" d="m5.056 24.49v-17.258h-5.056v-6.902h21.97v24.16l-1.292-4.394v0.08h-7.588l-1.27 4.314zm10.063-11.217h3.552l-1.777-6.04z" fill="#bfd730"/>
   <path transform="matrix(.26458333 0 0 .26458333 34.300546 350.41294)" d="m0.056 24.49h6.764v-17.258h5.073v-6.902h-5.072z" fill="#46a41a"/>
   <path transform="matrix(.26458333 0 0 .26458333 38.666435 350.41294)" d="m0.468 24.49h6.764l-6.764-24.16z" fill="#ba141a"/>
   <g fill="#000000">
    <path d="m52.298562 355.06617h0.360627v-1.08929c0.09313 0.0265 0.205581 0.032 0.328613 0.032 0.372533 0 0.683948-0.10028 0.88212-0.29898 0.147638-0.14235 0.224103-0.34766 0.224103-0.59399 0-0.24606-0.09737-0.44424-0.247386-0.576-0.169333-0.14949-0.434975-0.23574-0.805921-0.23574-0.315912 0-0.559329 0.0246-0.742156 0.055v2.70722zm0.360627-2.44422a2.0439062 2.0439062 0 0 1 0.381-0.0315c0.393171 0 0.692944 0.15398 0.692944 0.54292 0 0.36962-0.270669 0.58367-0.731308 0.58367-0.134673 0-0.25109-0.0103-0.342636-0.0376v-1.05727zm3.048794 2.49317c0.763852 0 1.397529-0.5371 1.397529-1.4478 0-0.79322-0.543454-1.388-1.366573-1.388-0.8001 0-1.395148 0.59742-1.395148 1.4515 0 0.7956 0.560123 1.3843 1.359959 1.3843h0.0045zm0.0053-0.29157c-0.610923 0-0.99113-0.51197-0.99113-1.1049 0-0.61383 0.347134-1.14776 1.001977-1.14776 0.653521 0 0.995363 0.55694 0.995363 1.11389 0 0.65008-0.382852 1.13877-1.001977 1.13877zm1.666875 0.24262h0.359039v-1.18454h0.398463c0.331258 0.0148 0.486039 0.16193 0.572823 0.53631 0.07964 0.34475 0.143668 0.57044 0.187325 0.64823h0.37465c-0.05927-0.11377-0.126736-0.3855-0.224367-0.77126-0.06641-0.25797-0.19685-0.4572-0.403754-0.53446v-0.01c0.284956-0.0899 0.531018-0.33231 0.531018-0.69585 0-0.21378-0.08599-0.40084-0.218545-0.51567-0.175684-0.15902-0.432859-0.23548-0.835555-0.23548-0.26617 0-0.549539 0.0249-0.741097 0.0603zm0.359039-2.44422c0.06588-0.0169 0.201083-0.0357 0.404813-0.0357 0.377031 0 0.669925 0.13917 0.669925 0.50747 0 0.31062-0.247386 0.5125-0.645584 0.5125h-0.429154zm2.542646 2.44422h0.363008v-2.4339h0.930804v-0.30506h-2.220383v0.30506h0.926571zm1.506273-2.73896v1.54384c0 0.90831 0.464873 1.24407 1.060979 1.24407 0.643731 0 1.125273-0.36645 1.125273-1.25254v-1.53537h-0.362479v1.5531c0 0.64082-0.294217 0.94059-0.744802 0.94059-0.415396 0-0.715434-0.29104-0.715434-0.94033v-1.55336zm4.997979 1.29963h-0.967581v0.29051h0.608541v0.79031c-0.09869 0.0503-0.282839 0.0873-0.551391 0.0873-0.728134 0-1.168136-0.4572-1.168136-1.10172 0-0.6313 0.448204-1.09088 1.204384-1.09088 0.31406 0 0.5207 0.0571 0.687387 0.13335l0.0934-0.29448c-0.127-0.0603-0.410898-0.14102-0.767821-0.14102-1.041929 0-1.598083 0.67548-1.598083 1.4089 0 0.40111 0.147108 0.76015 0.390525 0.99219 0.288396 0.27596 0.661987 0.3937 1.127125 0.3937 0.425979 0 0.771789-0.10583 0.941652-0.16933zm1.987021 0.56568 0.324643 0.87365h0.392907l-1.023409-2.73896h-0.442648l-1.012825 2.73896h0.380471l0.310621-0.87365zm-0.991923-0.28469 0.307446-0.8263c0.05662-0.16139 0.09922-0.30639 0.141023-0.45032h0.0077c0.04233 0.14102 0.08387 0.28363 0.148167 0.45747l0.306917 0.81915z" stroke-width=".264583"/>
    <path transform="matrix(.26458333 0 0 .26458333 69.624008 352.30286)" d="m0.294 10.444h6.206v-1.167h-4.837v-9.185h-1.37z"/>
    <path transform="matrix(.26458333 0 0 .26458333 32.977629 350.36532)" d="m58.4 17.767h1.94v-10.353h-1.94zm-4.434-3 1.046 3h2.13l-3.697-10.352h-2.521l-3.588 10.352h2.035l0.972-3h3.622zm-3.28-1.477 0.898-2.621c0.197-0.602 0.355-1.23 0.511-1.8h0.031c0.168 0.563 0.346 1.182 0.564 1.811l0.925 2.61h-2.93zm13.671-4.264c0.23-0.039 0.638-0.085 1.261-0.085 1.034 0 2.265 0.285 2.265 1.645 0 1.025-0.832 1.662-2.171 1.662h-1.355zm0 4.81h1.227c1.13 0.05 1.613 0.509 1.916 1.817 0.264 1.143 0.44 1.762 0.563 2.114h1.99c-0.185-0.446-0.406-1.322-0.702-2.488l-0.056-0.224c-0.229-0.887-0.634-1.546-1.186-1.937 0.881-0.447 1.675-1.323 1.675-2.68 0-0.866-0.336-1.651-0.916-2.153-0.73-0.663-1.759-0.958-3.336-0.958-0.989 0-2.08 0.089-2.849 0.232l-0.219 0.042v10.166h1.893v-3.93z"/>
   </g>
  </g>
 </g>
</svg>
