<svg width="600" height="206" xmlns="http://www.w3.org/2000/svg" version="1.1">

    <g>
        <g id="svg_29">
            <g id="svg_1">
                <path id="svg_2" d="m590.1,69.2c0,-2.8 2.3,-5 5,-5c2.8,0 5,2.3 5,5c0,2.8 -2.3,5 -5,5l0,0c-2.8,0 -5,-2.3 -5,-5zm9.1,0c0,-2.3 -1.8,-4.2 -4.1,-4.2c-2.3,0 -4.2,1.8 -4.2,4.1c0,2.3 1.8,4.2 4.1,4.2c0,0 0,0 0,0c2.3,0 4.1,-1.9 4.2,-4.1zm-1.9,2.6l-0.9,0l-1.6,-2.5l-0.9,0l0,2.5l-0.8,0l0,-5.3l2.3,0c1,0 1.9,0.3 1.9,1.4c0,1.2 -0.7,1.5 -1.7,1.5l1.7,2.4zm-2.5,-3.2c0.7,0 1.8,0 1.8,-0.7s-0.7,-0.7 -1.3,-0.7l-1.4,0l0,1.4l0.9,0z" fill="#0033A0"/>
                <path id="svg_3" d="m572.1,73.6c0.6,-1.6 1.1,-3.3 1.6,-5c0.9,-3.6 1.3,-7.2 1.3,-10.9c0,-2.2 -0.2,-4.3 -0.5,-6.4c-0.1,2 -0.4,4 -0.8,6c0,0.4 0.4,1.1 0.5,1.5l0,0c-0.3,3.1 -0.9,6.2 -1.8,9.2c-0.4,-1.5 -1,-2.9 -1,-3l0,0c-1.2,3.1 -2.6,6.1 -4.2,9l4.9,-0.4z" fill="#0033A0"/>
                <path id="svg_4" d="m562.1,73.6l2.8,0c5,-7 7.9,-15.3 8.3,-23.9c0.1,-3.4 -0.5,-6.8 -1.7,-10.1c-1.2,-2.7 -2.6,-5.2 -4.3,-7.6c0.5,1.3 0.8,2.7 1.1,4.1l0,0.3c1.7,2.8 2.7,6 3.1,9.2l0,0c0,0 -1.6,-2.2 -2.8,-3.6c-0.1,2.4 -0.3,4.8 -0.9,7.1c1.2,1.4 2.4,2.9 3.4,4.5c-0.5,2.6 -1.3,5.1 -2.3,7.5c-1.1,-1.6 -2.3,-3.1 -3.6,-4.5c-1.2,3 -2.7,5.8 -4.3,8.6c0,0 3,3.5 3.7,4.5c-0.7,1.3 -1.6,2.6 -2.5,3.9z" fill="#0033A0"/>
                <path id="svg_5" d="m552,73.6c5.4,-5.9 9.6,-12.7 12.4,-20.1c2.7,-6.7 3.2,-14.1 1.5,-21.1c-0.1,-0.5 -0.3,-1 -0.5,-1.4c-0.6,-1.6 -1.4,-3 -2.5,-4.3c-2.5,-2.8 -5.3,-5.3 -8.4,-7.4c0.4,0.6 0.8,1.2 1.2,1.8c2.3,1.7 4.4,3.6 6.3,5.7c-1.5,-1.1 -3,-2.1 -4.6,-2.9l0,0c0.6,1.6 1.1,3.3 1.4,5c2.3,1.2 4.4,2.7 6.3,4.3c0.4,1.9 0.6,3.9 0.6,5.9c-2,-1.9 -4.2,-3.5 -6.5,-5c-0.1,2.3 -0.4,4.6 -0.9,6.8c2.3,1.5 4.4,3.2 6.5,5c-0.6,2.6 -1.4,5 -2.4,7.4c-3.1,-2.9 -6.1,-5 -6.3,-5.3c-1.1,2.8 -2.4,5.5 -4,8c3.1,2.7 6,5.5 6,5.5c-1.8,2.8 -3.9,5.4 -6.1,7.9l0,0l-5.5,-5.5c-2.3,2.8 -4.7,5.4 -7.3,7.8l1.7,1.9l11.1,0z" fill="#0033A0"/>
                <path id="svg_6" d="m553.7,19.9c-0.4,-0.5 -0.8,-1 -1.3,-1.4c-0.4,-0.4 -0.8,-0.7 -1.2,-1.1c-4,-2.4 -8.5,-4.1 -13.1,-5l1.5,0.9c2.2,0.6 4.4,1.4 6.5,2.4c0,0 -2.8,-0.6 -4.5,-0.9c0.8,0.7 1.4,1.4 2.1,2.2c2.8,0.5 5.5,1.3 8.1,2.4c0.9,1 1.6,2.1 2.1,3.4c-2.7,-1 -5.4,-1.8 -8.2,-2.4c0.6,1.3 1,2.7 1.3,4.2c2.9,0.7 5.7,1.7 8.4,2.9c0.3,1.7 0.4,3.5 0.4,5.3c-2.7,-1.4 -5.6,-2.5 -8.5,-3.5c-0.1,1.9 -0.4,3.9 -0.9,5.7c0,0 5.8,2.6 8.4,4.2c-0.6,2.3 -1.4,4.6 -2.4,6.7c-4,-2.6 -8.2,-5 -8.2,-5c-1.1,2.3 -2.3,4.6 -3.7,6.7l0,0c0,0 4.4,3 7.7,5.6c-1.7,2.5 -3.5,4.9 -5.5,7.2l-7.1,-6.3c-2,2.3 -4.1,4.5 -6.4,6.5l0,0l6.2,6.8l0,0c-2.5,2.1 -5.2,4 -8,5.8l-5,-7.3c-3.1,2.2 -6.3,4.1 -9.8,5.6l0,2.1l20.1,0c22.2,-16.9 30.1,-41.2 21,-53.7z" fill="#0033A0"/>
                <path id="svg_7" d="m542.3,17.4c-4,-5 -10.5,-7.4 -16.8,-6.1c-1.7,0.2 -3.4,0.6 -5,1.1c0.7,0 1.4,0.1 2.1,0.3c2.4,-0.6 4.9,-0.9 7.4,-0.7l0,0c-1.8,0.3 -3.6,0.7 -5.3,1.2l0,0c0.7,0.3 1.4,0.6 2,0.9c2.6,-0.7 5.3,-1.1 8,-1.2l0,0c0.9,0.5 1.9,1 2.7,1.6c-3,0 -6,0.3 -9,1c0.6,0.5 1.2,1.2 1.7,1.8c3.3,-0.5 6.7,-0.6 10.1,-0.5l0.9,1.2c0.4,0.6 0.7,1.1 1,1.7c-3.6,-0.3 -7.1,-0.3 -10.7,0c0.4,0.9 0.6,1.9 0.8,3c3.7,0 7.4,0.4 11.1,1.1c0.2,1.4 0.2,2.9 0,4.3c-3.7,-0.9 -7.4,-1.6 -11.1,-2c-0.1,1.4 -0.4,2.8 -0.7,4.1c3.6,0.8 7.2,1.9 10.7,3.2c0,0.2 0,0.4 0,0.7c-0.5,1.6 -1.2,3.2 -2,4.7c-2.9,-1.5 -10.1,-4.3 -10.1,-4.3c-0.8,1.7 -1.7,3.4 -2.7,5c0,0 6.2,3.5 9.2,5.5c-1.4,2 -3,3.9 -4.6,5.7c-2.2,-1.9 -7.5,-6.1 -7.9,-6.4c-1.8,2.1 -4,4.2 -4.6,5l6.5,7.4l0,0c-1.4,1.1 -2.8,2.2 -4.2,3.1l-2.3,1.6c0,0 -4.3,-6.9 -5,-8c-0.4,0.4 -0.9,0.7 -1.4,1l0,13.9l2.3,-1.2c3.7,-1.9 7.2,-4.1 10.5,-6.7c2.2,-1.9 4.3,-4 6.3,-6.2c2.5,-2.5 4.8,-5.3 6.7,-8.3c6.7,-10.5 8.7,-21.5 3.4,-28.5z" fill="#0033A0"/>
                <path id="svg_8" d="m527.9,17c-3.2,-3.1 -7.8,-4.4 -12.2,-3.3l-0.4,0l-1.2,0.3c-0.6,0.1 -1.1,0.3 -1.7,0.5l0,1.6l1.6,-1.2c1,-0.2 2,-0.3 3,-0.4c-1.6,0.9 -3.1,2 -4.5,3.1l0,1.2l0,0c2.1,-1.6 4.4,-3.1 6.7,-4.3c0.7,0 1.4,0.1 2.1,0.3c-2.8,1.2 -5.5,2.7 -7.9,4.4c0.3,0.2 0.6,0.4 0.9,0.7c2.9,-1.8 6,-3.3 9.2,-4.4c0.6,0.3 1.2,0.7 1.8,1.1c-3.5,1.1 -6.8,2.4 -10.1,4.1c0.3,0.3 0.5,0.7 0.7,1.1l0,0c3.6,-1.5 7.3,-2.7 11.1,-3.6c0.5,0.6 0.8,1.3 1.1,2c-3.9,0.6 -7.8,1.5 -11.6,2.7c0.2,0.5 0.3,1.1 0.4,1.6c3.9,-0.9 7.8,-1.4 11.8,-1.6c0.1,1 0.1,2 0,3c-3.3,0 -11.3,0.3 -11.6,0.3c0,0.7 -0.2,1.5 -0.4,2.2c3.7,0.2 7.5,0.5 11.2,1.2c-0.4,1.3 -1,2.6 -1.6,3.8c-3.6,-1.1 -8.9,-2.4 -10.1,-2.7c-0.4,0.9 -0.9,1.8 -1.4,2.7c0,0 6.5,2.9 9.1,4.3l0,0c-1,1.4 -2,2.7 -3.2,3.9l-1.8,-1.3l-5.8,-4.1l0,0l0,5.4l3.4,3.9c-1.1,0.9 -2.2,1.7 -3.4,2.5l0,3.3l0,0c1.6,-1.1 3.1,-2.3 4.6,-3.5c11.2,-10.7 16,-24.4 10.2,-30.8z" fill="#0033A0"/>
                <path id="svg_9" d="m512.4,32.3c3,-4.3 3.4,-9.2 0.8,-11.5c-0.2,-0.2 -0.5,-0.4 -0.8,-0.6l0,12.1z" fill="#0033A0"/>
                <path id="svg_10" d="m528.8,9.4c26.7,0.2 48.1,21.9 48,48.6c0,5.3 -0.9,10.6 -2.7,15.6l11.8,0l0,-73.6l-73.4,0l0,12.3l0,0c5.2,-1.9 10.7,-2.9 16.3,-2.9z" fill="#0033A0"/>
                <path id="svg_11" d="m475,41.4c-0.4,1.2 -1.1,2.2 -2,3c-1,0.8 -2.2,1.4 -3.5,1.6c-1.7,0.4 -3.5,0.5 -5.3,0.5l-8.7,0l0,-19.5l8.7,0c1.8,0 3.6,0.2 5.4,0.6c1.3,0.3 2.5,0.9 3.5,1.7c0.9,0.8 1.6,1.9 1.9,3c0.4,1.4 0.6,2.9 0.6,4.4c0.1,1.6 -0.1,3.1 -0.6,4.7m6.6,-18c-2,-1.7 -4.4,-3 -6.9,-3.7c-3.3,-0.9 -6.7,-1.4 -10.1,-1.3l-20.1,0l0,36.8l20.1,0c5.8,0.4 11.6,-1.3 16.4,-4.6c4,-3.4 6.2,-8.5 5.8,-13.8c0,-2.6 -0.4,-5.1 -1.3,-7.5c-0.7,-2.3 -2.1,-4.3 -3.9,-5.9" fill="#0033A0"/>
                <polygon id="svg_12" points="402.6000060558319,40 422.80001826286315,40 422.80001826286315,32.80000305175781 402.6000060558319,32.80000305175781 402.6000060558319,26.800003051757812 426.4999999523163,26.800003051757812 426.30001826286315,18.399993896484375 391.9999999523163,18.399993896484375 391.9999999523163,55.20001220703125 427.30001826286315,55.20001220703125 427.4999999523163,46.899993896484375 402.6000060558319,46.899993896484375 " fill="#0033A0"/>
                <polygon id="svg_13" points="337.7000121593475,18.399993896484375 337.4000243663788,27.100006103515625 351.4999999523163,27.100006103515625 351.4999999523163,55.20001220703125 362.2000121593475,55.20001220703125 362.2000121593475,27.100006103515625 376.30001826286315,27.100006103515625 375.9999999523163,18.399993896484375 " fill="#0033A0"/>
                <rect id="svg_14" height="36.8" width="10.9" fill="#0033A0" y="18.4" x="310.2"/>
                <polygon id="svg_15" points="280.1000060558319,36.70001220703125 280.2000121593475,40.600006103515625 280.1000060558319,40.70001220703125 277.30001826286315,37.899993896484375 257.4000243663788,18.399993896484375 248.59999079704284,18.399993896484375 248.59999079704284,55.20001220703125 258.30001826286315,55.20001220703125 258.30001826286315,35.899993896484375 258.2000121593475,31.899993896484375 258.30001826286315,31.800003051757812 261.1000060558319,34.600006103515625 282.80001826286315,55.20001220703125 289.80001826286315,55.20001220703125 289.80001826286315,18.399993896484375 280.1000060558319,18.399993896484375 " fill="#0033A0"/>
                <path id="svg_16" d="m219,39.1c0.2,2.3 -0.7,4.6 -2.4,6.2c-2.2,1.6 -4.9,2.3 -7.5,2.1c-2.7,0.2 -5.4,-0.5 -7.7,-2.1c-1.7,-1.6 -2.6,-3.9 -2.4,-6.2l0,-20.7l-10.7,0l0,20.6c-0.4,4.9 1.6,9.6 5.4,12.7c4.5,3.1 10,4.5 15.4,4.2c5.4,0.4 10.9,-1.1 15.3,-4.2c3.6,-3.2 5.5,-7.9 5,-12.7l0,-20.6l-10.5,0l0,20.7l0.1,0z" fill="#0033A0"/>
            </g>
            <path id="svg_17" d="m590.1,185.3c0,-2.8 2.3,-5 5,-5s5,2.3 5,5s-2.3,5 -5,5s-5,-2.2 -5,-5zm9.1,0c0,-2.3 -1.9,-4.2 -4.2,-4.2s-4.2,1.9 -4.2,4.2c0,2.3 1.9,4.2 4.2,4.2s4.2,-1.8 4.2,-4.2l0,0zm-1.9,2.7l-0.9,0l-1.6,-2.5l-0.9,0l0,2.5l-0.6,0l0,-5.3l2.4,0c1,0 1.9,0 1.9,1.4c0,1.4 -0.8,1.5 -1.7,1.5l1.4,2.4zm-2.5,-3.3c0.7,0 1.9,0 1.9,-0.7s-0.8,-0.7 -1.3,-0.7l-1.5,0l0,1.4l0.9,0z" fill="#69B3E7"/>
            <path id="svg_18" d="m565,190.9c-6.8,0.2 -13.5,-1.3 -19.6,-4.3l1.7,-13.2c5.5,2.9 11.6,4.4 17.9,4.4c6.4,0 9.1,-2.6 9.1,-6.3c0,-10.1 -29,-4.3 -29,-26.2c0,-11.3 7.6,-19.4 23.7,-19.4c6.1,0 12.1,1.1 17.8,3.4l-1.4,13.3c-5.3,-2.1 -11,-3.1 -16.7,-3.2c-5,0 -8.1,2.1 -8.1,5.3c0,9.5 28.6,3.8 28.6,25.5c-0.2,12.3 -7,20.7 -24,20.7z" fill="#69B3E7"/>
            <path id="svg_19" d="m531.8,167.8c0,15.1 -8.6,23.2 -26.4,23.2c-17.8,0 -26.4,-8.4 -26.4,-23.2l0,-40.8l16,0l0,40.2c0,6.2 3.3,9.5 10.4,9.5s10.3,-3 10.3,-9.5l0,-40.2l16,0l0.1,40.8z" fill="#69B3E7"/>
            <path id="svg_20" d="m446.1,189.7l0,-80.5l16.4,0l0,80.5l-16.4,0z" fill="#69B3E7"/>
            <path id="svg_21" d="m401.7,164.5l-10.4,0l0,25.1l-17.5,0l0,-77.5l27.8,0c21.5,0 30.2,8.4 30.2,26.6c0.2,16.4 -8.4,25.8 -30.1,25.8zm0,-37.8l-10.4,0l0,23.7l10.4,0c8.6,0 12.3,-2.2 12.3,-11.9c0,-9.6 -3.3,-11.8 -12.3,-11.8z" fill="#69B3E7"/>
            <path id="svg_22" d="m311.9,157.2c0,-19.3 8.5,-30.2 25.5,-30.2c14.6,0 24.3,8.7 24.3,28.4c0,1.6 0,3.4 0,4.7l-39.5,0c0.6,16.2 6.5,21.8 19.8,21.8c5.8,0 11.6,-1.3 16.7,-3.9l1.1,8.2c-5.9,3.1 -12.4,4.7 -19,4.6c-20.5,0.1 -28.9,-10.5 -28.9,-33.6zm40.7,-3.7c0,-13 -6.2,-18 -15.1,-18c-10.4,0 -15.1,5.7 -15.7,18l30.8,0z" fill="#0033A0"/>
            <path id="svg_23" d="m270.3,162.8c-3,0.8 -4.7,2.5 -4.7,4.5s1.7,3.8 5.4,4.2l15.1,1.2c15.1,1.3 19.8,6.2 19.8,15.1c0,11.3 -7,18.5 -26.3,18.5c-16.6,0 -23.7,-6.6 -23.7,-16.2c0.1,-4.6 2.3,-8.8 6,-11.5c-3.1,-1.7 -5.1,-5 -5,-8.6c0.3,-4.5 3.3,-8.3 7.6,-9.5l0,0c-5,-3.1 -7.8,-8.7 -7.3,-14.5c0,-11.4 6.1,-18.4 21.8,-18.4c5.3,-0.2 10.5,1.1 15.1,3.8l10.1,-4l2.2,5l-7.4,5c1.2,2.7 1.7,5.6 1.7,8.5c0,11.7 -5.7,18.2 -21.7,18.2c-3.1,-0.1 -5.9,-0.5 -8.7,-1.3zm-0.9,17.3c-3,1.9 -4.8,5.1 -5,8.6c0,6.2 4.3,9.7 15.1,9.7c13.9,0 17.5,-3.8 17.5,-9.4c0,-4.4 -2.3,-6.6 -12.4,-7.5l-15.2,-1.4zm-2.6,-34.3c0,8.7 5,10.8 12,10.8c9.5,0 12.4,-3.5 12.4,-10.8c0,-8 -3.6,-10.9 -12.2,-10.9s-12.2,3.4 -12.2,10.8l0,0.1z" fill="#0033A0"/>
            <path id="svg_24" d="m233.7,182.1l-0.3,0c-4.3,5.7 -11.1,8.9 -18.3,8.6c-11.3,0 -19,-5.9 -19,-19.8c0,-11.6 7.4,-18.7 22.1,-18.7c4.8,0 9.6,0.8 14.2,2.4l0,-6.2c0,-9.7 -4.3,-13.1 -14.4,-13.1c-6,-0.1 -11.9,1.1 -17.3,3.7l-1,-8.1c6.3,-2.8 13.2,-4.2 20.1,-4c16.2,0 22.3,6.8 22.3,23l0,39.8l-7.7,0l-0.7,-7.6zm-1.3,-20.5c-3.9,-1.7 -8.1,-2.5 -12.3,-2.3c-10.1,0 -14.7,4.1 -14.7,11.5c0,8.8 5.3,11.8 12.4,11.8c7.1,0 14.6,-5 14.6,-10.3l0,-10.7z" fill="#0033A0"/>
            <path id="svg_25" d="m137.9,157.2c0,-19.3 8.5,-30.2 25.5,-30.2c14.7,0 24.3,8.7 24.3,28.4c0,1.6 0,3.4 0,4.7l-39.5,0c0.5,16.2 6.5,21.8 19.7,21.8c5.8,0 11.6,-1.3 16.7,-3.9l1.2,8.2c-5.9,3.1 -12.4,4.7 -19,4.6c-20.5,0.1 -28.9,-10.5 -28.9,-33.6zm40.7,-3.7c0,-13 -6.3,-18 -15.1,-18c-10.5,0 -15.1,5.7 -15.7,18l30.8,0z" fill="#0033A0"/>
            <path id="svg_26" d="m114.9,189.7l0,-81.5l9.8,0l0,81.5l-9.8,0z" fill="#0033A0"/>
            <path id="svg_27" d="m94.5,117.5c-4.2,0 -6.3,-1.3 -6.3,-5s2.1,-5 6.3,-5c4.2,0 6.3,1.9 6.3,5c0,3.2 -2.1,5 -6.3,5zm-5.1,72l0,-61.1l10.1,0l0,61.3l-10.1,-0.2z" fill="#0033A0"/>
            <path id="svg_28" d="m12,112.2l22.2,54.7l3,7.7l0.3,0l2.9,-7.7l22.2,-54.8l11.9,0l0,77.5l-9.4,0l0,-51.3l0,-8.3l-0.4,0l-3,7.6l-21,51.9l-7.4,0l-20.9,-51.5l-3,-7.8l0,0l0,8.3l0,51.1l-9.4,0l0,-77.5l12,0l0,0.1z" fill="#0033A0"/>
        </g>
    </g>
</svg>
