<svg width="240" height="121" xmlns="http://www.w3.org/2000/svg">

  <g id="g96">
   <path fill="#76848F" id="path12" d="m199.86,110.88612c0,4.58 -1.58,6.71 -4.97,6.71c-3.22,0 -4.59,-2.01 -4.59,-6.71l0,-11.19l-3.45,0l0,11.19c0,6.43 2.66,9.7 7.9,9.7c5.51,0 8.54,-3.44 8.54,-9.7l0,-11.19l-3.42,0l0,11.19l-0.01,0z" class="st0"/>
   <path fill="#76848F" id="path14" d="m219.71,109.28612c1.35,-0.92 2.14,-2.48 2.14,-4.29c0,-3.37 -2.29,-5.3 -6.27,-5.3l-9.31,0l0,1.94l2.24,0.64l0,17.92l7.6,0c4.14,0 6.71,-2.29 6.71,-5.97c0,-2.35 -1.15,-4.15 -3.11,-4.94m-4.55,-0.97l-3.23,0l0,-5.72l3.23,0c1.32,0 2.22,0.26 2.75,0.79c0.45,0.46 0.66,1.16 0.65,2.13c-0.02,1.86 -1.17,2.8 -3.4,2.8m-3.23,2.71l4.12,0c1.54,0 3.37,0.53 3.37,3.04c0,2.24 -1.2,3.23 -3.9,3.23l-3.59,0l0,-6.27z" class="st0"/>
   <rect fill="#76848F" id="rect16" height="0.48" width="223.09" class="st0" y="81.86611" x="0"/>
   <path fill="#76848F" id="path18" d="m2.96,120.20612l3.42,0l0,-7.63l3.68,0c3.89,0 6.41,-2.55 6.41,-6.49c0,-3.88 -2.52,-6.38 -6.41,-6.38l-9.36,0l0,1.94l2.26,0.64l0,17.92zm6.46,-17.6c1.2,0 2.12,0.31 2.73,0.93c0.59,0.59 0.88,1.45 0.87,2.55c0.01,1.15 -0.29,2.05 -0.89,2.66c-0.61,0.62 -1.52,0.93 -2.7,0.93l-3.04,0l0,-7.08l3.03,0l0,0.01z" class="st0"/>
   <path fill="#76848F" id="path20" d="m34.29,105.84612c0,-3.78 -2.47,-6.13 -6.44,-6.13l-9.39,0l0,1.94l2.27,0.66l0,17.9l3.42,0l0,-8.23l3.29,0l4.01,8.23l3.92,0l-4.61,-8.88c2.21,-0.99 3.56,-3.06 3.53,-5.49m-10.14,-3.24l3.1,0c2.42,0 3.59,1.06 3.59,3.23c0,2.22 -1.21,3.34 -3.59,3.34l-3.1,0l0,-6.57z" class="st0"/>
   <rect fill="#76848F" id="rect22" height="20.5" width="3.42" class="st0" y="99.70611" x="38.32"/>
   <polygon fill="#76848F" id="polygon24" points="48.379996779296874,99.70610177516937 44.65999555859375,99.70610177516937 52.08999586376953,120.20610177516937 55.44999647412109,120.20610177516937 62.819999220703124,99.70610177516937 59.29999494824219,99.70610177516937 53.83999586376953,115.70610177516937 " class="st0"/>
   <rect fill="#76848F" id="rect26" height="20.5" width="3.42" class="st0" y="99.70611" x="65.84001"/>
   <polygon fill="#76848F" id="polygon28" points="73.99999189648437,120.20610177516937 86.92000532421875,120.20610177516937 86.92000532421875,117.306107878685 77.42000532421875,117.306107878685 77.42000532421875,99.70610177516937 73.99999189648437,99.70610177516937 " class="st0"/>
   <polygon fill="#76848F" id="polygon30" points="101.51000166210937,108.576127409935 93.57999372753906,108.576127409935 93.57999372753906,102.60612618923187 102.84000349316406,102.60612618923187 102.84000349316406,99.70610177516937 87.88999128613281,99.70610177516937 87.88999128613281,101.64610421657562 90.15999555859375,102.28611886501312 90.15999555859375,120.20610177516937 103.31000471386719,120.20610177516937 103.31000471386719,117.306107878685 93.57999372753906,117.306107878685 93.57999372753906,111.47612130641937 101.51000166210937,111.47612130641937 " class="st0"/>
   <path fill="#76848F" id="path32" d="m116.71,112.71612l3.45,0l0,2.92c-1.66,1.31 -3.44,2.03 -5.03,2.03c-3.63,0 -6.16,-3.15 -6.16,-7.66c0,-4.62 2.59,-7.65 6.61,-7.71c0.04,0 0.09,0 0.13,0c1.74,0 3.61,0.56 5.4,1.62l0.34,0.2l0.74,-2.76l-0.19,-0.12c-2.21,-1.33 -4.2,-1.92 -6.47,-1.92c-0.05,0 -0.1,0 -0.16,0c-2.73,0.04 -5.2,1.01 -6.95,2.73c-1.94,1.9 -2.96,4.66 -2.96,7.96c0,6.14 3.75,10.49 9.11,10.58l0.12,0c1.91,0 3.83,-0.64 5.72,-1.89l0.27,1.5l2.49,0l0,-10.17l-6.46,0l0,2.69z" class="st0"/>
   <polygon fill="#76848F" id="polygon34" points="139.6199946430664,111.47612130641937 139.6199946430664,108.576127409935 131.69000196728516,108.576127409935 131.69000196728516,102.60612618923187 140.94000196728516,102.60612618923187 140.94000196728516,99.70610177516937 125.99999189648437,99.70610177516937 125.99999189648437,101.64610421657562 128.2600092915039,102.28611886501312 128.2600092915039,120.20610177516937 141.41000318798828,120.20610177516937 141.41000318798828,117.306107878685 131.69000196728516,117.306107878685 131.69000196728516,111.47612130641937 " class="st0"/>
   <path fill="#76848F" id="path36" d="m167.6,116.06612c-1.7,0.97 -3.56,1.51 -5.24,1.51c-0.08,0 -0.16,0 -0.25,0c-3.98,-0.06 -6.55,-3.05 -6.55,-7.63c0,-4.58 2.48,-7.57 6.31,-7.63c0.07,0 0.15,0 0.22,0c1.54,0 3.29,0.52 5.06,1.51l0.35,0.19l0.67,-2.76l-0.19,-0.11c-2.54,-1.5 -4.83,-1.81 -6.32,-1.81c-2.69,0 -5.12,1.01 -6.84,2.85c-1.81,1.92 -2.77,4.61 -2.77,7.76c0,3.15 0.98,5.84 2.82,7.77c1.76,1.83 4.23,2.85 6.96,2.87l0,0c1.32,0 3.94,-0.24 6.6,-1.87l0.19,-0.12l-0.67,-2.73l-0.35,0.2z" class="st0"/>
   <polygon fill="#76848F" id="polygon38" points="172.08999586376953,120.1961225271225 185.01998853955078,120.1961225271225 185.01998853955078,117.29612863063812 175.5100092915039,117.29612863063812 175.5100092915039,99.6961225271225 172.08999586376953,99.6961225271225 " class="st0"/>
   <path fill="#53626F" clip-rule="evenodd" fill-rule="evenodd" id="path40" d="m44.37,59.88612c-0.51,0.04 -1.01,0.07 -1.52,0.07c-0.58,0 -1.14,-0.05 -1.72,-0.07l1.68,-4.06l1.56,4.06m1.87,4.6c0.3,-0.01 0.76,-0.1 1.22,-0.1c0.46,0 1.04,0.08 1.29,0.1c-0.75,-1.6 -1.83,-4.09 -2.46,-5.53c-0.6,-1.39 -1.59,-3.7 -2.38,-5.96c-0.18,0.05 -0.35,0.08 -0.53,0.08c-0.2,0 -0.36,-0.03 -0.55,-0.08c-0.39,1.35 -1.35,3.5 -3.02,7.23l-1.91,4.26c0.23,-0.03 0.46,-0.1 0.74,-0.1c0.26,0 0.58,0.07 0.79,0.1c0.26,-0.94 0.79,-2.31 1.32,-3.58c0.66,-0.03 1.32,-0.07 1.98,-0.07c0.71,0 1.4,0.03 2.11,0.07l0.69,1.75l0.71,1.83z" class="st1"/>
   <path fill="#53626F" id="path42" d="m50.2,56.97612c0,2.82 0,5.55 -0.18,7.51c0.37,-0.01 0.83,-0.1 1.19,-0.1c0.38,0 0.78,0.08 1.16,0.1c-0.13,-1.34 -0.17,-3.12 -0.17,-5.58c0,-1.67 0,-4.52 0.18,-5.74c-0.4,0.05 -0.81,0.1 -1.17,0.1c-0.25,0 -0.86,-0.06 -1.17,-0.1c0.16,1.6 0.16,2.77 0.16,3.81" class="st2"/>
   <path fill="#53626F" clip-rule="evenodd" fill-rule="evenodd" id="path44" d="m60.01,58.87612c1.5,-0.28 2.87,-1.22 2.87,-3.05c0,-0.69 -0.26,-1.37 -0.76,-1.85c-0.71,-0.68 -1.52,-0.81 -2.59,-0.81c-0.38,0 -2.29,0.08 -2.72,0.08c-0.84,0 -1.28,-0.05 -1.65,-0.08c0.11,2.13 0.11,2.36 0.11,4.52c0,3.19 -0.02,3.55 -0.15,6.8c0.36,-0.05 0.76,-0.1 1.14,-0.1c0.41,0 0.78,0.07 1.11,0.1c0,-0.43 -0.07,-2.56 -0.07,-3.04l0,-2.34l0.4,0c0.89,1.25 1.91,2.71 2.75,4.01c0.25,0.38 0.61,0.99 0.86,1.37c0.5,-0.06 0.7,-0.1 1.34,-0.1c0.6,0 1.01,0.05 1.47,0.1c-1.04,-1.3 -1.48,-1.88 -2.79,-3.71c-0.25,-0.35 -0.61,-0.89 -0.86,-1.24l-0.46,-0.66m-2.71,-4.82c0.25,-0.02 0.86,-0.08 1.17,-0.08c0.54,0 1.09,0.08 1.54,0.42c0.58,0.43 0.69,1.02 0.69,1.71c0,1.07 -0.61,2.28 -2.26,2.28c-0.43,0 -0.83,-0.03 -1.14,-0.05l0,-4.28z" class="st1"/>
   <path fill="#53626F" id="path46" d="m68.61,60.62612c-0.77,-2.29 -1.85,-5.51 -2.36,-7.46c-0.41,0.07 -0.77,0.1 -1.15,0.1c-0.4,0 -0.96,-0.06 -1.29,-0.1c0.67,1.78 1.25,3.37 1.7,4.62c0.76,2.15 1.25,3.63 1.85,5.45l0.41,1.25c0.23,-0.05 0.49,-0.1 0.68,-0.1c0.18,0 0.35,0.03 0.63,0.1c0.26,-0.86 0.58,-1.91 0.81,-2.59c0.64,-1.88 0.72,-2.15 1.57,-4.49l0.49,-1.37c0.18,0.53 0.49,1.37 0.67,1.9c0.18,0.51 1.02,3.04 1.22,3.6c0.27,0.74 0.33,0.96 0.94,2.95c0.15,-0.01 0.46,-0.1 0.71,-0.1c0.23,0 0.41,0.05 0.66,0.1c0.63,-1.96 0.69,-2.16 1.62,-4.8c0.91,-2.58 1.47,-4.04 2.46,-6.52c-0.25,0.07 -0.49,0.1 -0.74,0.1c-0.31,0 -0.58,-0.05 -0.76,-0.1c-0.6,2.15 -0.89,3.19 -1.37,4.6c-0.78,2.31 -0.88,2.58 -1.36,3.83c-0.53,-1.42 -1.04,-2.86 -1.52,-4.31c-0.26,-0.79 -1.27,-4.09 -1.29,-4.13c-0.23,0.05 -0.4,0.1 -0.73,0.1c-0.29,0 -0.51,-0.06 -0.72,-0.1c-0.5,2.01 -2.25,6.87 -2.41,7.31l-0.41,1.08l-0.31,-0.92" class="st2"/>
   <path fill="#53626F" clip-rule="evenodd" fill-rule="evenodd" id="path48" d="m85.26,59.88612c-0.51,0.04 -1,0.07 -1.52,0.07c-0.58,0 -1.14,-0.05 -1.71,-0.07l1.68,-4.06l1.55,4.06m1.87,4.6c0.3,-0.01 0.76,-0.1 1.22,-0.1c0.46,0 1.04,0.08 1.29,0.1c-0.74,-1.6 -1.83,-4.09 -2.46,-5.53c-0.59,-1.39 -1.58,-3.7 -2.38,-5.96c-0.18,0.05 -0.35,0.08 -0.53,0.08c-0.2,0 -0.37,-0.03 -0.55,-0.08c-0.4,1.35 -1.35,3.5 -3.02,7.23l-1.91,4.26c0.23,-0.03 0.46,-0.1 0.74,-0.1c0.27,0 0.58,0.07 0.79,0.1c0.26,-0.94 0.79,-2.31 1.32,-3.58c0.66,-0.03 1.32,-0.07 1.98,-0.07c0.71,0 1.4,0.03 2.11,0.07l0.69,1.75l0.71,1.83z" class="st1"/>
   <path fill="#53626F" id="path50" d="m94.06,60.06612c0,-0.15 0.1,-0.33 0.21,-0.53c0.69,-1.19 1.34,-2.43 2.08,-3.62c0.25,-0.4 1.45,-2.31 1.7,-2.76c-0.18,0.07 -0.36,0.1 -0.69,0.1c-0.37,0 -0.69,-0.05 -0.96,-0.1c-1.19,2.61 -1.45,3.17 -2.85,5.58c-1.4,-2.46 -2.03,-3.76 -2.89,-5.58c-0.48,0.08 -0.96,0.1 -1.36,0.1c-0.36,0 -0.74,-0.03 -1.35,-0.1c0.86,1.44 2.26,3.72 3.1,5.17l0.97,1.69c0,1.02 -0.05,3.18 -0.1,4.47c0.31,-0.03 0.77,-0.1 1.11,-0.1c0.38,0 0.76,0.07 1.14,0.1c-0.07,-1.53 -0.12,-2.42 -0.12,-3.81l0,-0.61" class="st2"/>
   <path fill="#53626F" id="path52" d="m99.01,62.01612c-0.08,0.79 -0.1,1.01 -0.38,1.86c0.6,0.3 1.67,0.84 3.09,0.84c3.02,0 4.19,-1.93 4.19,-3.61c0,-0.46 -0.11,-1.44 -0.81,-2.18c-0.48,-0.53 -0.97,-0.71 -2.24,-1.21c-1.45,-0.56 -2.29,-0.89 -2.29,-2.09c0,-0.98 0.64,-1.79 1.95,-1.79c1.04,0 1.91,0.5 2.16,1.44l0.23,0c0.15,-0.63 0.18,-0.76 0.51,-1.57c-0.81,-0.36 -1.53,-0.67 -2.74,-0.67c-2.99,0 -3.85,1.85 -3.85,3.3c0,1.37 0.48,2.21 2.08,2.92c0.46,0.2 1.24,0.5 1.7,0.69c0.32,0.13 1.36,0.59 1.36,1.9c0,1.19 -0.86,2.06 -2.16,2.06c-0.98,0 -1.8,-0.25 -2.56,-1.9l-0.24,0" class="st2"/>
   <path fill="#63003D" clip-rule="evenodd" fill-rule="evenodd" id="path54" d="m7.3,31.50612c0,-12.48 6.69,-15.84 11.74,-15.84c8.12,0 11.64,6.74 11.64,13.91c0,4.11 -0.49,7.97 -2.53,11.09c-2.03,3.12 -5.39,5 -9.06,5c-9.16,0.01 -11.79,-8.71 -11.79,-14.16m24.66,25.51c1.49,-1.04 3.82,-2.33 5.5,-3.07l-11.19,-6.93c6.88,-2.42 11.19,-8.57 11.19,-16.93c0,-11.88 -9.06,-16.94 -18.32,-16.94c-10,0 -18.62,5.55 -18.62,18.12c0,2.67 0.6,7.72 4.76,11.93c4.31,4.36 9.41,5 13.72,5c0.55,0 1.09,0 1.63,-0.05l11.33,8.87z" class="st3"/>
   <path fill="#63003D" clip-rule="evenodd" fill-rule="evenodd" id="path56" d="m60.56,33.68612c-1.54,0.1 -3.02,0.2 -4.56,0.2c-1.73,0 -3.42,-0.15 -5.15,-0.2l5.05,-12.18l4.66,12.18m5.6,13.82c0.89,-0.05 2.28,-0.3 3.66,-0.3c1.39,0 3.12,0.25 3.87,0.3c-2.23,-4.81 -5.5,-12.28 -7.38,-16.59c-1.78,-4.16 -4.75,-11.09 -7.13,-17.88c-0.54,0.15 -1.04,0.25 -1.58,0.25c-0.59,0 -1.09,-0.1 -1.63,-0.25c-1.19,4.06 -4.07,10.5 -9.07,21.69l-5.74,12.78c0.69,-0.1 1.39,-0.3 2.23,-0.3c0.79,0 1.73,0.2 2.38,0.3c0.79,-2.83 2.38,-6.94 3.96,-10.75c1.98,-0.1 3.96,-0.2 5.94,-0.2c2.13,0 4.21,0.1 6.34,0.2l2.08,5.25l2.07,5.5z" class="st3"/>
   <path fill="#63003D" id="path58" d="m88.13,22.39612c0,-1.88 0.05,-3.77 0.1,-5.55c3.42,0 6.93,0.05 9.86,0.35c-0.15,-0.79 -0.25,-1.24 -0.25,-1.78c0,-0.4 0.1,-1.04 0.25,-1.88c-4.76,0.24 -9.11,0.3 -13.22,0.3c-3.81,0 -9.31,-0.05 -13.22,-0.3c0.15,0.59 0.25,1.24 0.25,1.83c0,0.59 -0.1,1.24 -0.25,1.83c2.53,-0.25 7.28,-0.35 7.73,-0.35l2.48,0c0.05,1.93 0.1,3.67 0.1,5.5l0.05,13.81c0,3.77 -0.3,7.58 -0.5,11.34c1.79,-0.2 2.53,-0.3 3.37,-0.3c0.59,0 2.18,0.15 3.62,0.3c-0.15,-1.39 -0.35,-3.02 -0.35,-6.79l0,-18.31" class="st4"/>
   <path fill="#63003D" clip-rule="evenodd" fill-rule="evenodd" id="path60" d="m115.7,33.68612c-1.53,0.1 -3.02,0.2 -4.55,0.2c-1.74,0 -3.42,-0.15 -5.15,-0.2l5.05,-12.18l4.65,12.18m5.59,13.82c0.89,-0.05 2.27,-0.3 3.66,-0.3c1.38,0 3.12,0.25 3.86,0.3c-2.23,-4.81 -5.5,-12.28 -7.38,-16.59c-1.78,-4.16 -4.76,-11.09 -7.13,-17.88c-0.55,0.15 -1.04,0.25 -1.58,0.25c-0.6,0 -1.09,-0.1 -1.64,-0.25c-1.18,4.06 -4.06,10.5 -9.06,21.69l-5.74,12.78c0.69,-0.1 1.39,-0.3 2.23,-0.3c0.79,0 1.73,0.2 2.38,0.3c0.79,-2.83 2.38,-6.94 3.96,-10.75c1.98,-0.1 3.96,-0.2 5.94,-0.2c2.13,0 4.21,0.1 6.34,0.2l2.08,5.25l2.08,5.5z" class="st3"/>
   <path fill="#63003D" clip-rule="evenodd" fill-rule="evenodd" id="path62" d="m148.76,30.66612c4.5,-0.84 8.61,-3.66 8.61,-9.16c0,-2.08 -0.79,-4.11 -2.28,-5.55c-2.13,-2.03 -4.56,-2.43 -7.78,-2.43c-1.14,0 -6.88,0.24 -8.17,0.24c-2.53,0 -3.81,-0.15 -4.95,-0.24c0.35,6.39 0.35,7.08 0.35,13.57c0,9.56 -0.05,10.64 -0.44,20.4c1.09,-0.15 2.28,-0.3 3.41,-0.3c1.24,0 2.33,0.2 3.32,0.3c0,-1.29 -0.2,-7.68 -0.2,-9.11l0,-7.03l1.19,0c2.67,3.76 5.74,8.12 8.27,12.03c0.74,1.14 1.83,2.97 2.57,4.11c1.49,-0.2 2.08,-0.3 4.01,-0.3c1.78,0 3.02,0.15 4.41,0.3c-3.12,-3.91 -4.45,-5.65 -8.36,-11.14c-0.74,-1.04 -1.84,-2.67 -2.58,-3.72l-1.38,-1.97m-8.12,-14.46c0.74,-0.05 2.57,-0.25 3.51,-0.25c1.63,0 3.27,0.25 4.61,1.24c1.73,1.29 2.08,3.07 2.08,5.15c0,3.22 -1.83,6.83 -6.78,6.83c-1.29,0 -2.48,-0.1 -3.42,-0.15l0,-12.82z" class="st3"/>
   <path fill="#76848F" id="path64" d="m222.79,30.76612c0,0.32 -4.49,0.62 -10.89,0.87c-1.13,-0.64 -1.98,-1.29 -2.61,-1.84c7.76,0.27 13.5,0.61 13.5,0.97" class="st0"/>
   <path fill="#76848F" id="path66" d="m218.19,19.95612c0,0.27 -3.76,0.52 -9.13,0.73c0.77,-0.45 1.56,-0.9 2.39,-1.36c4.07,0.2 6.74,0.41 6.74,0.63" class="st0"/>
   <path fill="#76848F" id="path68" d="m178.17,43.20612c-2.49,0.03 -4.67,0.04 -6.37,0.04c-2.45,0 -4.44,-0.76 -4.44,-1.69c0,-0.93 1.98,-1.69 4.44,-1.69c2.17,0 5.11,0.02 8.49,0.06c-1.3,1.88 -1.93,3.02 -1.98,3.08c-0.05,0.07 -0.09,0.13 -0.14,0.2" class="st0"/>
   <path fill="#76848F" id="path70" d="m179.51,45.46612c0.82,0.99 1.61,1.82 2.66,2.73c0,0 0.4,0.57 1.6,0.08c1.22,-0.5 2.26,-1.18 3.44,-2.75c3.42,0.06 7.05,0.13 10.62,0.21c0.29,0.43 0.89,1.31 1.63,2.4c-9.95,0.26 -20.75,0.41 -26.29,0.41c-2.31,0 -4.18,-0.71 -4.18,-1.59c0,-0.88 1.87,-1.59 4.18,-1.59c1.68,0 3.85,0.01 6.34,0.04c-0.01,0.03 0,0.06 0,0.06" class="st0"/>
   <path fill="#76848F" id="path72" d="m175.66,53.76612c-2.04,0 -3.7,-0.63 -3.7,-1.4c0,-0.78 1.66,-1.41 3.7,-1.41c5.41,0 16.51,0.16 26,0.43c0.46,0.66 0.92,1.31 1.35,1.91c-9.78,0.28 -21.68,0.47 -27.35,0.47" class="st0"/>
   <path fill="#76848F" id="path74" d="m207.21,58.27612c-7.98,0.35 -21.7,0.58 -27.4,0.58c-1.6,0 -2.91,-0.5 -2.91,-1.1c0,-0.61 1.3,-1.11 2.91,-1.11c5.45,0 18.26,0.21 26.34,0.54c0.36,0.39 0.72,0.76 1.06,1.09" class="st0"/>
   <path fill="#76848F" id="path76" d="m186.4,61.27612c4.7,0 19.03,0.35 19.03,0.78c0,0.44 -14.33,0.79 -19.03,0.79c-0.92,0 -1.66,-0.35 -1.66,-0.79c0,-0.43 0.74,-0.78 1.66,-0.78" class="st0"/>
   <path fill="#76848F" id="path78" d="m186.45,32.29612c-5.92,0.1 -11.23,0.16 -14.65,0.16c-2.45,0 -4.44,-0.76 -4.44,-1.69c0,-0.93 1.98,-1.69 4.44,-1.69c3.97,0 10.49,0.08 17.56,0.21c-1.05,1.03 -2.02,2.04 -2.91,3.01" class="st0"/>
   <path fill="#76848F" id="path80" d="m215.51,24.74612c3.47,0.19 5.66,0.39 5.66,0.61c0,0.24 -2.64,0.46 -6.73,0.67c0.86,-0.67 1.05,-1.24 1.07,-1.28" class="st0"/>
   <path fill="#76848F" id="path82" d="m173.16,26.93612c-2.31,0 -4.18,-0.71 -4.18,-1.59c0,-0.88 1.87,-1.59 4.18,-1.59c4.73,0 13.31,0.12 21.91,0.3c-1.05,0.89 -2.05,1.77 -3,2.63c-7.55,0.16 -14.73,0.25 -18.91,0.25" class="st0"/>
   <path fill="#76848F" id="path84" d="m198.88,21.00612c-8.8,0.22 -18.33,0.36 -23.22,0.36c-2.04,0 -3.7,-0.63 -3.7,-1.41c0,-0.78 1.66,-1.41 3.7,-1.41c5.4,0 16.46,0.17 25.95,0.44c-0.47,0.35 -0.95,0.69 -1.43,1.05c-0.44,0.33 -0.87,0.65 -1.3,0.97" class="st0"/>
   <path fill="#76848F" id="path86" d="m179.81,15.66612c-1.61,0 -2.91,-0.49 -2.91,-1.11c0,-0.61 1.3,-1.11 2.91,-1.11c6.05,0 21.15,0.26 28.81,0.65c-0.49,0.32 -0.97,0.65 -1.47,0.99c-7.98,0.35 -21.65,0.58 -27.34,0.58" class="st0"/>
   <path fill="#76848F" id="path88" d="m171.34,37.87612c-2.49,0 -4.52,-0.77 -4.52,-1.72c0,-0.95 2.03,-1.72 4.52,-1.72c3.13,0 7.81,0.05 13.1,0.13c-1,1.17 -1.86,2.26 -2.6,3.22c-4.21,0.06 -7.9,0.09 -10.5,0.09" class="st0"/>
   <path fill="#76848F" id="path90" d="m184.74,10.26612c0,-0.43 0.74,-0.79 1.66,-0.79c4.7,0 19.03,0.35 19.03,0.79c0,0.43 -14.33,0.79 -19.03,0.79c-0.92,-0.01 -1.66,-0.36 -1.66,-0.79" class="st0"/>
   <path fill="#63003D" id="path92" d="m223.26,34.88612c0.03,0.86 0.03,1.71 -0.02,2.54c-8.34,0.33 -16.24,0.83 -16.24,1.4c0,0.55 7.73,1.05 15.97,1.38c-0.15,0.95 -0.33,1.89 -0.56,2.8c-8.13,0.33 -15.67,0.82 -15.67,1.37c0,0.53 7.04,1.01 14.84,1.34c-0.36,0.99 -0.77,1.96 -1.22,2.89c-6.69,0.32 -12.22,0.75 -12.22,1.22c0,0.44 4.83,0.84 10.92,1.16c-0.34,0.56 -0.7,1.1 -1.07,1.62c-0.39,0.56 -0.82,1.12 -1.28,1.67c-3.81,0.29 -6.42,0.62 -6.42,0.97c0,0.3 1.87,0.59 4.76,0.84c-1.58,1.56 -3.44,3.01 -5.63,4.28c0,0 -2.58,-2.23 -4.71,-4.82c-1.9,-2.32 -5.93,-8.42 -6.88,-9.79c-0.95,-1.37 -1.57,-1.77 -2.69,-1.37c-1.48,0.53 -3.22,0.79 -3.75,0.79c-0.53,0 -0.82,-0.21 0.07,-0.56c0.89,-0.36 4.4,-2.02 6.13,-5.45c1.94,-3.86 0.23,-9.19 0.23,-9.19c-0.65,2.85 -2.14,3.91 -2.14,3.91c0.48,-2.64 -0.04,-5.05 -1.35,-6.73l-0.73,3.35c0,0 -0.46,-0.02 -1.58,0.93c-1.13,0.95 -1.44,2.33 -1.44,2.33c0.89,0.36 1.96,-0.53 1.96,-0.53c-1.36,5.1 -3.32,9.25 -4.75,11.45c-1.42,2.2 -2.6,3.03 -4.02,3.6c-1.21,0.48 -1.6,-0.08 -1.6,-0.08c-1.05,-0.91 -1.84,-1.74 -2.66,-2.73c0,0 -0.06,-0.12 0.16,-0.11c0.58,0.01 1.63,-1 1.86,-1.41c0.26,-0.48 0.23,-0.84 0.1,-0.87c-0.13,-0.02 -0.35,0.36 -1.48,1.07c-1.13,0.71 -1.64,0.22 -2.02,-0.18c-0.29,-0.31 -0.01,-0.71 0.18,-0.95c0.17,-0.22 6.12,-11.32 21.87,-22.98c20.64,-15.28 33.83,-19.41 34.58,-19.71c0.5,-0.2 1.31,-0.46 1.5,-0.27c0.21,0.21 0.31,0.38 0.28,0.63c-0.02,0.25 -0.16,0.38 -1.11,0.8c-7.93,3.49 -17.17,9.31 -22.43,12.7c-6.47,3.15 -12.64,7.65 -12.86,7.75c-0.5,0.31 -0.13,0.76 0.17,0.57c10.91,-7.26 23.71,-12.2 37.85,-16.26c0.68,-0.19 1.05,-0.19 1.16,-0.04c0.12,0.17 0.18,0.35 0.2,0.56c0.02,0.26 -0.2,0.39 -0.78,0.62c-15.19,5.64 -26.39,10.89 -33.59,15.73c0,0 -0.75,0.45 -0.76,0.97c0,0.2 0.4,0.22 0.4,0.22c3.61,0.06 8.42,0.28 10.72,0.41c0,0 -0.32,1.16 -2.52,2.1c-1.7,0.72 -3.27,0.61 -4.82,0.62c-0.35,0 -0.64,0.34 -0.36,0.71c0.13,0.19 3.44,5.51 15.45,6.73" class="st4"/>
   <path fill="#63003D" id="path94" d="m113.17,62.70612l-2.03,0c0,0 -0.28,-1.25 0.46,-1.73c0.74,-0.48 1.57,-0.86 1.57,-0.86l0,2.59m9.66,-4.69c0,0 -1.23,0.71 -2.02,1.41c-0.78,0.69 0.16,0.95 0.16,0.95l0,2.33l-5.91,0l0,-8.15c0,0 -2.15,1.98 -2.35,2.25c-0.21,0.28 0.51,0.53 0.51,0.53l-0.12,0.77c0,0 -0.86,0.44 -1.9,1.15c-1.04,0.69 -1.8,1.58 -1.8,2.2c0,0.62 -0.26,3.03 -0.26,3.03l13.69,0l0,-6.47zm-12.23,-2.98c0.67,0 1.15,-0.27 1.15,-0.8c0,-0.54 -0.32,-0.91 -1.15,-0.91c-0.74,0 -0.94,0.32 -0.94,0.91c0,0.59 0.26,0.8 0.94,0.8m2.52,0c0.68,0 1.14,-0.27 1.14,-0.8c0,-0.54 -0.31,-0.91 -1.14,-0.91c-0.75,0 -0.94,0.32 -0.94,0.91c0,0.59 0.26,0.8 0.94,0.8m3.81,10.15c-0.73,0 -0.94,0.32 -0.94,0.91c0,0.59 0.26,0.8 0.94,0.8c0.67,0 1.15,-0.27 1.15,-0.8c0.01,-0.54 -0.31,-0.91 -1.15,-0.91m2.62,0c-0.74,0 -0.94,0.32 -0.94,0.91c0,0.59 0.27,0.8 0.94,0.8c0.69,0 1.15,-0.27 1.15,-0.8c0,-0.54 -0.31,-0.91 -1.15,-0.91m29.5,-10.31c0.68,0 1.16,-0.26 1.16,-0.8c0,-0.54 -0.31,-0.91 -1.16,-0.91c-0.74,0 -0.93,0.32 -0.93,0.91c0,0.6 0.26,0.8 0.93,0.8m2.62,0c0.68,0 1.15,-0.26 1.15,-0.8c0,-0.54 -0.31,-0.91 -1.15,-0.91c-0.74,0 -0.93,0.32 -0.93,0.91c-0.01,0.6 0.25,0.8 0.93,0.8m7.22,0.22c-0.37,0.32 -0.26,0.7 0.21,0.64l0,8.76l1.94,0l0,-10.9c0,0.01 -1.79,1.19 -2.15,1.5m-7.8,4.91l-1.26,0c0,-0.69 1.26,-1.07 1.26,-1.07l0,1.07zm-8.26,1.45c0,0.31 -0.02,0.83 -0.03,1.25l-10.96,0l0,-1.93c0.29,-0.74 0.77,-0.83 1.52,-0.83l8.01,0c1.72,0 1.46,0.92 1.46,1.51m12.81,-5.72l0,6.97l-2.61,0l0,-6.33c0,0 -0.53,0.2 -1.27,0.53c-0.72,0.33 -3.35,1.4 -3.35,2.83l0,1.67l2.68,0l0,1.3l-6.34,0c0.01,-0.31 0.01,-0.75 0.01,-1.41c0,-2.08 -1.77,-3.21 -3.34,-3.21l-7.33,0c-1.29,0 -1.9,0.31 -2.25,0.66l0,-5.36c0,0 -1.14,0.8 -1.98,1.44c-0.84,0.64 0,1.07 0,1.07l0,6.8l-2.4,0l-0.05,-5.84c0,0 -1.67,1.22 -2.15,1.59c-0.47,0.37 -0.21,0.7 0.32,0.7c0,0 -0.1,4.31 -0.1,5.33c0,1.03 -0.85,2.2 -2.63,1.66c0,0 -0.57,0.11 -0.1,0.53c0.47,0.43 1.03,0.75 1.66,0.75c0.63,0 2.94,-0.44 2.94,-2.95l30.23,0l0,-10.87c0,0 -1.78,1.18 -2.14,1.49c-0.38,0.32 -0.27,0.71 0.2,0.65" class="st4"/>
  </g>
</svg>
