<svg
    xmlns="http://www.w3.org/2000/svg"
    xmlns:xlink="http://www.w3.org/1999/xlink"
    width="100%"
    height="100%"
    viewBox="0 0 255.08662 104.66287"
    version="1.1"
>
    <g
        id="layer1"
        transform="translate(-270.21848,-140.30752)">
        <path
            style="clip-rule:nonzero;fill:#eb7f02;fill-opacity:1;fill-rule:nonzero;stroke:none"
            d="m 402.741,155.83695 c 3.24765,0 5.88784,-2.64017 5.88784,-5.88793 0,-3.24776 -2.64019,-5.87689 -5.88784,-5.87689 -3.24792,0 -5.87709,2.62913 -5.88811,5.87689 0,3.24776 2.64019,5.88793 5.88811,5.88793 m 23.48548,51.90879 0.0453,0 c 2.26464,0 4.27506,-0.57444 5.83271,-1.31458 1.56866,-0.75118 2.67327,-1.61283 3.2366,-2.38611 0.34248,-0.50813 0.56333,-1.11571 0.56333,-1.76748 0,-0.48605 -0.1104,-0.98314 -0.34245,-1.48025 -0.57437,-1.13784 -1.78954,-1.69016 -2.86107,-1.71226 -0.19796,0 -0.39762,0.0226 -0.58539,0.0661 -0.58539,0.16583 -0.99432,0.36454 -1.40295,0.49711 -0.41967,0.14366 -0.8617,0.24291 -1.62385,0.24291 -1.24826,0 -1.99964,-0.48602 -2.49653,-0.98314 -0.0876,-0.0995 -0.85066,-1.04944 -1.13798,-2.24249 -0.46378,-1.96632 -0.49715,-4.77221 -0.51921,-6.73852 0.0339,-0.71805 0.0339,-40.38701 0.0339,-41.45854 0,-1.46923 -0.75111,-2.65124 -1.80056,-3.34717 -1.04947,-0.71805 -2.37493,-1.03841 -3.68967,-1.03841 -1.3365,0 -2.68431,0.33142 -3.7448,1.03841 -1.07151,0.68487 -1.86673,1.83375 -1.85571,3.28088 l 0,46.95981 c 0,2.6181 0.74009,5.6891 2.68431,8.14149 1.9332,2.4524 5.09261,4.24196 9.66601,4.24196 m 22.70101,-38.67473 c 2.78385,-3.97686 5.70006,-4.45186 7.06993,-4.46293 l 0,0 c 2.24258,0.0226 4.51826,1.48028 5.16983,4.97106 0.11018,0.5855 0.15542,1.15992 0.15542,1.71224 0,2.40823 -0.92787,4.49607 -2.31979,6.08679 -3.32513,3.6896 -7.95367,4.73907 -12.84749,5.25824 0,-0.4308 0,-0.87266 0,-1.31455 0,-4.30825 0.58569,-9.16881 2.77284,-12.25085 m -7.34624,33.05193 c 3.64556,3.45762 8.61657,5.56758 14.83585,5.56758 l 0.0283,0 c 3.38026,0 6.51734,-0.58548 8.87049,-1.55761 1.17078,-0.49711 2.15408,-1.08259 2.88313,-1.77852 0.71801,-0.69595 1.20415,-1.54656 1.20415,-2.49658 0,-0.14366 0,-0.29825 -0.0453,-0.45293 -0.23189,-1.6128 -1.55764,-2.70644 -3.06016,-2.67329 -0.37555,0 -0.75111,0.0552 -1.12666,0.17669 -1.84497,0.58546 -3.62347,0.90581 -5.79961,0.90581 -0.61847,0 -1.24827,-0.0226 -1.9332,-0.0772 -4.59546,-0.36453 -7.30183,-3.12622 -8.93667,-5.95419 -0.80654,-1.40297 -1.3368,-2.81696 -1.64618,-3.89953 -0.14434,-0.47501 -0.2432,-0.89477 -0.30908,-1.21515 6.28545,-0.26499 11.72052,-0.9942 16.85725,-3.71172 2.62918,-1.46921 5.87683,-3.84426 7.55608,-7.14724 1.04945,-2.14309 1.60176,-4.60652 1.60176,-6.83797 0,-0.707 -0.0566,-1.39189 -0.16696,-2.03259 -1.07153,-6.05363 -6.69438,-10.64909 -15.39918,-10.62701 -6.05383,0 -13.8418,2.38611 -18.59193,9.73224 -1.82264,2.86107 -4.27506,8.35134 -4.27506,15.28872 0,1.65699 0.14434,3.39133 0.46408,5.19196 1.04945,5.34666 3.35821,10.12989 6.99245,13.59859 m -107.70593,3.85532 c 1.04945,0.71804 2.3752,1.03841 3.68964,1.03841 1.3368,0 2.68432,-0.33141 3.75585,-1.03841 1.06049,-0.68491 1.85599,-1.84483 1.84497,-3.2809 0,0 0,-25.68375 0,-25.80526 l 0,0 c 0.0651,-1.9884 0.59641,-4.65068 1.7785,-6.73852 1.19313,-2.0989 2.90519,-3.57917 5.60081,-3.59019 1.23723,0.0113 2.08761,0.39766 2.78357,1.01628 1.03843,0.93898 1.64617,2.50763 1.9663,4.09835 0.30938,1.59075 0.34245,3.17045 0.34245,4.06522 0,0.20973 0,26.1919 0,26.88783 0,1.49134 0.80654,2.67334 1.91115,3.35823 1.11592,0.707 2.50757,1.02737 3.8995,1.02737 1.41399,0 2.83899,-0.33141 3.97697,-1.02737 1.11565,-0.68489 1.97732,-1.83375 1.9663,-3.29194 l 0,-25.82734 c 0.0762,-1.97739 0.60745,-4.63966 1.7785,-6.71644 1.20415,-2.0989 2.91621,-3.57917 5.60081,-3.59019 1.23723,0.0113 2.09893,0.39766 2.79461,1.01628 1.02739,0.93898 1.64615,2.51869 1.95553,4.10941 0.32013,1.59075 0.3535,3.15939 0.3535,4.05416 0,0.20973 0,25.23084 0,26.88783 0,1.49134 0.81728,2.67334 1.92189,3.35823 1.1049,0.707 2.50784,1.02737 3.8995,1.02737 1.41399,0 2.83929,-0.33141 3.96595,-1.02737 1.12667,-0.68489 1.98834,-1.83375 1.97732,-3.29194 l 0,-25.34129 c 0,-6.41819 -1.25931,-11.20142 -3.61218,-14.43812 -2.36419,-3.23671 -5.85474,-4.8164 -9.96435,-4.80534 -3.96568,0 -6.99245,1.91108 -9.11343,4.09835 -1.4584,1.50235 -2.50758,3.12622 -3.20353,4.40766 -0.9833,-2.57391 -2.37523,-4.5844 -4.15373,-5.99838 -2.13202,-1.69018 -4.79427,-2.50763 -7.77692,-2.50763 -5.0816,0.0113 -8.56114,3.10412 -10.69314,5.9542 l 0,-0.25422 c 0,-1.48028 -0.74036,-2.65124 -1.78983,-3.34717 -1.04918,-0.71806 -2.3639,-1.03841 -3.67834,-1.03841 -1.34781,0 -2.69562,0.33142 -3.75611,1.03841 -1.07153,0.68491 -1.85572,1.83377 -1.85572,3.28088 0,0 0,37.81311 0,38.88464 0,1.46923 0.74007,2.65121 1.78954,3.34719 m 72.61049,-45.51271 c -1.04948,-0.71806 -2.36392,-1.03841 -3.68967,-1.03841 -1.33677,0 -2.68431,0.33142 -3.7448,1.03841 -1.07151,0.68491 -1.85599,1.83377 -1.85599,3.28088 0,0 0,37.81311 0,38.88464 0,1.46923 0.74036,2.65121 1.78981,3.34719 1.04918,0.71801 2.37493,1.03841 3.68937,1.03841 1.3368,0 2.68461,-0.33142 3.7451,-1.03841 1.07151,-0.68492 1.86674,-1.84484 1.85572,-3.28091 0,0 0,-37.81308 0,-38.88463 0,-1.48028 -0.74009,-2.65124 -1.78954,-3.34717 m 115.08522,20.04988 c -0.0453,-0.26497 -0.22059,-0.48605 -0.4751,-0.56338 -0.25452,-0.0771 -0.53024,-0.0113 -0.71801,0.18778 0,0 -0.15543,0.17669 -0.48585,0.50815 -0.32042,0.33137 -0.81758,0.82851 -1.46942,1.44713 -1.31444,1.25933 -3.29176,3.05996 -5.90989,5.21409 -1.85601,1.53547 -4.04317,3.24771 -6.55072,5.08148 -0.0566,-0.72907 -0.16674,-1.41399 -0.32042,-2.05469 -0.66288,-2.69542 -2.24259,-4.73905 -4.16475,-6.37398 -2.90516,-2.4524 -6.62791,-4.06523 -9.67676,-5.82165 -1.53559,-0.88375 -2.8834,-1.78956 -3.88846,-2.80589 -1.00533,-1.02735 -1.64615,-2.13204 -1.84497,-3.50182 -0.0452,-0.25395 -0.0566,-0.5192 -0.0566,-0.7843 0,-1.41399 0.54127,-2.89426 1.69,-4.01 0.61876,-0.59652 2.46346,-1.80063 5.07055,-1.80063 3.23663,0 5.97637,1.41399 7.51194,1.41399 1.73411,0.033 3.23662,-0.98316 3.68937,-2.66228 0.0876,-0.33141 0.13303,-0.67385 0.13303,-1.00526 0,-1.91108 -1.59072,-3.6896 -3.75582,-4.2309 0,0 -1.95526,-0.66281 -6.08664,-0.66281 -5.75549,0.0113 -10.47255,1.42503 -13.78637,3.91057 -3.31411,2.48551 -5.18114,6.06467 -5.18114,10.17405 0,1.12678 0.14411,2.29774 0.41997,3.49081 1.24826,5.07046 6.24133,7.82109 10.84781,10.28454 2.3198,1.22619 4.58444,2.38611 6.27443,3.63438 1.71233,1.25935 2.79488,2.56285 3.02707,4.08733 0.0339,0.26497 0.0538,0.51917 0.0538,0.77323 0,1.39191 -0.56333,2.68438 -1.75646,3.68965 -1.20415,1.00524 -3.10426,1.71223 -5.78857,1.75642 l -0.25452,0 c -2.92752,0.0113 -5.43509,-0.83955 -7.08097,-1.5576 -0.71801,-0.34244 -1.45838,-0.50813 -2.15406,-0.50813 -1.74542,-0.0226 -3.20382,1.17096 -3.43572,2.9053 -0.0283,0.16583 -0.0339,0.33141 -0.0339,0.49709 0,1.24831 0.66288,2.27566 1.56869,3.07102 1.36987,1.19304 3.31409,1.99947 5.15879,2.54076 -20.34813,10.17406 -48.60581,19.36497 -84.34208,19.36497 l 0,0.0113 0,-0.0113 c -36.07872,0 -64.54623,-9.36765 -84.92771,-19.66324 4.19785,-0.79536 7.58915,-2.48554 10.11906,-4.78326 3.57908,-3.23669 5.4017,-7.64435 5.39068,-12.21772 0,-1.03841 -0.0875,-2.0989 -0.27714,-3.15939 -0.64055,-3.51287 -2.55169,-6.29666 -5.01513,-8.57229 -3.68967,-3.4245 -8.62758,-5.82165 -12.74794,-8.22986 -2.0548,-1.20408 -3.91052,-2.40819 -5.28039,-3.6896 -1.38102,-1.28143 -2.26475,-2.62913 -2.52975,-4.14255 -0.0765,-0.40872 -0.12171,-0.83955 -0.12171,-1.27039 0,-1.94422 0.75111,-4.021 2.4083,-5.61174 1.64588,-1.59073 4.2199,-2.73961 8.00882,-2.75065 2.05481,0 4.46284,0.34246 7.2467,1.14886 0.80653,0.23189 1.5466,0.3535 2.23154,0.3535 1.91087,0.033 3.33617,-1.02735 3.91052,-2.54075 0.20927,-0.54129 0.32042,-1.08259 0.32042,-1.60178 0,-1.30354 -0.68493,-2.39717 -1.64617,-3.17041 -0.96095,-0.77328 -2.19818,-1.2925 -3.50187,-1.56867 -2.59581,-0.51921 -5.41274,-0.87271 -8.37336,-0.88373 -0.0283,0 -0.0538,0 -0.0762,0 -7.90955,0 -13.65403,2.22039 -17.40987,5.53444 -3.76686,3.30298 -5.51228,7.67749 -5.51228,11.85319 0,0.92791 0.0876,1.84479 0.25451,2.7396 1.16004,6.09782 6.20856,9.9973 11.35631,13.15669 5.16983,3.14832 10.56051,5.70013 12.60428,8.58335 1.11564,1.53548 1.64588,3.39133 1.64588,5.18094 0,1.82271 -0.56334,3.55705 -1.59073,4.7943 -1.94424,2.3419 -5.61156,3.9216 -9.55545,3.9216 -2.49653,0 -5.08157,-0.61862 -7.44549,-2.02159 -0.13302,-0.0882 -0.48611,-0.27628 -0.51921,-0.29823 -5.66699,-3.6786 -10.22935,-7.14728 -13.67581,-9.98627 -2.61814,-2.15413 -4.58442,-3.95476 -5.89915,-5.21409 -0.66259,-0.61862 -1.15974,-1.11576 -1.48017,-1.44713 -0.33143,-0.33141 -0.48611,-0.50815 -0.48611,-0.50815 -0.18665,-0.19886 -0.46379,-0.26499 -0.71804,-0.18778 -0.2432,0.0776 -0.43069,0.29825 -0.46378,0.56338 -0.14412,0.98319 -0.24321,2.22041 -0.24321,3.65648 0,0.11063 0,0.22081 0,0.33142 l 0,0.0995 c 0.0679,3.72277 1.32575,6.59495 4.71706,9.73221 0.81758,0.82853 46.30809,47.08135 119.28309,47.09239 72.98606,-0.0113 118.46551,-46.26386 119.28308,-47.09239 3.39131,-3.13726 4.6506,-6.00944 4.71677,-9.73221 l 0,-0.4308 c 0,-1.43609 -0.0991,-2.67332 -0.23189,-3.6565"
            id="path9955"
        />
    </g>
</svg>
