<svg
   xmlns="http://www.w3.org/2000/svg"
   width="1181"
   height="387"
   viewBox="0 0 1181 387">
  <path
     style="fill:#081e3f;fill-opacity:1;stroke:none;stroke-width:1.14216638;stroke-opacity:1"
     d="m 74.092775,282.48175 -0.29178,-100.22509 -36.83487,-0.30137 -36.83486048,-0.30136 v -5.70267 -5.70267 l 80.80827048,0.2932 80.808275,0.2932 0.34812,5.42529 0.34812,5.42529 H 125.26106 88.078075 v 100.51064 100.51064 h -6.84676 -6.84676 z"
     id="path4591"/>
  <path
     style="fill:#081e3f;fill-opacity:1;stroke:none;stroke-width:1.14216638;stroke-opacity:1"
     d="m 173.4809,384.3573 c -16.78508,-4.06885 -27.95951,-14.57627 -33.61958,-31.61277 -1.77428,-5.34051 -2.04385,-12.5237 -2.40105,-63.98086 l -0.40237,-57.96494 h 5.7775 5.77749 v 54.01293 c 0,44.19258 0.30977,55.2022 1.70374,60.554 3.62888,13.93224 10.16373,22.46042 21.08156,27.51209 4.44208,2.05536 7.35653,2.40502 20.04594,2.40502 14.33667,0 15.11408,-0.12596 22.56753,-3.65659 10.07451,-4.7722 18.98677,-13.29759 24.12723,-23.07992 7.51531,-14.30166 7.83675,-16.98464 8.39371,-70.06209 l 0.50038,-47.68544 h 5.61394 5.61394 v 75.95406 75.95406 h -5.6786 -5.6786 l -0.31777,-15.70479 -0.31777,-15.70478 -3.27827,6.22936 c -6.47152,12.29721 -20.60502,22.90015 -35.72025,26.7973 -8.53705,2.2011 -24.78005,2.21714 -33.7887,0.0334 z"
     id="path4593"/>
  <path
     style="fill:#081e3f;fill-opacity:1;stroke:none;stroke-width:1.14216638;stroke-opacity:1"
     d="m 321.96252,384.43057 c -12.96446,-3.28792 -23.58361,-10.43462 -32.42741,-21.82369 -11.84952,-15.25984 -17.81465,-41.39472 -15.32651,-67.14964 2.16527,-22.41293 7.95619,-36.84288 19.84179,-49.44224 12.65606,-13.41609 26.46469,-19.0163 47.01753,-19.06836 13.19217,-0.0334 21.47909,2.00838 32.11841,7.91361 8.14651,4.52163 18.3917,15.08797 22.27255,22.97072 l 2.71736,5.5195 0.2984,-46.60534 0.29842,-46.60533 5.41241,0.3476 5.41243,0.34759 0.29146,105.93593 0.29146,105.93593 h -5.71675 -5.71675 V 367.2876 c 0,-8.48058 -0.38548,-15.41528 -0.85662,-15.41045 -0.47114,0.005 -1.99013,1.99424 -3.37554,4.42087 -3.6928,6.4682 -13.26657,16.53546 -19.57399,20.58291 -9.63444,6.18241 -17.50901,8.29355 -32.73108,8.77508 -9.51208,0.30091 -15.70766,-0.074 -20.24757,-1.22544 z m 36.42168,-10.65859 c 16.47506,-5.14288 28.50389,-18.1525 35.19318,-38.06273 4.18542,-12.4576 5.27442,-34.00951 2.47312,-48.94437 -3.71869,-19.82579 -15.96884,-37.6997 -30.75661,-44.87626 -18.16381,-8.81496 -43.16394,-6.00677 -58.51577,6.57289 -14.37915,11.78264 -23.98231,40.88504 -21.6668,65.66131 2.87869,30.80243 17.18471,52.49244 39.28616,59.56349 8.76259,2.80348 25.14801,2.84478 33.98672,0.0857 z"
     id="path4595"/>
  <path
     style="fill:#081e3f;fill-opacity:1;stroke:none;stroke-width:1.14216638;stroke-opacity:1"
     d="m 577.03339,379.58546 c 2.79979,-7.32137 54.73712,-146.328 65.9357,-176.47228 l 12.19458,-32.82529 28.50469,0.27355 28.50468,0.27355 9.5987,25.69875 c 5.27928,14.1343 22.90518,61.27374 39.16867,104.75431 16.26348,43.48056 29.56997,79.59612 29.56997,80.25679 0,0.81642 -9.19484,1.10348 -28.70306,0.89608 l -28.70307,-0.30515 -6.34511,-18.57555 -6.34512,-18.57553 -37.03597,0.30087 -37.03598,0.30088 -2.12517,5.71084 c -1.16885,3.14095 -4.09572,11.36455 -6.50416,18.27466 l -4.37899,12.56383 -28.75449,0.3051 -28.75449,0.30512 z m 129.18045,-76.29258 c 0.52878,-0.52879 -7.38673,-26.6292 -19.04112,-62.78574 l -3.68156,-11.42166 -11.59387,35.47984 c -6.37663,19.51391 -11.59387,36.34659 -11.59387,37.40595 0,1.74195 2.1658,1.9261 22.65296,1.9261 12.45914,0 22.92499,-0.27202 23.25746,-0.60449 z"
     id="path4597"/>
  <path
     style="fill:#081e3f;fill-opacity:1;stroke:none;stroke-width:1.14216638;stroke-opacity:1"
     d="m 795.07905,363.01078 v -19.69607 l 37.97063,-37.98333 37.97064,-37.98333 H 835.9051 800.78988 v -19.41683 -19.41683 h 67.9589 67.95889 v 19.13768 19.13768 l -38.26999,38.25618 -38.26999,38.25618 40.83986,0.57108 40.83987,0.57109 0.31316,19.13128 0.31316,19.13129 h -73.69735 -73.69734 z"
     id="path4599"/>
  <path
     style="fill:#081e3f;fill-opacity:1;stroke:none;stroke-width:1.14216638;stroke-opacity:1"
     d="m 985.99872,385.21838 c -15.28244,-3.31682 -25.23094,-10.80148 -31.54627,-23.73353 -6.79544,-13.91521 -7.46528,-21.17264 -7.46528,-80.88328 v -52.39004 h 25.12766 25.12768 v 45.30756 c 0,52.28547 0.5656,57.86278 6.53889,64.47447 4.4884,4.96811 9.3442,6.71502 18.5888,6.68748 7.9583,-0.0237 14.2178,-2.84758 19.6379,-8.85929 7.4485,-8.26152 7.7741,-10.86343 7.7741,-62.13087 v -45.47935 h 25.6987 25.6988 v 77.09623 77.09623 h -24.5566 -24.5566 v -10.24012 -10.2401 l -7.7096,7.67023 c -15.204,15.12636 -35.5518,20.57413 -58.35818,15.62438 z"
     id="path4601"/>
  <path
     style="fill:#081e3f;fill-opacity:1;stroke:none;stroke-width:1.14216638;stroke-opacity:1"
     d="M 1112.6013,276.48538 V 170.26391 h 25.1277 25.1276 v 106.22147 106.22147 h -25.1276 -25.1277 z"
     id="path4603"/>
  <path
     style="fill:#091e3f;fill-opacity:1;stroke:none;stroke-width:1px;stroke-linecap:butt;stroke-linejoin:miter;stroke-opacity:1"
     d="m 897.02419,101.05297 -17.70358,38.83365 33.69391,-10.85058 z"
     id="path4624"/>
  <path
     style="fill:#66cadf;fill-opacity:1;stroke:none;stroke-width:1px;stroke-linecap:butt;stroke-linejoin:miter;stroke-opacity:1"
     d="M 1180.9196,0.22068617 H 867.6134 l -54.53844,21.16617983 57.6794,49.68424 z"
     id="path4626"/>
  <path
     style="fill:#66cadf;fill-opacity:1;stroke:none;stroke-width:1px;stroke-linecap:butt;stroke-linejoin:miter;stroke-opacity:1"
     d="M 897.02419,101.05297 1180.9196,0.22068617 1004.3878,153.02153 937.57109,174.43715 Z"
     id="path4628"/>
  <path
     style="fill:#1781c4;fill-opacity:1;stroke:none;stroke-width:1px;stroke-linecap:butt;stroke-linejoin:miter;stroke-opacity:1"
     d="M 879.32061,139.88662 870.75436,71.071106 1180.9196,0.22068617 897.02419,101.05297 Z"
     id="path4630"/>
  <path
     style="fill:#091e3f;fill-opacity:1;stroke:none;stroke-width:0.40381679;stroke-opacity:1"
     d="m 491.50934,385.76691 c -7.91957,-0.91482 -7.07325,-0.76617 -12.72023,-2.23429 -1.44365,-0.37533 -2.98825,-0.8223 -3.43245,-0.99329 -0.44419,-0.17098 -1.62536,-0.62596 -2.6248,-1.01107 -4.43129,-1.70749 -12.88027,-6.26804 -13.25866,-7.1567 -0.074,-0.17387 -0.37689,-0.31612 -0.67302,-0.31612 -0.29614,0 -0.599,-0.13764 -0.67303,-0.30587 -0.074,-0.16823 -0.95234,-0.92486 -1.95178,-1.68142 -2.58907,-1.95985 -8.39066,-7.88312 -10.51247,-10.73294 -0.99217,-1.3326 -1.94023,-2.48348 -2.10681,-2.55751 -0.16657,-0.074 -0.30286,-0.27424 -0.30286,-0.44489 0,-0.17067 -0.82377,-1.56383 -1.8306,-3.09593 -2.20036,-3.34831 -4.75336,-8.52915 -6.84496,-13.8906 -0.3899,-0.99945 -0.8507,-2.18061 -1.02399,-2.62481 -0.47519,-1.21802 -1.82971,-6.21331 -2.79223,-10.29733 -2.57525,-10.92699 -2.86583,-29.70939 -0.62786,-40.58359 0.36567,-1.77679 0.81331,-3.9574 0.99475,-4.8458 0.18144,-0.8884 0.63132,-2.61471 0.99973,-3.83626 0.36841,-1.22154 0.76739,-2.67528 0.88661,-3.23053 0.22681,-1.05626 1.12145,-3.33945 1.77796,-4.53746 0.21134,-0.38566 0.38668,-0.93082 0.38966,-1.21145 0.003,-0.28064 0.90912,-2.32743 2.01368,-4.54842 1.10455,-2.22099 2.01071,-4.26532 2.01368,-4.54294 0.003,-0.27762 0.16593,-0.50477 0.36212,-0.50477 0.1962,0 0.4635,-0.31801 0.594,-0.70668 0.23062,-0.68682 1.06418,-2.11585 1.47218,-2.52385 0.11105,-0.11105 1.06906,-1.49692 2.12892,-3.07971 3.36118,-5.0196 7.80326,-9.68469 13.21612,-13.87964 0.99945,-0.77457 1.87775,-1.54595 1.95178,-1.71418 0.074,-0.16822 0.39204,-0.30586 0.70668,-0.30586 0.31464,0 0.57208,-0.18172 0.57208,-0.40382 0,-0.2221 0.21283,-0.40382 0.47297,-0.40382 0.26014,0 0.75986,-0.25413 1.1105,-0.56474 1.18315,-1.0481 8.09097,-4.68488 8.89859,-4.68488 0.23757,0 0.74749,-0.16306 1.13315,-0.36236 0.38566,-0.1993 1.51893,-0.67225 2.51837,-1.05099 0.99945,-0.37875 2.13272,-0.8517 2.51838,-1.051 0.38566,-0.1993 1.14613,-0.36236 1.68993,-0.36236 0.5438,0 1.50029,-0.19732 2.12552,-0.43849 3.77385,-1.45566 15.82593,-2.52016 22.33716,-1.97293 7.92229,0.66583 14.04686,1.74498 16.24815,2.86294 0.38566,0.19586 0.97008,0.35611 1.2987,0.35611 0.32863,0 1.28511,0.29776 2.12552,0.6617 0.84041,0.36393 1.89145,0.80236 2.33565,0.97429 4.3422,1.68066 11.54005,5.88757 15.29303,8.93828 2.68346,2.18133 8.11556,7.64674 10.15999,10.2223 0.88149,1.11049 1.73899,2.07965 1.90557,2.15368 0.16657,0.074 0.30286,0.3769 0.30286,0.67303 0,0.29614 0.14226,0.599 0.31613,0.67303 0.99599,0.42409 6.83406,11.21402 8.37552,15.47964 0.40129,1.1105 0.88131,2.19172 1.06669,2.40271 0.1854,0.211 0.33708,0.71319 0.33708,1.11598 0,0.40279 0.1591,1.04789 0.35356,1.43355 0.3569,0.70781 1.26492,3.78412 1.99487,6.75845 0.21803,0.8884 0.62536,2.52386 0.90518,3.63435 1.474,5.84969 2.23402,18.44945 1.66028,27.52442 -0.59083,9.34518 -1.53442,16.0426 -2.53607,18.00044 -0.1973,0.38567 -0.35874,1.0644 -0.35874,1.50831 0,0.76484 -1.80215,6.53411 -2.84631,9.11198 -0.26663,0.65826 -0.62444,1.56027 -0.79513,2.00447 -0.17069,0.4442 -0.76802,1.80708 -1.32739,3.02862 -0.55937,1.22155 -1.13109,2.49357 -1.27048,2.82672 -0.30564,0.7305 -0.54138,1.12661 -3.73039,6.26814 -1.3745,2.21605 -2.82824,4.39277 -3.23054,4.83715 -0.40229,0.44438 -1.23722,1.48508 -1.8554,2.31266 -2.78067,3.7226 -13.69994,13.23396 -15.19291,13.23396 -0.24284,0 -0.44294,0.13629 -0.44467,0.30286 -0.002,0.16658 -0.4106,0.50438 -0.90859,0.75067 -0.49799,0.2463 -2.35918,1.1727 -4.13597,2.05868 -4.2318,2.11012 -10.53943,4.39857 -13.93168,5.0545 -9.15126,1.76948 -17.07981,2.28154 -23.62328,1.52568 z m 17.2205,-9.93277 c 1.2536,-0.31199 2.74205,-0.56725 3.30766,-0.56725 0.5656,0 1.14068,-0.18172 1.27794,-0.40382 0.13727,-0.2221 0.77328,-0.40382 1.41336,-0.40382 0.64008,0 1.26745,-0.16773 1.39416,-0.37274 0.1267,-0.20502 0.8129,-0.5007 1.52489,-0.65708 0.71198,-0.15638 1.57306,-0.42754 1.9135,-0.60259 0.34044,-0.17504 2.06708,-1.01509 3.83699,-1.86678 1.76991,-0.85168 4.85911,-2.70339 6.86489,-4.11491 3.44823,-2.42661 10.01937,-8.69809 11.46408,-10.94129 0.36462,-0.56615 1.02638,-1.44879 1.47057,-1.96144 0.80805,-0.93255 2.37562,-3.37952 2.89548,-4.51981 0.15188,-0.33315 0.38026,-0.69658 0.50751,-0.80763 0.39223,-0.34229 2.05467,-3.52525 3.37458,-6.46107 1.39277,-3.09788 1.89419,-4.36757 2.55162,-6.46107 0.31386,-0.99944 0.77975,-2.45319 1.03533,-3.23053 0.95883,-2.91641 1.63613,-5.87969 2.67664,-11.71069 0.99323,-5.56599 0.97361,-22.8029 -0.0324,-28.46908 -1.40642,-7.92147 -2.22989,-11.53779 -2.75398,-12.09432 -0.1987,-0.21099 -0.36127,-0.79085 -0.36127,-1.28857 0,-0.49772 -0.18172,-1.01725 -0.40382,-1.15452 -0.2221,-0.13726 -0.40382,-0.52939 -0.40382,-0.87139 0,-0.342 -0.2911,-1.28529 -0.6469,-2.0962 -0.35579,-0.81092 -0.79422,-1.83783 -0.97429,-2.28203 -1.57241,-3.87888 -4.12359,-8.55959 -6.57537,-12.06397 -2.16614,-3.09612 -7.49787,-9.53831 -7.89864,-9.54373 -0.14265,-0.002 -0.89539,-0.6045 -1.67274,-1.33906 -3.56341,-3.36726 -13.72534,-9.52252 -15.76904,-9.55158 -0.34426,-0.005 -0.79855,-0.16726 -1.00954,-0.36081 -0.38891,-0.35675 -3.33126,-1.25831 -6.64279,-2.0354 -6.95781,-1.63272 -18.7854,-1.65055 -25.44046,-0.0383 -3.69781,0.89581 -6.6989,1.78596 -7.0466,2.09009 -0.21099,0.18455 -0.61489,0.33555 -0.89755,0.33555 -1.15087,0 -10.92524,5.29934 -11.84287,6.42082 -0.11105,0.13571 -0.92878,0.78049 -1.81718,1.43283 -3.00182,2.20422 -9.05169,8.78484 -11.66896,12.69267 -2.45659,3.66793 -6.7047,11.62169 -6.7047,12.55326 0,0.2355 -0.15953,0.74371 -0.35452,1.12938 -0.92014,1.81995 -1.66456,3.82521 -1.66456,4.48385 0,0.39965 -0.12995,0.85658 -0.28878,1.01541 -0.50523,0.50523 -1.88053,6.00174 -2.53794,10.14316 -0.21154,1.33259 -0.59288,3.33149 -0.84742,4.44198 -0.75513,3.29439 -0.62005,21.53475 0.1869,25.23855 0.36292,1.66574 0.66001,3.60848 0.66019,4.3172 1.8e-4,0.70871 0.18205,1.40088 0.40415,1.53814 0.2221,0.13727 0.40381,0.71061 0.40381,1.27409 0,0.99899 0.93701,4.78138 1.58507,6.39843 0.17802,0.4442 0.63651,1.80708 1.01886,3.02863 1.15162,3.67925 4.03992,9.89662 6.14735,13.23284 0.73928,1.17033 1.34414,2.29093 1.34414,2.4902 0,0.19928 0.13629,0.4229 0.30287,0.49693 0.16657,0.074 1.09966,1.22491 2.07352,2.55751 2.53043,3.46254 9.55923,10.34639 12.4329,12.17652 0.62781,0.39983 1.23233,0.82202 1.34338,0.9382 0.76476,0.80008 9.14037,4.92665 11.71069,5.76973 4.67928,1.53482 9.03137,2.44646 13.12405,2.74914 4.94587,0.36578 13.234,0.017 16.00905,-0.67359 z"
     id="path4665"/>
</svg>
