<svg width="177" height="62" viewBox="0 0 177 62" fill="none" xmlns="http://www.w3.org/2000/svg">
<g clip-path="url(#clip0_146_852)">
<rect width="177" height="62" fill="white"/>
<g clip-path="url(#clip1_146_852)">
<path d="M27.06 54.12C42.0048 54.12 54.12 42.0048 54.12 27.06C54.12 12.1152 42.0048 0 27.06 0C12.1152 0 0 12.1152 0 27.06C0 42.0048 12.1152 54.12 27.06 54.12Z" fill="#35D0FF"/>
<path fill-rule="evenodd" clip-rule="evenodd" d="M150.87 11.3C144.1 11.3 141 14.69 141 18.88C141 23.07 144.1 26.46 150.87 26.46C157.64 26.46 160.74 23.07 160.74 18.88C160.74 14.69 157.64 11.3 150.87 11.3ZM150.87 14.88C155.27 14.88 156.47 16.88 156.47 18.88H156.45C156.45 20.92 155.26 22.93 150.87 22.93C146.48 22.93 145.28 20.88 145.28 18.88C145.28 16.88 146.47 14.88 150.87 14.88ZM68.27 26.06V11.7H77.91C81.91 11.7 84.19 13.7 84.19 17.1C84.19 20.5 81.94 22.49 77.91 22.49H72.51V26.06H68.27ZM72.5 15.24V19H77.91C79.32 19 79.91 18.24 79.91 17.14C79.91 16.04 79.31 15.28 77.91 15.28L72.5 15.24ZM101 17.08V20.51H90.84V22.51H101.62V26.04H86.62V11.7H101.54V15.23H90.84V17.08H101ZM104 26.06H113.38C118.92 26.06 120.87 22.91 120.87 18.88C120.87 14.85 118.89 11.7 113.35 11.7H104V26.06ZM113.38 22.53H108.27V15.23H113.38C115.64 15.23 116.64 16.45 116.64 18.88C116.64 21.31 115.65 22.53 113.38 22.53ZM123.11 11.7H132.55C136.28 11.7 139.04 13.09 139.04 16.82C139.057 17.7043 138.789 18.5707 138.276 19.2911C137.763 20.0115 137.031 20.5475 136.19 20.82L139.19 26.1H134.64L132.13 21.66H127.37V26.1L123.11 26.06V11.7ZM127.35 15.24V18.4H132.55C134.08 18.4 134.77 17.95 134.77 16.82C134.77 15.69 134.08 15.24 132.55 15.24H127.35ZM72.5 39.85H82.5V43.37H68.27V29H72.5V39.85ZM89.61 41.05H97.21L98.49 43.37H103L95.15 29H91.67L83.79 43.37H88.34L89.61 41.05ZM95.45 37.83H91.37L93.45 34.1L95.45 37.83ZM104.74 29H109.74L116.9 37.88V29H121.13V43.37H116.13L109 34.5V43.37H104.76L104.74 29ZM123.7 43.37H133.05C138.59 43.37 140.57 40.22 140.57 36.18C140.57 32.14 138.59 29 133.05 29H123.7V43.37ZM133.05 39.85H127.94V32.54H133.05C135.32 32.54 136.32 33.77 136.32 36.2C136.32 38.63 135.33 39.85 133.05 39.85ZM154.31 41.05H146.7L145.43 43.37H140.88L148.76 29H152.24L160.12 43.35H155.58L154.31 41.05ZM148.46 37.83H152.54L150.54 34.1L148.46 37.83ZM172.86 29V36.76C172.86 38.93 171.93 40.23 168.91 40.23C165.89 40.23 165.07 38.91 165.07 36.74V29H160.83V36.74C160.83 41.18 163.06 43.74 168.91 43.74C174.76 43.74 177.09 41.19 177.09 36.74V29H172.86Z" fill="black"/>
<path d="M28.19 21.03C31.338 21.03 33.89 18.478 33.89 15.33C33.89 12.182 31.338 9.63 28.19 9.63C25.042 9.63 22.49 12.182 22.49 15.33C22.49 18.478 25.042 21.03 28.19 21.03Z" fill="black"/>
<path d="M22.53 61.7H28.81V45.91H36L43.2 38.71V32.71C40.08 29.58 38.32 27.83 35.2 24.71H17.2V14.71L10.92 18.11V27.1L14.83 31H22.53V39.52H14.83L10.9 43.48V48.76C12.8293 50.1967 14.9411 51.3703 17.18 52.25V45.83H22.53V61.7Z" fill="black"/>
</g>
</g>
<defs>
<clipPath id="clip0_146_852">
<rect width="177" height="62" fill="white"/>
</clipPath>
<clipPath id="clip1_146_852">
<rect width="177.09" height="61.7" fill="white"/>
</clipPath>
</defs>
</svg>
