<svg width="80" height="80" viewBox="0 0 80 80" fill="none" xmlns="http://www.w3.org/2000/svg">
<rect width="80" height="80" fill="white"/>
<path d="M40.06 63.12C55.0048 63.12 67.12 51.0048 67.12 36.06C67.12 21.1152 55.0048 9 40.06 9C25.1152 9 13 21.1152 13 36.06C13 51.0048 25.1152 63.12 40.06 63.12Z" fill="#35D0FF"/>
<path fill-rule="evenodd" clip-rule="evenodd" d="M45.4 24.33C45.4 27.478 42.848 30.03 39.7 30.03C36.552 30.03 34 27.478 34 24.33C34 21.182 36.552 18.63 39.7 18.63C42.848 18.63 45.4 21.182 45.4 24.33ZM41.91 70.7H35.63V54.83H30.28V61.25C28.0412 60.3703 25.9293 59.1967 24 57.76V52.48L27.93 48.52H35.63V40H27.93L24.02 36.1V27.11L30.3 23.71V33.71H48.3C49.3959 34.8059 50.324 35.7328 51.2022 36.6098C52.8242 38.2296 54.2759 39.6794 56.3 41.71V47.71L49.1 54.91H41.91V70.7Z" fill="black"/>
</svg>
