<svg width="629" height="228" viewBox="0 0 629 228" fill="none" xmlns="http://www.w3.org/2000/svg">
<path d="M131.594 109.363C131.594 128.836 118.092 141.737 99.5412 141.737C95.3211 141.861 91.1303 140.997 87.304 139.212C83.4776 137.428 80.1218 134.773 77.5048 131.46V158.164C77.5029 158.559 77.3839 158.946 77.1628 159.274C76.9418 159.602 76.6286 159.857 76.2628 160.007L68.7704 163.152C68.4541 163.283 68.1094 163.331 67.7693 163.291C67.4292 163.251 67.1051 163.125 66.8278 162.924C66.5505 162.723 66.3294 162.454 66.1855 162.143C66.0416 161.833 65.9797 161.49 66.0058 161.149V79.7143C66.0058 79.183 66.2169 78.6735 66.5926 78.2978C66.9683 77.9221 67.4778 77.711 68.0091 77.711H75.0007C75.532 77.711 76.0416 77.9221 76.4172 78.2978C76.7929 78.6735 77.004 79.183 77.004 79.7143V87.7276C82.1325 80.696 90.2459 77.11 99.5813 77.11C118.092 77.11 131.594 90.0114 131.594 109.363ZM119.995 109.363C119.995 95.9812 110.8 87.1466 98.6197 87.1466C86.4396 87.1466 77.3646 95.9812 77.3646 109.363C77.3646 122.745 86.5598 131.7 98.6197 131.7C110.68 131.7 120.095 122.866 120.095 109.363H119.995Z" fill="#372B28"/>
<path d="M144.081 109.363C144.081 90.4922 158.104 77.11 177.055 77.11C196.006 77.11 209.909 90.4922 209.909 109.363C209.909 128.235 196.047 141.737 177.055 141.737C158.064 141.737 144.081 128.235 144.081 109.363Z" fill="url(#paint0_linear_46_3)"/>
<path d="M341.081 109.363C341.081 90.4922 355.104 77.11 374.055 77.11C393.006 77.11 406.909 90.4922 406.909 109.363C406.909 128.235 393.046 141.737 374.055 141.737C355.064 141.737 341.081 128.235 341.081 109.363Z" fill="url(#paint1_linear_46_3)"/>
<path d="M283.405 104.575V139.113C283.405 139.644 283.194 140.153 282.818 140.529C282.443 140.905 281.933 141.116 281.402 141.116H273.95C273.418 141.116 272.909 140.905 272.533 140.529C272.157 140.153 271.946 139.644 271.946 139.113V105.898C271.946 93.4771 265.736 87.387 254.858 87.387C242.678 87.387 234.825 94.659 234.825 108.402V139.113C234.825 139.644 234.614 140.153 234.238 140.529C233.863 140.905 233.353 141.116 232.822 141.116H225.329C224.798 141.116 224.288 140.905 223.913 140.529C223.537 140.153 223.326 139.644 223.326 139.113V79.7143C223.326 79.183 223.537 78.6735 223.913 78.2978C224.288 77.9221 224.798 77.711 225.329 77.711H232.281C232.812 77.711 233.322 77.9221 233.697 78.2978C234.073 78.6735 234.284 79.183 234.284 79.7143V87.2668C238.972 80.8162 247.105 77.11 257.142 77.11C272.547 77.11 283.405 85.9446 283.405 104.575Z" fill="#372B28"/>
<path d="M332.586 135.867C332.783 136.304 332.816 136.797 332.68 137.257C332.544 137.716 332.248 138.111 331.845 138.371C328.093 140.664 323.761 141.832 319.365 141.737C306.583 141.737 299.331 134.685 299.331 121.904V70.0584C299.331 69.6572 299.451 69.2651 299.676 68.9329C299.901 68.6007 300.221 68.3438 300.594 68.1953L308.006 65.1503C308.309 65.0256 308.639 64.9774 308.965 65.0098C309.292 65.0423 309.605 65.1545 309.878 65.3365C310.151 65.5185 310.375 65.7647 310.531 66.0536C310.687 66.3425 310.769 66.6652 310.77 66.9933V77.711H326.917C327.448 77.711 327.958 77.9221 328.334 78.2978C328.709 78.6735 328.92 79.183 328.92 79.7144V85.1433C328.92 85.6746 328.709 86.1842 328.334 86.5599C327.958 86.9356 327.448 87.1466 326.917 87.1466H310.77V121.423C310.77 128.235 314.356 132.061 320.687 132.061C323.142 132.066 325.562 131.475 327.738 130.338C327.982 130.195 328.253 130.106 328.534 130.076C328.815 130.045 329.099 130.074 329.367 130.161C329.636 130.248 329.883 130.391 330.093 130.58C330.302 130.77 330.469 131.001 330.583 131.26L332.586 135.867Z" fill="#372B28"/>
<path d="M417.607 132.782L420.592 127.193C420.718 126.956 420.89 126.746 421.098 126.577C421.306 126.407 421.546 126.281 421.804 126.206C422.062 126.132 422.333 126.11 422.599 126.141C422.866 126.173 423.123 126.258 423.356 126.391C429.604 129.924 436.653 131.794 443.83 131.82C454.448 131.82 458.875 128.595 458.875 123.226C458.875 109.003 418.809 121.223 418.809 96.1014C418.809 84.7627 428.966 77.11 445.212 77.11C452.582 77.049 459.869 78.6586 466.528 81.8178C466.761 81.9419 466.968 82.111 467.136 82.3155C467.304 82.5199 467.43 82.7556 467.506 83.0089C467.583 83.2622 467.608 83.5281 467.581 83.7913C467.554 84.0545 467.475 84.3098 467.349 84.5423L464.404 90.0114C464.284 90.2537 464.116 90.4692 463.91 90.6447C463.704 90.8203 463.464 90.9523 463.206 91.0328C462.948 91.1133 462.676 91.1406 462.406 91.1131C462.137 91.0856 461.876 91.0039 461.64 90.8728C456.556 88.1478 450.86 86.7686 445.092 86.8662C435.076 86.8662 430.168 90.5723 430.168 95.5806C430.168 110.505 470.234 98.3251 470.234 122.946C470.234 134.405 459.716 141.697 442.869 141.697C433.273 141.697 423.777 139.012 418.188 135.366C417.793 135.08 417.516 134.66 417.409 134.184C417.302 133.708 417.373 133.21 417.607 132.782Z" fill="#372B28"/>
<path fill-rule="evenodd" clip-rule="evenodd" d="M496.006 87.99C492.692 87.99 490.006 90.6763 490.006 93.99V124.99C490.006 128.304 492.692 130.99 496.006 130.99H556.976C560.289 130.99 562.976 128.304 562.976 124.99V93.99C562.976 90.6763 560.289 87.99 556.976 87.99H496.006ZM500.353 109.369C500.52 106.589 501.501 103.92 503.174 101.693C504.847 99.4664 507.138 97.7808 509.761 96.8461C512.384 95.9113 515.225 95.7686 517.929 96.4357C520.633 97.1028 523.081 98.5503 524.968 100.598L521.131 104.148C520.076 102.903 518.678 101.995 517.111 101.538C515.777 101.212 514.385 101.212 513.051 101.537C511.717 101.863 510.481 102.504 509.447 103.408C508.413 104.311 507.611 105.45 507.11 106.728C506.608 108.007 506.421 109.387 506.565 110.752C506.807 112.713 507.78 114.51 509.29 115.783C510.801 117.056 512.736 117.711 514.71 117.618C515.95 117.635 517.178 117.369 518.3 116.84C519.422 116.311 520.408 115.532 521.183 114.563L525.021 118.087C523.141 120.145 520.698 121.603 517.994 122.279C515.291 122.956 512.449 122.82 509.822 121.89C507.195 120.96 504.901 119.276 503.226 117.049C501.551 114.822 500.57 112.15 500.405 109.369H500.353ZM526.796 109.369C526.963 106.589 527.945 103.92 529.617 101.693C531.29 99.4664 533.581 97.7808 536.204 96.8461C538.828 95.9113 541.668 95.7686 544.372 96.4357C547.076 97.1028 549.524 98.5503 551.412 100.598L547.574 104.148C546.509 102.902 545.103 101.995 543.528 101.538C542.185 101.205 540.78 101.202 539.435 101.529C538.09 101.857 536.844 102.504 535.803 103.417C534.762 104.33 533.957 105.48 533.457 106.771C532.957 108.062 532.776 109.455 532.93 110.831C533.172 112.796 534.149 114.597 535.665 115.87C537.181 117.144 539.123 117.797 541.101 117.696C542.341 117.712 543.568 117.445 544.69 116.916C545.811 116.386 546.798 115.609 547.574 114.642L551.412 118.166C549.533 120.223 547.089 121.681 544.385 122.358C541.682 123.034 538.84 122.899 536.213 121.968C533.586 121.038 531.292 119.354 529.617 117.127C527.942 114.9 526.961 112.229 526.796 109.447V109.369Z" fill="#372B28"/>
<defs>
<linearGradient id="paint0_linear_46_3" x1="152.074" y1="134.325" x2="199.252" y2="87.1667" gradientUnits="userSpaceOnUse">
<stop stop-color="#17FF98"/>
<stop offset="1" stop-color="#00ADF9"/>
</linearGradient>
<linearGradient id="paint1_linear_46_3" x1="349.074" y1="134.325" x2="396.252" y2="87.1667" gradientUnits="userSpaceOnUse">
<stop stop-color="#17FF98"/>
<stop offset="1" stop-color="#00ADF9"/>
</linearGradient>
</defs>
</svg>
