<svg width="160" height="160" viewBox="0 0 160 160" fill="none" xmlns="http://www.w3.org/2000/svg">
<rect width="160" height="160" fill="#372B28"/>
<path d="M41 79.9275C41 57.1513 57.829 41 80.5721 41C103.315 41 120 57.1513 120 79.9275C120 102.704 103.363 119 80.5721 119C57.7809 119 41 102.704 41 79.9275Z" fill="url(#paint0_linear_46_90)"/>
<rect x="85" y="63" width="56" height="33" rx="6" fill="#F5F7F0"/>
<path d="M93.0533 79.2869C93.1819 77.1535 93.9349 75.1049 95.2187 73.3961C96.5026 71.6873 98.2605 70.3938 100.274 69.6764C102.287 68.959 104.467 68.8495 106.542 69.3615C108.617 69.8735 110.496 70.9843 111.945 72.5558L109 75.2803C108.19 74.3246 107.117 73.628 105.915 73.277C104.891 73.027 103.822 73.0269 102.798 73.2767C101.775 73.5265 100.826 74.0188 100.032 74.7122C99.2389 75.4055 98.6238 76.2796 98.2389 77.2606C97.8541 78.2415 97.7108 79.3007 97.8212 80.3487C98.0065 81.8533 98.7535 83.2323 99.9126 84.2094C101.072 85.1865 102.557 85.6894 104.072 85.6174C105.023 85.6309 105.966 85.4267 106.827 85.0205C107.688 84.6143 108.445 84.0168 109.04 83.2735L111.985 85.978C110.543 87.5571 108.667 88.676 106.592 89.1951C104.518 89.7141 102.336 89.6101 100.321 88.8961C98.3047 88.1822 96.5441 86.8899 95.2587 85.1808C93.9733 83.4717 93.2201 81.4217 93.0934 79.2869H93.0533Z" fill="#372B28"/>
<path d="M113.347 79.2869C113.475 77.1535 114.228 75.1049 115.512 73.3961C116.796 71.6873 118.554 70.3938 120.567 69.6764C122.581 68.959 124.761 68.8495 126.836 69.3615C128.911 69.8735 130.789 70.9843 132.238 72.5558L129.293 75.2803C128.476 74.324 127.396 73.6277 126.188 73.277C125.157 73.0217 124.079 73.0196 123.047 73.2707C122.014 73.5218 121.058 74.0188 120.259 74.7192C119.46 75.4197 118.843 76.3028 118.459 77.2935C118.075 78.2842 117.936 79.3529 118.055 80.4088C118.24 81.917 118.99 83.299 120.153 84.2766C121.317 85.2541 122.807 85.7547 124.325 85.6775C125.277 85.6895 126.219 85.4847 127.08 85.0786C127.94 84.6725 128.697 84.0757 129.293 83.3336L132.238 86.0381C130.796 87.6172 128.92 88.7361 126.846 89.2552C124.771 89.7742 122.59 89.6702 120.574 88.9562C118.558 88.2423 116.798 86.95 115.512 85.2409C114.227 83.5318 113.474 81.4818 113.347 79.347V79.2869Z" fill="#372B28"/>
<defs>
<linearGradient id="paint0_linear_46_90" x1="50.5925" y1="110.054" x2="107.532" y2="53.4616" gradientUnits="userSpaceOnUse">
<stop stop-color="#17FF98"/>
<stop offset="1" stop-color="#00ADF9"/>
</linearGradient>
</defs>
</svg>
