<?xml version="1.0" encoding="utf-8"?>
<!-- Generator: Adobe Illustrator 27.9.0, SVG Export Plug-In . SVG Version: 6.00 Build 0)  -->
<svg version="1.1" id="Camada_1" xmlns="http://www.w3.org/2000/svg" xmlns:xlink="http://www.w3.org/1999/xlink" x="0px" y="0px"
	 viewBox="0 0 691.2 424.3" style="enable-background:new 0 0 691.2 424.3;" xml:space="preserve">
<style type="text/css">
	.st0{fill:#35D0FF;}
	.st1{fill:url(#SVGID_1_);}
	.st2{fill:url(#SVGID_00000160888708950131053560000001231212364718432925_);}
	.st3{fill:#FF4B77;}
	.st4{fill:#FFFFFF;}
	.st5{fill:#060023;}
	.st6{fill:url(#SVGID_00000007429682562417002870000016555626834262331050_);}
	.st7{fill:url(#SVGID_00000020372678535056015120000013418435969490773145_);}
	.st8{fill:url(#SVGID_00000038407018077644284210000004880773400530661554_);}
	.st9{fill:url(#SVGID_00000107564341339449158280000015168319790762047658_);}
	.st10{fill:url(#SVGID_00000114044200802273841550000008131176319669772417_);}
	.st11{fill:url(#SVGID_00000179628398837327529290000006889537758450823308_);}
	.st12{fill:url(#SVGID_00000025411781547061184350000009867805554113054898_);}
	.st13{fill:url(#SVGID_00000005984945325418886800000002832439805627449496_);}
</style>
<path d="M99.5,67.9l25.1,48.2l25.1-48.2h16.5L131,134.8h-12.8L83,67.9H99.5z"/>
<path d="M222.1,134.8l25.1-48.2l25.1,48.2h16.5l-35.3-66.8h-12.8l-35.3,66.8H222.1z"/>
<path d="M378.1,248.5l26.3-50.5l26.3,50.5h17.3l-37-70h-13.4l-37,70H378.1z"/>
<path d="M178.1,67.9h15.5v66.8h-15.5V67.9z"/>
<path d="M335,66.1c8.8,0,22.9,1.7,29.9,8.1L357.5,85c-6.9-3.9-14.6-5.5-22.5-5.5c-14,0-28.6,5.6-28.6,21.8s14.5,21.8,28.6,21.8
	c4.8,0,12.1-0.5,16.4-2.6v-12.3h-17.6v-13h32v33.4c-7.7,6.8-21,7.9-30.8,7.9c-22.7,0-44.5-10.3-44.5-35.3S312.3,66.1,335,66.1z"/>
<path d="M445,67.9v13.5h-49.5v13.1h47.5v13h-47.5v13.8h50v13.5h-65.5V67.9H445z"/>
<path d="M456.6,67.9h19.8l37.1,48.6V67.9H529v66.8h-19.8l-37.1-48.6v48.6h-15.5V67.9z"/>
<path d="M545.9,117.7c8.3,4.2,17.9,5.5,27.1,5.5c4.3,0,18.5-0.1,18.5-6.9c0-6.1-14.8-7.3-19.2-8.2c-12.4-2.5-31.3-6.1-31.3-22
	c0-16.8,18.9-19.9,32-19.9c8.3,0,25.2,1.2,32.2,6.8l-7.6,11c-7.5-3.4-16.4-4.3-24.6-4.3c-4.1,0-16.3,0.1-16.3,6.5
	c0,5.9,13.9,7.5,18.5,8.4c12.4,2.5,32,5.5,32,21.8c0,17.5-20.8,20.4-34.2,20.4c-10.2,0-26-1.7-34.7-7.9L545.9,117.7z"/>
<path class="st0" d="M604.2,248.8H470.1c-1.6,0-3-1.3-3-3v-29.3c0-1.6,1.3-3,3-3h134.1c1.6,0,3,1.3,3,3v29.3
	C607.2,247.5,605.8,248.8,604.2,248.8z"/>
<path d="M158.9,178.5v14.2h-52.2v14.8h50.1v13.7h-50.1v27.7H90.4v-70.4H158.9z"/>
<path d="M219.2,176.5c23.9,0,46.9,10.8,46.9,37.2s-23.1,37.2-46.9,37.2s-46.9-10.8-46.9-37.2S195.4,176.5,219.2,176.5z M189.1,213.6
	c0,17.1,15.3,23,30.1,23c14.8,0,30.1-5.9,30.1-23s-15.3-23-30.1-23C204.5,190.7,189.1,196.6,189.1,213.6z"/>
<path d="M351.5,248.8v-70.4h-46.2c-14.9,0-27.7,7.7-27.7,23.8c0,10.1,5.1,17,14.6,20.2l-15.3,26.4h18.2l14.1-24.2h26v24.2H351.5z
	 M335.2,211.9h-29.9c-6.4,0-11.1-2.7-11.1-9.6c0-6.9,4.7-9.6,11.1-9.6h29.9V211.9z"/>
<g>
	<path d="M473.7,229.1v-50.8h31.8c15.8,0,25.3,9.7,25.3,25.4s-9.6,25.4-25.3,25.4H473.7z M485.5,188.6v30.3h20
		c9.3,0,13.2-6.6,13.2-15.2s-3.9-15.2-13.2-15.2H485.5z"/>
	<path d="M571,176.9c17.2,0,33.8,7.8,33.8,26.8s-16.6,26.8-33.8,26.8c-17.2,0-33.8-7.8-33.8-26.8S553.8,176.9,571,176.9z
		 M549.3,203.7c0,12.3,11,16.6,21.7,16.6c10.7,0,21.7-4.2,21.7-16.6s-11-16.6-21.7-16.6C560.4,187.2,549.3,191.4,549.3,203.7z"/>
</g>
<path d="M87.6,325c0-24.9,21.8-35.2,44.4-35.2c8.7,0,22.9,1.7,29.8,8l-7.4,10.8c-6.8-3.9-14.6-5.4-22.4-5.4
	c-14,0-28.5,5.6-28.5,21.7s14.5,21.7,28.5,21.7c7.2,0,16.1-1.8,22.4-5.4l7.4,10.8c-7.6,6.8-20.1,8-29.8,8
	C109.3,360.2,87.6,349.9,87.6,325z"/>
<path d="M383.3,339.5l23-46h19.8v66.6h-15.5v-42.7l-21.3,42.7h-12L356,317.4v42.7h-15.5v-66.6h19.8L383.3,339.5z"/>
<path d="M438.2,329.9v-36.4h15.5v36.4c0,14.1,6.5,18.7,20.2,18.7c13.7,0,20.2-4.6,20.2-18.7v-36.4h15.5v36.4
	c0,23.3-13.5,32.1-35.7,32.1C451.6,362,438.2,353.3,438.2,329.9z"/>
<path d="M564.4,339.5l23-46h19.8v66.6h-15.5v-42.7l-21.3,42.7h-12l-21.3-42.7v42.7h-15.5v-66.6h19.8L564.4,339.5z"/>
<path d="M295.1,310.6c8.4,0,15.2,6.8,15.2,15.2v2.2c0,8.4-6.8,15.2-15.2,15.2h-90.6c-8.4,0-15.2-6.8-15.2-15.2v-2.2
	c0-8.4,6.8-15.2,15.2-15.2H295.1 M295.1,293.6h-90.6c-17.8,0-32.2,14.4-32.2,32.2v2.2c0,17.8,14.4,32.2,32.2,32.2h90.6
	c17.8,0,32.2-14.4,32.2-32.2v-2.2C327.4,308,312.9,293.6,295.1,293.6L295.1,293.6z"/>
</svg>
