<?xml version="1.0" encoding="utf-8"?>
<!-- Generator: Adobe Illustrator 27.9.0, SVG Export Plug-In . SVG Version: 6.00 Build 0)  -->
<svg version="1.1" id="Camada_1" xmlns="http://www.w3.org/2000/svg" xmlns:xlink="http://www.w3.org/1999/xlink" x="0px" y="0px"
	 viewBox="0 0 976.6 424.3" style="enable-background:new 0 0 976.6 424.3;" xml:space="preserve">
<style type="text/css">
	.st0{fill:#35D0FF;}
	.st1{fill:url(#SVGID_1_);}
	.st2{fill:url(#SVGID_00000157276003816383404160000001072482742230977665_);}
	.st3{fill:#FF4B77;}
	.st4{fill:#FFFFFF;}
	.st5{fill:#060023;}
	.st6{fill:url(#SVGID_00000002378674763389416400000002390626691813398966_);}
	.st7{fill:url(#SVGID_00000079482361270988898180000002901597623800948656_);}
	.st8{fill:url(#SVGID_00000061448948788339640220000003437158524536202413_);}
	.st9{fill:url(#SVGID_00000069398173366523258990000007407282987041195913_);}
	.st10{fill:url(#SVGID_00000173869191840565896980000005349615758680235904_);}
	.st11{fill:url(#SVGID_00000150812771055676855010000010649161600985907625_);}
	.st12{fill:url(#SVGID_00000101093692641461177060000018396773597376455342_);}
	.st13{fill:url(#SVGID_00000152252925922434492170000012091068335147874689_);}
</style>
<g>
	<g>
		<path class="st0" d="M117.7,205.8c0.4-0.1,0.8-0.2,1.2-0.3c0.1,0,0.2,0,0.2-0.1c0,0,0,0,0,0c0,0,0,0,0,0l31.5-2.1
			c0.1,0,0.2,0,0.2,0c0.1,0,0.2,0,0.3,0c0.2,0,0.4,0.1,0.6,0.1c0.2,0,0.4,0,0.6,0.1c0.3,0.1,0.5,0.2,0.8,0.3
			c0.2,0.1,0.4,0.1,0.5,0.2c0.3,0.2,0.5,0.4,0.8,0.6c0.1,0.1,0.3,0.2,0.4,0.3c0.3,0.3,0.6,0.7,0.9,1.2l20.5,37.1l17.9,32.4
			c0.2,0.4,0.4,0.8,0.5,1.3c0,0.2,0,0.3,0.1,0.5c0,0.3,0.1,0.6,0.1,0.9c0,0.2,0,0.4-0.1,0.5c0,0.3,0,0.5-0.1,0.8
			c-0.1,0.2-0.1,0.4-0.2,0.5c-0.1,0.2-0.1,0.4-0.2,0.6l-16.2,29.9c-0.1,0.1-0.2,0.2-0.2,0.3c-0.1,0.1-0.1,0.2-0.2,0.3
			c-0.1,0.1-0.2,0.2-0.2,0.2c-0.2,0.2-0.4,0.4-0.6,0.6c-0.2,0.1-0.3,0.3-0.5,0.4c-0.2,0.2-0.5,0.3-0.7,0.4c-0.2,0.1-0.4,0.2-0.6,0.3
			c-0.3,0.1-0.5,0.1-0.8,0.2c-0.2,0-0.4,0.1-0.7,0.1c-0.1,0-0.2,0-0.2,0c-0.2,0-0.4-0.1-0.6-0.1c-0.2,0-0.3,0-0.5,0l-83.9-16.7
			c-1.4-0.3-2.8-1.2-3.5-2.4c0,0,0,0,0,0c0-0.1-0.1-0.1-0.1-0.2c0,0,0,0,0,0s0,0,0,0c-0.2-0.4-0.4-0.9-0.5-1.3c0-0.1,0-0.3-0.1-0.4
			c-0.1-0.3-0.1-0.7-0.1-1.1c0-0.1,0-0.2,0-0.4c0-0.4,0.1-0.9,0.3-1.3l30-80.5c0-0.1,0.1-0.2,0.2-0.3c0.1-0.1,0.1-0.3,0.2-0.4
			c0.1-0.1,0.2-0.2,0.3-0.4c0.1-0.2,0.2-0.3,0.3-0.5c0.2-0.2,0.4-0.4,0.6-0.6c0.1-0.1,0.3-0.3,0.4-0.4c0.3-0.2,0.5-0.3,0.8-0.4
			C117.4,206,117.5,205.9,117.7,205.8z"/>
	</g>
</g>
<g>
	<g>
		<linearGradient id="SVGID_1_" gradientUnits="userSpaceOnUse" x1="158.2994" y1="222.2613" x2="341.5204" y2="222.2613">
			<stop  offset="0" style="stop-color:#DDEF30"/>
			<stop  offset="1" style="stop-color:#ADDE00"/>
		</linearGradient>
		<path class="st1" d="M158.8,181.2c0.2-0.6,0.5-1.1,0.8-1.7c0.1-0.1,0.1-0.2,0.2-0.4c0,0,0,0,0,0c0,0,0,0,0,0l28.4-41
			c0.1-0.1,0.2-0.2,0.2-0.3c0.1-0.1,0.1-0.3,0.2-0.4c0.2-0.2,0.5-0.4,0.7-0.6c0.2-0.2,0.4-0.5,0.7-0.6c0.4-0.3,0.8-0.5,1.2-0.7
			c0.3-0.1,0.5-0.3,0.8-0.4c0.5-0.2,0.9-0.3,1.4-0.4c0.2,0,0.5-0.1,0.7-0.2c0.7-0.1,1.5-0.1,2.2,0.1l63.7,11.7l55.6,10.2
			c0.7,0.1,1.4,0.4,2,0.7c0.2,0.1,0.4,0.3,0.6,0.4c0.4,0.2,0.8,0.5,1.1,0.8c0.2,0.2,0.4,0.4,0.6,0.6c0.3,0.3,0.6,0.6,0.8,0.9
			c0.2,0.2,0.3,0.5,0.4,0.8c0.2,0.3,0.4,0.6,0.5,0.9l19.3,49.7c0.1,0.2,0.1,0.4,0.1,0.6c0.1,0.2,0.2,0.3,0.2,0.5
			c0,0.2,0,0.4,0.1,0.5c0.1,0.4,0.1,0.9,0.1,1.3c0,0.3,0,0.7,0,1c0,0.4-0.1,0.8-0.2,1.3c-0.1,0.3-0.2,0.7-0.3,1
			c-0.1,0.4-0.3,0.8-0.5,1.1c-0.2,0.3-0.3,0.6-0.6,0.9c-0.1,0.1-0.1,0.2-0.2,0.3c-0.2,0.3-0.4,0.4-0.7,0.7c-0.2,0.2-0.3,0.4-0.5,0.6
			L236.7,308c-1.8,1.5-4.1,2.3-6.3,1.9c0,0-0.1,0-0.1,0c-0.1,0-0.2,0-0.4-0.1c0,0,0,0,0,0s0,0,0,0c-0.7-0.1-1.4-0.4-2-0.7
			c-0.2-0.1-0.4-0.2-0.5-0.3c-0.5-0.3-0.9-0.6-1.3-1c-0.1-0.1-0.3-0.2-0.4-0.4c-0.5-0.5-0.9-1-1.2-1.7l-65.1-117.5
			c-0.1-0.2-0.1-0.3-0.2-0.5c-0.1-0.2-0.2-0.4-0.3-0.6c-0.1-0.2-0.1-0.5-0.2-0.7c-0.1-0.3-0.2-0.6-0.2-0.9c-0.1-0.5-0.1-0.9-0.1-1.4
			c0-0.3,0-0.6,0-0.9c0-0.5,0.1-1,0.3-1.4C158.6,181.7,158.7,181.4,158.8,181.2z"/>
	</g>
</g>
<g>
	<g>
		
			<linearGradient id="SVGID_00000167382893661632830830000005724810998487805060_" gradientUnits="userSpaceOnUse" x1="-1049.1705" y1="102.9909" x2="-1047.7334" y2="102.9909">
			<stop  offset="0" style="stop-color:#FFDE00"/>
			<stop  offset="1" style="stop-color:#FFDE00"/>
		</linearGradient>
		<path style="fill:url(#SVGID_00000167382893661632830830000005724810998487805060_);" d="M321.8,72.6c-0.2-0.2-0.5-0.4-0.7-0.5
			c-0.1,0-0.1-0.1-0.2-0.1c0,0,0,0,0,0c0,0,0,0,0,0l-21.6-10.1c0,0-0.1,0-0.2-0.1c-0.1,0-0.1-0.1-0.2-0.1c-0.1-0.1-0.3-0.1-0.4-0.1
			c-0.1,0-0.3-0.1-0.4-0.1c-0.2,0-0.4,0-0.7,0c-0.1,0-0.3,0-0.4,0c-0.2,0-0.5,0.1-0.7,0.2c-0.1,0-0.2,0.1-0.4,0.1
			c-0.3,0.1-0.6,0.3-0.9,0.6l-24.5,20.5L249,100.8c-0.3,0.2-0.5,0.5-0.7,0.8c-0.1,0.1-0.1,0.2-0.2,0.3c-0.1,0.2-0.2,0.4-0.3,0.6
			c0,0.1-0.1,0.3-0.1,0.4c-0.1,0.2-0.1,0.4-0.1,0.6c0,0.1,0,0.3,0,0.4c0,0.2,0,0.3,0,0.5l3.2,25.4c0,0.1,0.1,0.2,0.1,0.3
			c0,0.1,0,0.2,0,0.2c0,0.1,0.1,0.2,0.1,0.2c0.1,0.2,0.2,0.4,0.2,0.6c0.1,0.1,0.2,0.3,0.2,0.4c0.1,0.2,0.2,0.3,0.4,0.5
			c0.1,0.1,0.2,0.2,0.4,0.3c0.2,0.1,0.3,0.2,0.5,0.3c0.1,0.1,0.3,0.2,0.4,0.2c0.1,0,0.1,0.1,0.2,0.1c0.1,0.1,0.3,0.1,0.4,0.1
			c0.1,0,0.2,0.1,0.3,0.1l63.5,11.1c1.1,0.2,2.3,0,3.1-0.7c0,0,0,0,0,0c0,0,0.1-0.1,0.1-0.1c0,0,0,0,0,0s0,0,0,0
			c0.3-0.2,0.5-0.5,0.7-0.8c0.1-0.1,0.1-0.2,0.2-0.3c0.1-0.2,0.2-0.5,0.3-0.7c0-0.1,0.1-0.2,0.1-0.3c0.1-0.3,0.1-0.7,0.1-1l0.8-64.8
			c0-0.1,0-0.2,0-0.2c0-0.1,0-0.2,0-0.3c0-0.1-0.1-0.2-0.1-0.3c0-0.1-0.1-0.3-0.1-0.4c-0.1-0.2-0.2-0.4-0.3-0.6
			c-0.1-0.1-0.1-0.3-0.2-0.4c-0.1-0.2-0.3-0.4-0.4-0.5C322,72.7,321.9,72.6,321.8,72.6z"/>
	</g>
</g>
<g>
	<g>
		<path class="st3" d="M309.6,343c-0.1,0.2-0.2,0.5-0.3,0.7c0,0,0,0.1-0.1,0.2c0,0,0,0,0,0c0,0,0,0,0,0l-11.8,17.4
			c0,0-0.1,0.1-0.1,0.1c0,0-0.1,0.1-0.1,0.2c-0.1,0.1-0.2,0.2-0.3,0.3c-0.1,0.1-0.2,0.2-0.3,0.3c-0.2,0.1-0.3,0.2-0.5,0.3
			c-0.1,0.1-0.2,0.1-0.3,0.2c-0.2,0.1-0.4,0.1-0.6,0.2c-0.1,0-0.2,0.1-0.3,0.1c-0.3,0-0.6,0-1,0l-27.8-4.4l-24.3-3.8
			c-0.3,0-0.6-0.1-0.9-0.3c-0.1,0-0.2-0.1-0.3-0.2c-0.2-0.1-0.3-0.2-0.5-0.3c-0.1-0.1-0.2-0.2-0.3-0.3c-0.1-0.1-0.3-0.2-0.4-0.4
			c-0.1-0.1-0.1-0.2-0.2-0.3c-0.1-0.1-0.2-0.2-0.2-0.4l-9-20.7c0-0.1,0-0.2-0.1-0.3c0-0.1-0.1-0.1-0.1-0.2c0-0.1,0-0.1,0-0.2
			c0-0.2-0.1-0.4-0.1-0.5c0-0.1,0-0.3,0-0.4c0-0.2,0-0.4,0.1-0.5c0-0.1,0.1-0.3,0.1-0.4c0.1-0.2,0.1-0.3,0.2-0.5
			c0.1-0.1,0.1-0.3,0.2-0.4c0,0,0-0.1,0.1-0.1c0.1-0.1,0.2-0.2,0.3-0.3c0.1-0.1,0.1-0.2,0.2-0.2l43.1-37.1c0.7-0.6,1.8-1,2.7-0.8
			c0,0,0,0,0,0c0.1,0,0.1,0,0.2,0c0,0,0,0,0,0s0,0,0,0c0.3,0,0.6,0.2,0.9,0.3c0.1,0,0.2,0.1,0.2,0.1c0.2,0.1,0.4,0.2,0.6,0.4
			c0.1,0.1,0.1,0.1,0.2,0.2c0.2,0.2,0.4,0.4,0.6,0.7l29.9,48.7c0,0.1,0.1,0.1,0.1,0.2c0,0.1,0.1,0.2,0.1,0.2c0,0.1,0.1,0.2,0.1,0.3
			c0,0.1,0.1,0.2,0.1,0.4c0,0.2,0.1,0.4,0.1,0.6c0,0.1,0,0.2,0,0.4c0,0.2,0,0.4-0.1,0.6C309.6,342.8,309.6,342.9,309.6,343z"/>
	</g>
</g>
<path class="st4" d="M384.9,67.9l25.1,48.2l25.1-48.2h16.5l-35.3,66.8h-12.8l-35.3-66.8H384.9z"/>
<path class="st4" d="M507.5,134.8l25.1-48.2l25.1,48.2h16.5L539,67.9h-12.8l-35.3,66.8H507.5z"/>
<path class="st4" d="M663.5,248.5l26.3-50.5l26.3,50.5h17.3l-37-70h-13.4l-37,70H663.5z"/>
<path class="st4" d="M463.4,67.9H479v66.8h-15.5V67.9z"/>
<path class="st4" d="M620.4,66.1c8.8,0,22.9,1.7,29.9,8.1L642.8,85c-6.9-3.9-14.6-5.5-22.5-5.5c-14,0-28.6,5.6-28.6,21.8
	s14.5,21.8,28.6,21.8c4.8,0,12.1-0.5,16.4-2.6v-12.3h-17.6v-13h32v33.4c-7.7,6.8-21,7.9-30.8,7.9c-22.7,0-44.5-10.3-44.5-35.3
	S597.7,66.1,620.4,66.1z"/>
<path class="st4" d="M730.3,67.9v13.5h-49.5v13.1h47.5v13h-47.5v13.8h50v13.5h-65.5V67.9H730.3z"/>
<path class="st4" d="M742,67.9h19.8l37.1,48.6V67.9h15.5v66.8h-19.8l-37.1-48.6v48.6H742V67.9z"/>
<path class="st4" d="M831.3,117.7c8.3,4.2,17.9,5.5,27.1,5.5c4.3,0,18.5-0.1,18.5-6.9c0-6.1-14.8-7.3-19.2-8.2
	c-12.4-2.5-31.3-6.1-31.3-22c0-16.8,18.9-19.9,32-19.9c8.3,0,25.2,1.2,32.2,6.8l-7.6,11c-7.5-3.4-16.4-4.3-24.6-4.3
	c-4.1,0-16.3,0.1-16.3,6.5c0,5.9,13.9,7.5,18.5,8.4c12.4,2.5,32,5.5,32,21.8c0,17.5-20.8,20.4-34.2,20.4c-10.2,0-26-1.7-34.7-7.9
	L831.3,117.7z"/>
<path class="st0" d="M889.6,248.8H755.5c-1.6,0-3-1.3-3-3v-29.3c0-1.6,1.3-3,3-3h134.1c1.6,0,3,1.3,3,3v29.3
	C892.5,247.5,891.2,248.8,889.6,248.8z"/>
<path class="st4" d="M444.3,178.5v14.2h-52.2v14.8h50.1v13.7h-50.1v27.7h-16.3v-70.4H444.3z"/>
<path class="st4" d="M504.6,176.5c23.9,0,46.9,10.8,46.9,37.2s-23.1,37.2-46.9,37.2s-46.9-10.8-46.9-37.2S480.8,176.5,504.6,176.5z
	 M474.5,213.6c0,17.1,15.3,23,30.1,23s30.1-5.9,30.1-23s-15.3-23-30.1-23S474.5,196.6,474.5,213.6z"/>
<path class="st4" d="M636.9,248.8v-70.4h-46.2c-14.9,0-27.7,7.7-27.7,23.8c0,10.1,5.1,17,14.6,20.2l-15.3,26.4h18.2l14.1-24.2h26
	v24.2H636.9z M620.6,211.9h-29.9c-6.4,0-11.1-2.7-11.1-9.6c0-6.9,4.7-9.6,11.1-9.6h29.9V211.9z"/>
<g>
	<path class="st4" d="M759.1,229.1v-50.8h31.8c15.8,0,25.3,9.7,25.3,25.4s-9.6,25.4-25.3,25.4H759.1z M770.8,188.6v30.3h20
		c9.3,0,13.2-6.6,13.2-15.2s-3.9-15.2-13.2-15.2H770.8z"/>
	<path class="st4" d="M856.4,176.9c17.2,0,33.8,7.8,33.8,26.8s-16.6,26.8-33.8,26.8s-33.8-7.8-33.8-26.8S839.2,176.9,856.4,176.9z
		 M834.7,203.7c0,12.3,11,16.6,21.7,16.6s21.7-4.2,21.7-16.6s-11-16.6-21.7-16.6S834.7,191.4,834.7,203.7z"/>
</g>
<path class="st4" d="M372.9,325c0-24.9,21.8-35.2,44.4-35.2c8.7,0,22.9,1.7,29.8,8l-7.4,10.8c-6.8-3.9-14.6-5.4-22.4-5.4
	c-14,0-28.5,5.6-28.5,21.7s14.5,21.7,28.5,21.7c7.2,0,16.1-1.8,22.4-5.4l7.4,10.8c-7.6,6.8-20.1,8-29.8,8
	C394.7,360.2,372.9,349.9,372.9,325z"/>
<path class="st4" d="M668.7,339.5l23-46h19.8v66.6H696v-42.7l-21.3,42.7h-12l-21.3-42.7v42.7h-15.5v-66.6h19.8L668.7,339.5z"/>
<path class="st4" d="M723.5,329.9v-36.4H739v36.4c0,14.1,6.5,18.7,20.2,18.7s20.2-4.6,20.2-18.7v-36.4h15.5v36.4
	c0,23.3-13.5,32.1-35.7,32.1S723.5,353.3,723.5,329.9z"/>
<path class="st4" d="M849.8,339.5l23-46h19.8v66.6h-15.5v-42.7l-21.3,42.7h-12l-21.3-42.7v42.7H807v-66.6h19.8L849.8,339.5z"/>
<path class="st4" d="M580.5,310.6c8.4,0,15.2,6.8,15.2,15.2v2.2c0,8.4-6.8,15.2-15.2,15.2h-90.6c-8.4,0-15.2-6.8-15.2-15.2v-2.2
	c0-8.4,6.8-15.2,15.2-15.2H580.5 M580.5,293.6h-90.6c-17.8,0-32.2,14.4-32.2,32.2v2.2c0,17.8,14.4,32.2,32.2,32.2h90.6
	c17.8,0,32.2-14.4,32.2-32.2v-2.2C612.7,308,598.3,293.6,580.5,293.6L580.5,293.6z"/>
<g>
	<circle class="st5" cx="274.6" cy="211.5" r="12.3"/>
	<polygon class="st5" points="237.3,228.5 252.6,213.4 253.1,236 296.8,236 314,250.1 314.3,268.2 298.9,283.3 280.9,283.3 
		280.9,319.9 266.4,319.9 266.4,283.3 254.6,283.3 254.6,292.8 239.2,305.9 239.2,278.8 248.9,271.1 267,270.8 267,250.5 
		248.6,250.5 237.2,240.1 	"/>
</g>
<g>
	<circle class="st5" cx="213" cy="156.7" r="12.3"/>
	<polygon class="st5" points="177.5,166.4 191.4,159.3 191.4,181.2 235.2,181.2 252.4,195.3 252.6,213.4 237.3,228.5 219.2,228.5 
		219.2,265.1 204.7,265.1 204.7,228.5 192.9,228.5 169,253.1 159.4,244 187.2,216.3 205.3,216 205.3,195.6 187,195.6 177.5,186.5 	
		"/>
</g>
</svg>
