<?xml version="1.0" encoding="utf-8"?>
<!-- Generator: Adobe Illustrator 27.9.0, SVG Export Plug-In . SVG Version: 6.00 Build 0)  -->
<svg version="1.1" id="Camada_1" xmlns="http://www.w3.org/2000/svg" xmlns:xlink="http://www.w3.org/1999/xlink" x="0px" y="0px"
	 viewBox="0 0 464.9 668.2" style="enable-background:new 0 0 464.9 668.2;" xml:space="preserve">
<style type="text/css">
	.st0{fill:#35D0FF;}
	.st1{fill:url(#SVGID_1_);}
	.st2{fill:url(#SVGID_00000026145778141825492890000013012296580442910339_);}
	.st3{fill:#FF4B77;}
	.st4{fill:#FFFFFF;}
	.st5{fill:#060023;}
	.st6{fill:url(#SVGID_00000161628255540585260460000005683973765262834568_);}
	.st7{fill:url(#SVGID_00000065065196279569975820000005544489142159977871_);}
	.st8{fill:url(#SVGID_00000119104547410559743960000002876240236173800344_);}
	.st9{fill:url(#SVGID_00000074399716978365216520000009436823163204354448_);}
	.st10{fill:url(#SVGID_00000088832835040975846600000015780634317861029307_);}
	.st11{fill:url(#SVGID_00000150799203723076549090000017087745217468383636_);}
	.st12{fill:url(#SVGID_00000176729300556580136350000001451588653384674445_);}
	.st13{fill:url(#SVGID_00000174599980882559736210000017381595611527353020_);}
</style>
<path d="M66.1,422.1l17,32.6l17-32.6h11.2l-23.9,45.3h-8.7l-23.9-45.3H66.1z"/>
<path d="M149.1,467.3l17-32.6l17,32.6h11.2l-23.9-45.3h-8.7l-23.9,45.3H149.1z"/>
<path d="M254.8,544.4l17.8-34.2l17.8,34.2h11.7l-25.1-47.5h-9.1l-25.1,47.5H254.8z"/>
<path d="M119.3,422.1h10.5v45.3h-10.5V422.1z"/>
<path d="M225.6,420.8c6,0,15.5,1.1,20.2,5.5l-5,7.4c-4.6-2.6-9.9-3.7-15.2-3.7c-9.5,0-19.4,3.8-19.4,14.8c0,11,9.9,14.8,19.4,14.8
	c3.2,0,8.2-0.3,11.1-1.7v-8.3h-11.9v-8.8h21.7v22.6c-5.2,4.6-14.2,5.4-20.9,5.4c-15.4,0-30.2-7-30.2-23.9
	C195.4,427.8,210.2,420.8,225.6,420.8z"/>
<path d="M300.1,422.1v9.1h-33.6v8.9h32.2v8.8h-32.2v9.3h33.9v9.1H256v-45.3H300.1z"/>
<path d="M308,422.1h13.4l25.1,32.9v-32.9H357v45.3h-13.4l-25.1-32.9v32.9H308V422.1z"/>
<path d="M368.5,455.8c5.6,2.8,12.1,3.7,18.3,3.7c2.9,0,12.5-0.1,12.5-4.7c0-4.1-10-5-13-5.6c-8.4-1.7-21.2-4.1-21.2-14.9
	c0-11.4,12.8-13.5,21.7-13.5c5.7,0,17.1,0.8,21.8,4.6l-5.1,7.5c-5.1-2.3-11.1-2.9-16.6-2.9c-2.8,0-11,0.1-11,4.4
	c0,4,9.4,5.1,12.5,5.7c8.4,1.7,21.7,3.7,21.7,14.8c0,11.8-14.1,13.8-23.2,13.8c-6.9,0-17.6-1.1-23.5-5.4L368.5,455.8z"/>
<path class="st0" d="M408,544.6h-90.9c-1.1,0-2-0.9-2-2v-19.8c0-1.1,0.9-2,2-2H408c1.1,0,2,0.9,2,2v19.8
	C410,543.7,409.1,544.6,408,544.6z"/>
<path d="M106.3,496.9v9.6H71v10h33.9v9.3H71v18.8H59.9v-47.7H106.3z"/>
<path d="M147.2,495.6c16.2,0,31.8,7.3,31.8,25.2c0,17.8-15.6,25.2-31.8,25.2s-31.8-7.3-31.8-25.2C115.4,503,131,495.6,147.2,495.6z
	 M126.8,520.8c0,11.6,10.4,15.6,20.4,15.6s20.4-4,20.4-15.6c0-11.6-10.4-15.6-20.4-15.6S126.8,509.2,126.8,520.8z"/>
<path d="M236.8,544.6v-47.7h-31.3c-10.1,0-18.8,5.2-18.8,16.1c0,6.9,3.4,11.5,9.9,13.7l-10.4,17.9h12.3l9.5-16.4h17.6v16.4H236.8z
	 M225.8,519.6h-20.3c-4.4,0-7.5-1.8-7.5-6.5s3.2-6.5,7.5-6.5h20.3V519.6z"/>
<g>
	<path d="M319.6,531.3v-34.4h21.5c10.7,0,17.2,6.6,17.2,17.2c0,10.6-6.5,17.2-17.2,17.2H319.6z M327.6,503.8v20.5h13.5
		c6.3,0,8.9-4.5,8.9-10.3c0-5.8-2.7-10.3-8.9-10.3H327.6z"/>
	<path d="M385.5,495.9c11.7,0,22.9,5.3,22.9,18.2s-11.3,18.2-22.9,18.2s-22.9-5.3-22.9-18.2S373.9,495.9,385.5,495.9z M370.8,514.1
		c0,8.3,7.5,11.2,14.7,11.2s14.7-2.9,14.7-11.2s-7.5-11.2-14.7-11.2S370.8,505.7,370.8,514.1z"/>
</g>
<path d="M58,596.2c0-16.9,14.8-23.8,30.1-23.8c5.9,0,15.5,1.2,20.2,5.4l-5,7.3c-4.6-2.6-9.9-3.7-15.2-3.7c-9.5,0-19.3,3.8-19.3,14.7
	c0,11,9.8,14.7,19.3,14.7c4.8,0,10.9-1.2,15.2-3.7l5,7.3c-5.1,4.6-13.6,5.4-20.2,5.4C72.7,620.1,58,613.1,58,596.2z"/>
<path d="M258.3,606.1l15.6-31.2h13.4v45.1h-10.5v-29l-14.4,29h-8.1l-14.4-29v29h-10.5v-45.1h13.4L258.3,606.1z"/>
<path d="M295.5,599.6v-24.6H306v24.6c0,9.5,4.4,12.7,13.7,12.7s13.7-3.1,13.7-12.7v-24.6h10.5v24.6c0,15.8-9.1,21.8-24.2,21.8
	C304.6,621.3,295.5,615.4,295.5,599.6z"/>
<path d="M381,606.1l15.6-31.2H410v45.1h-10.5v-29l-14.4,29H377l-14.4-29v29H352v-45.1h13.4L381,606.1z"/>
<path d="M198.6,586.5c5.7,0,10.3,4.6,10.3,10.3v1.5c0,5.7-4.6,10.3-10.3,10.3h-61.4c-5.7,0-10.3-4.6-10.3-10.3v-1.5
	c0-5.7,4.6-10.3,10.3-10.3H198.6 M198.6,574.9h-61.4c-12.1,0-21.8,9.8-21.8,21.8v1.5c0,12.1,9.8,21.8,21.8,21.8h61.4
	c12.1,0,21.8-9.8,21.8-21.8v-1.5C220.4,584.7,210.7,574.9,198.6,574.9L198.6,574.9z"/>
<g>
	<g>
		<g>
			<path class="st0" d="M121.8,202.5c0.4-0.1,0.8-0.2,1.2-0.3c0.1,0,0.2-0.1,0.3-0.1c0,0,0,0,0,0c0,0,0,0,0,0l34-2.2
				c0.1,0,0.2,0,0.2,0c0.1,0,0.2,0,0.3,0c0.2,0,0.4,0.1,0.6,0.1c0.2,0,0.4,0,0.6,0.1c0.3,0.1,0.6,0.2,0.9,0.3
				c0.2,0.1,0.4,0.1,0.6,0.2c0.3,0.2,0.6,0.4,0.8,0.6c0.1,0.1,0.3,0.2,0.4,0.3c0.4,0.4,0.7,0.8,1,1.3l22.2,40l19.3,34.9
				c0.2,0.4,0.4,0.9,0.5,1.4c0,0.2,0,0.3,0.1,0.5c0,0.3,0.1,0.6,0.1,0.9c0,0.2-0.1,0.4-0.1,0.6c0,0.3-0.1,0.6-0.1,0.9
				c-0.1,0.2-0.1,0.4-0.2,0.6c-0.1,0.2-0.1,0.5-0.3,0.7l-17.4,32.2c-0.1,0.1-0.2,0.2-0.3,0.3c-0.1,0.1-0.1,0.2-0.2,0.3
				c-0.1,0.1-0.2,0.2-0.3,0.3c-0.2,0.2-0.4,0.4-0.6,0.6c-0.2,0.2-0.4,0.3-0.5,0.4c-0.2,0.2-0.5,0.3-0.8,0.4
				c-0.2,0.1-0.4,0.2-0.6,0.3c-0.3,0.1-0.5,0.1-0.8,0.2c-0.2,0-0.5,0.1-0.7,0.1c-0.1,0-0.2,0-0.3,0c-0.2,0-0.4-0.1-0.6-0.1
				c-0.2,0-0.3,0-0.5,0l-90.5-18c-1.6-0.3-3.1-1.2-3.8-2.6c0,0,0,0,0,0c0-0.1-0.1-0.1-0.1-0.2c0,0,0,0,0,0s0,0,0,0
				c-0.2-0.5-0.4-0.9-0.5-1.4c0-0.1-0.1-0.3-0.1-0.4c-0.1-0.4-0.1-0.8-0.1-1.1c0-0.1,0-0.3,0-0.4c0-0.5,0.1-0.9,0.3-1.4l32.4-86.8
				c0-0.1,0.1-0.2,0.2-0.3c0.1-0.1,0.1-0.3,0.2-0.4c0.1-0.1,0.2-0.3,0.3-0.4c0.1-0.2,0.2-0.4,0.4-0.5c0.2-0.2,0.4-0.5,0.7-0.7
				c0.2-0.1,0.3-0.3,0.5-0.4c0.3-0.2,0.6-0.3,0.9-0.5C121.5,202.7,121.6,202.6,121.8,202.5z"/>
		</g>
	</g>
	<g>
		<g>
			<linearGradient id="SVGID_1_" gradientUnits="userSpaceOnUse" x1="165.6362" y1="220.2803" x2="363.266" y2="220.2803">
				<stop  offset="0" style="stop-color:#DDEF30"/>
				<stop  offset="1" style="stop-color:#ADDE00"/>
			</linearGradient>
			<path class="st1" d="M166.1,176c0.2-0.6,0.5-1.2,0.9-1.8c0.1-0.1,0.1-0.3,0.2-0.4c0,0,0,0,0,0c0,0,0,0,0,0l30.7-44.2
				c0.1-0.1,0.2-0.2,0.3-0.3c0.1-0.1,0.2-0.3,0.3-0.4c0.2-0.3,0.5-0.4,0.7-0.7c0.2-0.2,0.5-0.5,0.7-0.7c0.4-0.3,0.8-0.5,1.3-0.8
				c0.3-0.2,0.5-0.3,0.8-0.4c0.5-0.2,1-0.3,1.5-0.4c0.3-0.1,0.5-0.2,0.8-0.2c0.8-0.1,1.6-0.1,2.4,0.1l68.7,12.6l59.9,11
				c0.8,0.1,1.5,0.4,2.2,0.7c0.2,0.1,0.4,0.3,0.7,0.4c0.4,0.3,0.8,0.5,1.2,0.8c0.2,0.2,0.4,0.5,0.6,0.7c0.3,0.3,0.6,0.6,0.9,1
				c0.2,0.3,0.3,0.6,0.5,0.9c0.2,0.3,0.4,0.6,0.5,1l20.8,53.7c0.1,0.2,0.1,0.4,0.2,0.6c0.1,0.2,0.2,0.3,0.2,0.5c0,0.2,0,0.4,0.1,0.6
				c0.1,0.5,0.1,0.9,0.1,1.4c0,0.4,0,0.7,0,1.1c0,0.5-0.1,0.9-0.2,1.4c-0.1,0.4-0.2,0.7-0.3,1.1c-0.2,0.4-0.4,0.8-0.6,1.2
				c-0.2,0.3-0.4,0.7-0.6,1c-0.1,0.1-0.1,0.2-0.2,0.4c-0.2,0.3-0.5,0.5-0.7,0.7c-0.2,0.2-0.3,0.4-0.5,0.6l-109.8,93.6
				c-1.9,1.6-4.5,2.5-6.8,2c0,0-0.1,0-0.1,0c-0.1,0-0.3,0-0.4-0.1c0,0,0,0,0,0s0,0,0,0c-0.8-0.1-1.5-0.4-2.2-0.8
				c-0.2-0.1-0.4-0.2-0.6-0.3c-0.5-0.3-1-0.7-1.4-1.1c-0.1-0.1-0.3-0.3-0.4-0.4c-0.5-0.5-1-1.1-1.3-1.8l-70.3-126.7
				c-0.1-0.2-0.1-0.3-0.2-0.5c-0.1-0.2-0.3-0.4-0.3-0.6c-0.1-0.2-0.1-0.5-0.2-0.7c-0.1-0.3-0.2-0.6-0.2-1c-0.1-0.5-0.1-1-0.1-1.5
				c0-0.3,0-0.6,0-1c0-0.5,0.2-1,0.3-1.5C166,176.5,166.1,176.2,166.1,176z"/>
		</g>
	</g>
	<g>
		<g>
			
				<linearGradient id="SVGID_00000167357638947147691000000011039125772392878733_" gradientUnits="userSpaceOnUse" x1="-1136.7911" y1="91.6302" x2="-1135.241" y2="91.6302">
				<stop  offset="0" style="stop-color:#FFDE00"/>
				<stop  offset="1" style="stop-color:#FFDE00"/>
			</linearGradient>
			<path style="fill:url(#SVGID_00000167357638947147691000000011039125772392878733_);" d="M342,58.8c-0.2-0.2-0.5-0.4-0.8-0.5
				c-0.1,0-0.1-0.1-0.2-0.1c0,0,0,0,0,0c0,0,0,0,0,0l-23.3-10.9c-0.1,0-0.1,0-0.2-0.1c-0.1,0-0.1-0.1-0.2-0.1
				c-0.2-0.1-0.3-0.1-0.5-0.1c-0.2,0-0.3-0.1-0.5-0.1c-0.2,0-0.5,0-0.7,0c-0.2,0-0.3,0-0.5,0c-0.3,0-0.5,0.1-0.7,0.2
				c-0.1,0-0.3,0.1-0.4,0.1c-0.4,0.2-0.7,0.4-1,0.6L286.6,70l-23.1,19.3c-0.3,0.2-0.5,0.5-0.8,0.8c-0.1,0.1-0.1,0.2-0.2,0.3
				c-0.1,0.2-0.2,0.4-0.3,0.6c-0.1,0.1-0.1,0.3-0.1,0.4c-0.1,0.2-0.1,0.4-0.1,0.6c0,0.2,0,0.3,0,0.5c0,0.2,0,0.4,0,0.5l3.5,27.4
				c0,0.1,0.1,0.2,0.1,0.3c0,0.1,0,0.2,0,0.3c0,0.1,0.1,0.2,0.1,0.3c0.1,0.2,0.2,0.4,0.3,0.6c0.1,0.2,0.2,0.3,0.3,0.5
				c0.1,0.2,0.3,0.3,0.4,0.5c0.1,0.1,0.2,0.3,0.4,0.4c0.2,0.1,0.3,0.3,0.5,0.4c0.2,0.1,0.3,0.2,0.5,0.3c0.1,0,0.1,0.1,0.2,0.1
				c0.2,0.1,0.3,0.1,0.5,0.1c0.1,0,0.2,0.1,0.4,0.1l68.5,12c1.2,0.2,2.5,0,3.4-0.8c0,0,0,0,0,0c0.1,0,0.1-0.1,0.1-0.1c0,0,0,0,0,0
				s0,0,0,0c0.3-0.2,0.5-0.5,0.8-0.9c0.1-0.1,0.1-0.2,0.2-0.3c0.1-0.2,0.3-0.5,0.4-0.8c0-0.1,0.1-0.2,0.1-0.3
				c0.1-0.3,0.2-0.7,0.2-1.1l0.9-69.9c0-0.1,0-0.2,0-0.3c0-0.1,0-0.2,0-0.4c0-0.1-0.1-0.2-0.1-0.3c0-0.2-0.1-0.3-0.1-0.5
				c-0.1-0.2-0.2-0.4-0.3-0.6c-0.1-0.1-0.1-0.3-0.2-0.4c-0.1-0.2-0.3-0.4-0.5-0.6C342.2,59,342.1,58.9,342,58.8z"/>
		</g>
	</g>
	<g>
		<g>
			<path class="st3" d="M328.8,350.5c-0.1,0.3-0.2,0.5-0.4,0.8c0,0.1,0,0.1-0.1,0.2c0,0,0,0,0,0c0,0,0,0,0,0l-12.7,18.7
				c0,0-0.1,0.1-0.1,0.1c0,0.1-0.1,0.1-0.1,0.2c-0.1,0.1-0.2,0.2-0.3,0.3c-0.1,0.1-0.2,0.2-0.3,0.3c-0.2,0.1-0.3,0.2-0.5,0.3
				c-0.1,0.1-0.2,0.1-0.4,0.2c-0.2,0.1-0.4,0.1-0.7,0.2c-0.1,0-0.2,0.1-0.3,0.1c-0.3,0-0.7,0-1,0l-30-4.7l-26.2-4.1
				c-0.3-0.1-0.6-0.2-1-0.3c-0.1,0-0.2-0.1-0.3-0.2c-0.2-0.1-0.4-0.2-0.5-0.3c-0.1-0.1-0.2-0.2-0.3-0.3c-0.1-0.1-0.3-0.3-0.4-0.4
				c-0.1-0.1-0.1-0.2-0.2-0.4c-0.1-0.1-0.2-0.3-0.2-0.4l-9.8-22.3c0-0.1,0-0.2-0.1-0.3c0-0.1-0.1-0.1-0.1-0.2c0-0.1,0-0.2,0-0.2
				c0-0.2-0.1-0.4-0.1-0.6c0-0.2,0-0.3,0-0.5c0-0.2,0-0.4,0.1-0.6c0-0.2,0.1-0.3,0.1-0.5c0.1-0.2,0.1-0.3,0.2-0.5
				c0.1-0.1,0.2-0.3,0.2-0.4c0,0,0.1-0.1,0.1-0.1c0.1-0.1,0.2-0.2,0.3-0.3c0.1-0.1,0.1-0.2,0.2-0.3l46.5-40.1
				c0.8-0.7,1.9-1.1,2.9-0.9c0,0,0,0,0,0c0.1,0,0.1,0,0.2,0c0,0,0,0,0,0s0,0,0,0c0.3,0.1,0.7,0.2,1,0.3c0.1,0,0.2,0.1,0.3,0.1
				c0.2,0.1,0.4,0.3,0.6,0.4c0.1,0.1,0.1,0.1,0.2,0.2c0.2,0.2,0.4,0.5,0.6,0.7l32.3,52.5c0,0.1,0.1,0.1,0.1,0.2
				c0.1,0.1,0.1,0.2,0.2,0.3c0,0.1,0.1,0.2,0.1,0.3c0,0.1,0.1,0.3,0.1,0.4c0,0.2,0.1,0.4,0.1,0.6c0,0.1,0,0.3,0,0.4
				c0,0.2-0.1,0.4-0.1,0.6C328.9,350.2,328.9,350.4,328.8,350.5z"/>
		</g>
	</g>
	<g>
		<circle class="st5" cx="291.1" cy="208.7" r="13.3"/>
		<polygon class="st5" points="250.8,227 267.4,210.7 267.9,235.1 315.1,235.1 333.6,250.3 333.9,269.8 317.3,286.1 297.8,286.1 
			297.8,325.6 282.2,325.6 282.2,286.1 269.5,286.1 269.5,296.4 252.9,310.5 252.9,281.3 263.3,273 282.9,272.7 282.9,250.7 
			263.1,250.7 250.7,239.5 		"/>
	</g>
	<g>
		<circle class="st5" cx="224.6" cy="149.6" r="13.3"/>
		<polygon class="st5" points="186.4,160 201.4,152.4 201.4,175.9 248.6,175.9 267.1,191.2 267.4,210.7 250.8,227 231.4,227 
			231.4,266.5 215.7,266.5 215.7,227 203,227 177.2,253.5 166.9,243.7 196.8,213.9 216.4,213.6 216.4,191.6 196.6,191.6 
			186.4,181.7 		"/>
	</g>
</g>
</svg>
